<svg width="NaN" height="450" xmlns="http://www.w3.org/2000/svg" version="1.1">

 <g>
  <title>Layer 1</title>
  <g id="Layer_1">
   <path stroke="#fff" id="svg_1" fill="#00ffff" d="m279.184,119.133l8.314,-1.819c0,0 2.442,13.772 2.649,13.772c0.207,0 -16.53,2.308 -16.53,2.308l5.567,-14.261zm104.782,49.883l0,41.434l-21.383,0l1.198,-35.137l20.185,-6.297zm-23.879,-3.193l-4.401,-37.338l-59.117,4.679l0,-19.487c0,0 20.341,-0.003 21.51,0.388c1.17,0.391 5.683,-13.618 5.683,-13.618l-2.024,-32.371l13.994,-1.954c0,0 5.435,24.543 6.214,26.881c0.779,2.338 21.286,1.93 21.286,1.93c0,0 -0.384,49.454 -0.644,51.404c-0.261,1.95 10.129,0.136 10.129,0.136l2.337,-27.22l9.352,0l-2.338,40.24l-21.981,6.33zm72.962,2.415c-0.262,0.778 -24.996,-2.339 -24.996,-2.339c0,0 1.301,-43.909 1.301,-44.687c0,-0.779 6.504,-2.079 6.715,-2.079c0.213,0 0.063,35.596 1.319,36.373c1.256,0.781 14.879,-1.3 14.879,-1.3c0,0 3.997,-20.003 4.515,-18.964c0.519,1.04 29.514,-2.078 29.514,-2.078l0,11.951l-20.921,0.518c0,0 -12.067,21.823 -12.326,22.605m143.224,115.513l4.019,-0.008l0,0.812c0,3.243 -0.982,6.545 -1.164,9.813c-0.098,1.75 -0.774,3.491 -0.919,5.22l-3.284,-0.265c0.147,-1.701 0.529,-3.408 0.626,-5.13c0.195,-3.516 0.739,-6.999 0.722,-10.442m-568.381,28.813c0.036,0.024 0.18,0.082 0.356,0.054l-0.221,-1.544c0.58,-0.078 1.075,0.385 1.823,1.339c2.525,3.213 15.257,23.991 14.599,25.639l-0.95,-0.382l-0.542,0.1c-0.315,-1.767 -13.18,-23.991 -15.065,-25.206m1.838,32.246c0.315,-0.313 0.885,-0.641 1.83,-0.416c5.153,1.216 19.499,20.115 20.115,21.959l-1.477,0.497c-0.67,-1.775 -14.704,-20.014 -19.026,-20.946c-0.13,-0.029 -0.29,-0.039 -0.341,0.01l-1.101,-1.104zm26.29,-2.922c-2.875,2.049 -5.662,4.214 -7.581,6.025c-0.965,0.9 -1.685,1.721 -2.171,2.325c-0.42,0.653 -0.659,1.024 -0.659,1.024c0,0 0.156,-0.423 0.43,-1.16c0.347,-0.705 0.89,-1.702 1.659,-2.82c1.524,-2.249 3.83,-5.034 6.239,-7.714c2.407,-2.682 4.908,-5.274 6.812,-7.193c1.894,-1.915 3.217,-3.182 3.217,-3.182l3.817,4.933c0,0 -1.485,0.896 -3.718,2.335c-2.226,1.428 -5.174,3.377 -8.045,5.427m11.513,28.53c-1.228,1.31 -2.415,2.659 -3.471,3.969c-0.499,0.668 -1.028,1.302 -1.454,1.936c-0.411,0.642 -0.875,1.229 -1.175,1.82c-0.297,0.589 -0.674,1.113 -0.836,1.624c-0.181,0.503 -0.408,0.944 -0.485,1.324c-0.134,0.783 -0.213,1.231 -0.213,1.231c0,0 -0.019,-0.463 -0.052,-1.27c-0.006,-0.41 0.124,-0.884 0.199,-1.456c0.062,-0.582 0.316,-1.163 0.498,-1.848c0.182,-0.689 0.515,-1.362 0.797,-2.12c0.299,-0.753 0.689,-1.495 1.055,-2.296c0.784,-1.564 1.689,-3.194 2.648,-4.79c1.921,-3.191 4.027,-6.258 5.657,-8.527c0.831,-1.128 1.523,-2.068 2.006,-2.723c0.506,-0.66 0.793,-1.035 0.793,-1.035l4.493,4.324c0,0 -0.338,0.288 -0.928,0.784c-0.587,0.52 -1.428,1.263 -2.437,2.153c-2.001,1.805 -4.626,4.279 -7.095,6.9m10.872,-121.625c-4.529,1.006 -9.017,2.233 -12.212,3.577c-0.799,0.337 -1.512,0.682 -2.131,1.016c-0.611,0.344 -1.122,0.681 -1.518,0.992c-0.376,0.327 -0.684,0.594 -0.83,0.821c-0.167,0.219 -0.257,0.338 -0.257,0.338c0,0 0.07,-0.132 0.198,-0.373c0.112,-0.262 0.372,-0.576 0.704,-0.979c0.352,-0.389 0.815,-0.821 1.382,-1.279c0.574,-0.445 1.245,-0.92 1.999,-1.401c3.022,-1.911 7.345,-3.907 11.732,-5.688c4.391,-1.784 8.854,-3.362 12.221,-4.494c3.368,-1.133 5.661,-1.826 5.661,-1.826l1.318,6.094c0,0 -2.275,0.289 -5.714,0.838c-3.439,0.55 -8.023,1.352 -12.553,2.364m10.36,71.669c0.009,-0.585 0.02,-1.168 0.028,-1.743l0.004,-0.433l0.006,-0.218l0.005,-0.154l0.007,-0.063l0.018,-0.119l0.128,-0.96c0.159,-1.271 0.352,-2.517 0.638,-3.727c1.042,-4.852 2.793,-9.144 4.823,-12.764c4.096,-7.259 8.93,-11.956 12.319,-15.046c1.721,-1.534 3.128,-2.672 4.091,-3.42c0.968,-0.749 1.484,-1.145 1.484,-1.145c0,0 -0.415,0.502 -1.191,1.448c-0.772,0.949 -1.867,2.347 -3.174,4.192c-2.565,3.677 -6.047,9.198 -8.117,16.276c-1.029,3.521 -1.626,7.407 -1.551,11.412c-0.013,1 0.069,2.008 0.178,3.021l0.069,0.759l0.008,0.094l0.004,0.047c0.002,0.107 0.002,-0.088 0.003,-0.049l0.012,0.218l0.025,0.433c0.032,0.575 0.065,1.157 0.099,1.74c0.193,2.03 0.46,4.224 0.902,6.399c0.877,4.343 2.307,8.698 4.359,12.757c2.024,4.075 4.702,7.837 7.841,10.964c3.136,3.127 6.768,5.599 10.563,7.091c1.896,0.747 3.824,1.303 5.749,1.575c0.965,0.124 1.917,0.496 2.87,0.518c0.474,0.032 0.95,0.346 1.423,0.346l0.382,0l0.229,-0.373l0.91,-0.305c1.645,-0.147 3.568,-0.59 5.224,-1.14c1.698,-0.55 3.303,-1.299 4.8,-2.15c2.997,-1.7 5.544,-3.923 7.622,-6.245c2.088,-2.323 3.699,-4.784 4.945,-7.062c1.254,-2.275 2.123,-4.402 2.758,-6.175c0.646,-1.773 1.01,-3.225 1.277,-4.2c0.235,-0.989 0.356,-1.515 0.356,-1.515l18.089,4.767c0,0 -0.228,0.721 -0.653,2.072c-0.469,1.335 -1.136,3.304 -2.222,5.724c-1.075,2.42 -2.525,5.312 -4.559,8.431c-2.024,3.117 -4.611,6.484 -7.976,9.709c-3.352,3.219 -7.486,6.316 -12.443,8.649c-2.471,1.163 -5.143,2.127 -7.958,2.805c-2.852,0.678 -5.67,1.071 -8.881,1.101l-0.916,-0.012l-0.656,-0.004l-0.564,-0.032c-0.752,-0.056 -1.506,-0.071 -2.26,-0.166c-1.513,-0.154 -3.017,-0.412 -4.516,-0.73c-2.988,-0.663 -5.91,-1.699 -8.666,-3.038c-5.528,-2.68 -10.345,-6.579 -14.224,-11.063c-3.884,-4.496 -6.904,-9.557 -9.047,-14.794c-2.172,-5.228 -3.503,-10.619 -4.166,-15.865c-0.329,-2.623 -0.473,-5.197 -0.508,-7.838m65.101,-38.62c-22.822,-2.567 -45.643,-5.132 -45.643,-5.132c0,0 22.947,1.012 45.895,2.026c11.473,0.539 22.945,1.113 31.561,1.623c1,0.06 1.955,0.116 2.87,0.173c3.046,0.188 5.623,0.364 7.582,0.53c0.646,0.056 1.223,0.108 1.721,0.155c0.528,0.06 0.856,0.071 1.531,0.193c1.261,0.24 1.34,0.304 1.399,0.309l-2.211,5.826l-0.611,-0.138c-0.248,-0.042 -0.557,-0.1 -0.918,-0.163c-0.468,-0.075 -1.005,-0.161 -1.606,-0.256c-1.277,-0.194 -2.864,-0.42 -4.693,-0.665c-1.662,-0.226 -3.523,-0.467 -5.551,-0.728c-8.522,-1.085 -19.924,-2.436 -31.326,-3.753m64.144,-9.681l-16.978,-71.375l6.123,-1.184l10.855,72.559zm4.531,37.627l-0.008,-0.055l0.019,0.014c0.053,0.029 0.565,0.33 1.365,0.917c0.854,0.611 2.01,1.526 3.281,2.704c2.561,2.338 5.522,5.763 8.052,9.482c2.531,3.719 4.637,7.723 5.877,10.954c0.63,1.608 1.059,3.014 1.317,4.028c0.267,1.006 0.359,1.62 0.359,1.62c0,0 -0.539,-0.312 -1.382,-0.93c-0.852,-0.614 -2.006,-1.529 -3.276,-2.707c-2.561,-2.343 -5.524,-5.767 -8.062,-9.479c-2.536,-3.711 -4.644,-7.714 -5.883,-10.948c-0.629,-1.609 -1.056,-3.014 -1.311,-4.029c-0.234,-0.886 -0.326,-1.44 -0.348,-1.571m16.079,50.449c0.047,-0.675 0.171,-1.533 0.516,-2.421c0.315,-0.911 0.785,-1.881 1.402,-2.86c0.618,-0.977 1.37,-1.952 2.224,-2.926c0.867,-0.95 1.822,-1.908 2.865,-2.806c1.044,-0.9 2.152,-1.789 3.328,-2.597c1.16,-0.84 2.388,-1.594 3.623,-2.333c4.971,-2.908 10.323,-4.933 14.502,-5.97c2.092,-0.517 3.878,-0.826 5.146,-0.98c1.266,-0.161 2.018,-0.167 2.018,-0.167c0,0 -0.55,0.509 -1.536,1.306c-0.985,0.801 -2.408,1.884 -4.131,3.111c-3.449,2.452 -8.164,5.329 -12.85,8.077c-1.167,0.684 -2.338,1.364 -3.488,2.034c-1.138,0.673 -2.257,1.334 -3.339,1.974c-2.148,1.289 -4.108,2.524 -5.674,3.694c-0.776,0.587 -1.492,1.14 -2.056,1.69c-0.565,0.554 -1.026,1.073 -1.367,1.551c-0.148,0.241 -0.289,0.467 -0.431,0.671c-0.116,0.202 -0.176,0.389 -0.247,0.543c-0.142,0.319 -0.218,0.487 -0.218,0.487c0,0 -0.048,-0.178 -0.139,-0.512c-0.103,-0.348 -0.188,-0.873 -0.148,-1.566m4.41,35.814c0.4,-0.66 0.894,-1.34 1.45,-2.075c2.232,-2.939 5.73,-6.226 9.619,-8.958c0.98,-0.676 1.965,-1.341 2.976,-1.939c0.991,-0.62 2.014,-1.17 3.008,-1.685c1.993,-1.029 3.96,-1.833 5.696,-2.407c0.889,-0.273 1.695,-0.5 2.436,-0.673c0.764,-0.171 1.435,-0.262 1.97,-0.344c1.077,-0.084 1.719,-0.064 1.719,-0.064c0,0 -0.433,0.48 -1.242,1.199c-0.747,0.77 -1.768,1.794 -3.073,2.991c-1.288,1.213 -2.818,2.546 -4.5,3.919c-1.679,1.373 -3.523,2.756 -5.399,4.1c-1.894,1.315 -3.814,2.59 -5.676,3.706c-1.851,1.13 -3.642,2.104 -5.201,2.916c-1.587,0.792 -2.908,1.449 -3.835,1.912c-0.478,0.242 -0.834,0.424 -1.073,0.584c-0.262,0.153 -0.399,0.235 -0.399,0.235c0,0 0.023,-0.149 0.103,-0.438c0.081,-0.286 0.201,-0.755 0.462,-1.227c0.238,-0.509 0.547,-1.123 0.959,-1.752m15.609,31.084c0.015,-0.245 -0.033,-0.665 0.077,-1.122c0.076,-0.478 0.19,-1.07 0.422,-1.697c0.202,-0.659 0.531,-1.314 0.903,-2.054c0.396,-0.702 0.856,-1.46 1.411,-2.184c0.541,-0.75 1.175,-1.457 1.854,-2.175c0.691,-0.694 1.42,-1.403 2.222,-2.031c0.777,-0.672 1.639,-1.229 2.479,-1.828c1.73,-1.101 3.545,-2.061 5.324,-2.765c1.771,-0.729 3.493,-1.213 5.024,-1.52c1.534,-0.316 2.825,-0.425 3.756,-0.435c0.926,-0.031 1.484,0.014 1.484,0.014c0,0 -0.339,0.446 -0.983,1.112c-0.647,0.67 -1.588,1.581 -2.702,2.551c-1.121,0.976 -2.472,2.038 -3.914,3.102c-0.733,0.522 -1.468,1.075 -2.242,1.591c-0.769,0.526 -1.544,1.053 -2.332,1.564c-3.13,2.056 -6.283,3.945 -8.703,5.431c-0.581,0.381 -1.173,0.72 -1.642,1.054c-0.499,0.326 -0.937,0.619 -1.285,0.885c-0.364,0.262 -0.631,0.491 -0.827,0.651c-0.203,0.164 -0.311,0.25 -0.311,0.25c0,0 -0.007,-0.138 -0.015,-0.394m19.682,-153.412c-2.91,0.905 -5.819,1.768 -8.544,2.552c-2.725,0.786 -5.265,1.496 -7.42,2.156c-2.16,0.652 -3.92,1.281 -5.084,1.886c-0.549,0.319 -1.055,0.566 -1.296,0.821c-0.287,0.245 -0.441,0.376 -0.441,0.376c0,0 0.035,-0.19 0.139,-0.569c0.047,-0.198 0.129,-0.428 0.264,-0.678c0.128,-0.25 0.266,-0.579 0.489,-0.858c0.811,-1.252 2.315,-2.745 4.283,-4.194c3.952,-2.917 9.768,-5.568 15.745,-7.438c2.993,-0.931 6.025,-1.688 8.905,-2.241c2.877,-0.56 5.598,-0.916 7.949,-1.109c2.357,-0.18 4.341,-0.218 5.742,-0.183c1.398,0.027 2.212,0.124 2.212,0.124c0,0 -0.698,0.43 -1.93,1.079c-1.232,0.653 -3.005,1.517 -5.144,2.468c-4.277,1.9 -10.063,3.98 -15.869,5.808m19.101,-25.025c-5.648,0.928 -11.247,1.727 -15.326,2.665c-1.018,0.236 -1.959,0.468 -2.763,0.734c-0.807,0.27 -1.5,0.54 -2.069,0.809c-0.536,0.295 -1.009,0.524 -1.266,0.753c-0.297,0.205 -0.458,0.316 -0.458,0.316c0,0 0.058,-0.184 0.17,-0.529c0.11,-0.362 0.328,-0.863 0.72,-1.455c0.394,-0.572 0.924,-1.279 1.648,-1.925c0.708,-0.68 1.57,-1.37 2.561,-2.011c1.984,-1.299 4.457,-2.462 7.164,-3.386c2.707,-0.926 5.65,-1.626 8.604,-2.12c5.923,-0.974 11.897,-1.043 16.372,-0.587c2.241,0.23 4.104,0.546 5.406,0.836c1.302,0.28 2.043,0.525 2.043,0.525c0,0 -0.722,0.294 -1.981,0.707c-1.256,0.421 -3.05,0.955 -5.193,1.518c-2.144,0.555 -4.64,1.119 -7.305,1.649c-1.332,0.266 -2.709,0.526 -4.104,0.771c-1.392,0.241 -2.806,0.486 -4.223,0.73m22.75,124.814c0.103,0.03 0.199,0.081 0.305,0.102c6.037,1.128 13.569,-11.027 16.823,-27.144c3.251,-16.117 0.994,-30.094 -5.042,-31.221c-1.615,-0.303 -3.335,0.373 -5.054,1.79c4.27,-10.249 9.575,-16.531 14.354,-15.801c7.957,1.21 11.434,21.37 7.77,45.032c-3.667,23.66 -13.085,41.865 -21.043,40.653c-3.862,-0.587 -6.667,-5.653 -8.113,-13.411m16.443,33.271c-1.91,-0.294 -3.701,-1.019 -5.369,-2.124c13.211,-5.649 25.494,-27.045 29.657,-53.921c4.671,-30.159 -2.503,-56.753 -16.209,-62.968c3.563,-2.324 7.214,-3.364 10.789,-2.819c15.039,2.291 23.008,31.416 17.796,65.057c-5.209,33.645 -21.625,59.061 -36.664,56.775m57.4,-127.997l40.471,-4.548l0.118,6.237l-40.589,-1.689zm8.313,32.347c0,0 0.629,0.021 1.728,0.06c0.546,0.037 1.215,-0.013 1.971,-0.023c0.761,-0.008 1.614,-0.118 2.532,-0.214c0.455,-0.075 0.928,-0.155 1.419,-0.239c0.476,-0.115 0.969,-0.239 1.476,-0.362c0.495,-0.154 0.992,-0.34 1.498,-0.517c0.481,-0.241 0.997,-0.421 1.461,-0.713c1.925,-1.053 3.53,-2.716 4.474,-4.741c0.982,-1.998 1.369,-4.292 1.493,-6.464c0.126,-2.178 -0.023,-4.267 -0.198,-6.073c-0.181,-1.808 -0.395,-3.342 -0.525,-4.47c-0.116,-1.151 -0.181,-1.808 -0.181,-1.808l6.236,-0.08c0,0 -0.034,0.597 -0.092,1.643c-0.044,1.066 -0.07,2.664 -0.178,4.621c-0.115,1.958 -0.306,4.281 -0.841,6.764c-0.537,2.466 -1.413,5.151 -3.036,7.466c-0.807,1.145 -1.762,2.207 -2.86,3.035c-1.105,0.815 -2.273,1.486 -3.474,1.902c-0.585,0.246 -1.197,0.365 -1.768,0.542c-0.589,0.112 -1.16,0.226 -1.715,0.308c-0.558,0.049 -1.101,0.096 -1.625,0.143c-0.52,0.005 -1.023,0.012 -1.509,0.017c-0.961,-0.05 -1.838,-0.074 -2.604,-0.185c-0.769,-0.109 -1.438,-0.163 -1.98,-0.286c-1.084,-0.206 -1.702,-0.326 -1.702,-0.326m33.835,-41.57l-40.589,-1.689l40.47,-4.545l0.119,6.234zm9.313,-15.855c3.978,0.806 8.618,1.583 13.986,2.248c-1.583,6.464 -2.805,13.201 -3.611,20.159l-1.385,-0.162l-8.99,-22.245zm10.811,41.042c0,0 1.802,1.249 4.267,3.324c1.241,1.029 2.644,2.274 4.101,3.652c1.464,1.372 2.983,2.879 4.45,4.436c1.47,1.553 2.884,3.161 4.168,4.71c1.29,1.543 2.44,3.038 3.371,4.366c0.942,1.319 1.659,2.48 2.119,3.324c0.239,0.421 0.383,0.773 0.483,1.022c0.108,0.27 0.075,0.384 0.082,0.391c0,0.008 -0.051,-0.156 -0.228,-0.309c-0.171,-0.168 -0.465,-0.406 -0.815,-0.715c-0.719,-0.609 -1.759,-1.456 -2.966,-2.519c-1.216,-1.051 -2.602,-2.305 -4.047,-3.693c-1.452,-1.38 -2.966,-2.884 -4.431,-4.438c-1.469,-1.551 -2.89,-3.149 -4.18,-4.688c-1.299,-1.53 -2.463,-3.006 -3.414,-4.317c-1.933,-2.59 -2.96,-4.546 -2.96,-4.546m1.559,29.619c0,0 1.645,1.073 3.88,2.867c1.128,0.891 2.401,1.97 3.719,3.172c1.326,1.197 2.7,2.513 4.024,3.879c1.328,1.366 2.6,2.785 3.753,4.158c1.157,1.366 2.187,2.694 3.012,3.884c0.839,1.181 1.47,2.224 1.871,2.991c0.208,0.379 0.328,0.698 0.411,0.928c0.087,0.247 0.046,0.349 0.052,0.353c0,0.011 -0.04,-0.142 -0.201,-0.274c-0.151,-0.149 -0.423,-0.352 -0.741,-0.618c-0.653,-0.525 -1.605,-1.255 -2.701,-2.17c-1.11,-0.906 -2.368,-1.995 -3.679,-3.202c-1.316,-1.202 -2.69,-2.515 -4.014,-3.878c-1.323,-1.363 -2.602,-2.774 -3.759,-4.138c-1.162,-1.36 -2.202,-2.676 -3.042,-3.849c-1.716,-2.322 -2.585,-4.103 -2.585,-4.103m10.912,29.617c0,0 1.803,1.25 4.265,3.325c1.244,1.029 2.647,2.273 4.102,3.65c1.466,1.375 2.982,2.881 4.451,4.437c1.469,1.553 2.885,3.162 4.169,4.711c1.288,1.543 2.439,3.037 3.369,4.366c0.942,1.319 1.66,2.481 2.12,3.324c0.238,0.421 0.384,0.772 0.484,1.022c0.106,0.269 0.072,0.384 0.08,0.39c0,0.008 -0.049,-0.155 -0.228,-0.308c-0.169,-0.168 -0.465,-0.406 -0.815,-0.715c-0.717,-0.608 -1.759,-1.458 -2.964,-2.519c-1.218,-1.05 -2.603,-2.305 -4.048,-3.693c-1.452,-1.381 -2.966,-2.885 -4.431,-4.438c-1.468,-1.554 -2.89,-3.149 -4.181,-4.689c-1.298,-1.531 -2.461,-3.006 -3.413,-4.316c-1.932,-2.59 -2.96,-4.547 -2.96,-4.547m26.307,-24.022c-1.412,1.031 -2.85,2.022 -4.268,2.87c-1.404,0.864 -2.789,1.59 -4.001,2.184c-1.223,0.594 -2.28,1.047 -3.036,1.381c-0.386,0.174 -0.672,0.304 -0.881,0.415c-0.22,0.11 -0.335,0.166 -0.335,0.166c0,0 0.004,-0.123 0.036,-0.36c0.04,-0.226 0.075,-0.626 0.233,-1.022c0.255,-0.864 0.769,-2.016 1.532,-3.233c1.503,-2.485 4.048,-5.216 7.003,-7.403c0.745,-0.539 1.499,-1.066 2.278,-1.536c0.763,-0.487 1.566,-0.9 2.34,-1.296c1.566,-0.772 3.12,-1.351 4.519,-1.711c0.716,-0.174 1.337,-0.32 1.963,-0.402c0.612,-0.086 1.148,-0.126 1.573,-0.131c0.857,0.015 1.374,0.089 1.374,0.089c0,0 -0.31,0.423 -0.898,1.05c-0.266,0.313 -0.59,0.692 -0.958,1.128c-0.356,0.395 -0.786,0.897 -1.247,1.375c-0.927,0.986 -2.025,2.083 -3.253,3.182c-1.224,1.107 -2.583,2.201 -3.974,3.254m0.209,30.338c0.017,-0.411 0.043,-0.946 0.244,-1.45c0.176,-0.519 0.389,-1.163 0.713,-1.771c0.344,-0.569 0.749,-1.18 1.218,-1.814c0.48,-0.603 1.03,-1.13 1.62,-1.697c0.591,-0.586 1.23,-1.066 1.91,-1.524c0.667,-0.461 1.378,-0.942 2.089,-1.31c0.73,-0.362 1.454,-0.728 2.194,-1.037c0.728,-0.335 1.476,-0.574 2.208,-0.792c1.46,-0.43 2.87,-0.747 4.093,-0.844c1.23,-0.119 2.302,-0.113 3.072,-0.061c0.766,0.04 1.233,0.131 1.233,0.131c0,0 -0.249,0.404 -0.735,0.997c-0.482,0.604 -1.198,1.398 -2.115,2.224c-0.935,0.818 -1.976,1.72 -3.172,2.528c-0.593,0.411 -1.223,0.801 -1.849,1.203c-0.623,0.405 -1.285,0.761 -1.943,1.123c-0.691,0.319 -1.281,0.717 -1.949,1.019c-0.643,0.329 -1.325,0.594 -1.902,0.898c-0.591,0.299 -1.242,0.535 -1.797,0.787c-0.532,0.264 -1.073,0.5 -1.604,0.71c-0.497,0.221 -0.907,0.467 -1.352,0.668c-0.459,0.195 -0.801,0.41 -1.091,0.61c-0.6,0.392 -1.044,0.653 -1.044,0.653c0,0 -0.08,-0.432 -0.041,-1.251m15.035,20.909c0.026,-0.23 0.054,-0.48 0.086,-0.757c0.046,-0.268 0.151,-0.515 0.237,-0.806c0.193,-0.567 0.429,-1.237 0.759,-1.913c0.353,-0.626 0.765,-1.298 1.237,-1.998c0.462,-0.726 1.054,-1.309 1.652,-1.978c0.608,-0.653 1.255,-1.321 1.986,-1.86c0.706,-0.583 1.465,-1.123 2.218,-1.672c0.791,-0.473 1.585,-0.935 2.393,-1.348c0.804,-0.421 1.596,-0.819 2.432,-1.103c1.636,-0.592 3.213,-1.099 4.568,-1.286c1.36,-0.203 2.542,-0.266 3.389,-0.261c0.845,-0.008 1.359,0.055 1.359,0.055c0,0 -0.287,0.43 -0.842,1.066c-0.549,0.645 -1.363,1.504 -2.399,2.404c-1.047,0.907 -2.139,1.938 -3.432,2.858c-0.645,0.448 -1.284,0.974 -1.965,1.444c-0.669,0.493 -1.384,0.928 -2.086,1.386c-0.684,0.463 -1.365,0.936 -2.074,1.348c-0.715,0.413 -1.379,0.837 -2.036,1.242c-0.642,0.416 -1.381,0.735 -1.944,1.126c-0.6,0.365 -1.199,0.7 -1.778,1.004c-0.546,0.329 -1.046,0.632 -1.489,0.9c-0.496,0.265 -0.888,0.513 -1.187,0.752c-0.642,0.461 -1.112,0.766 -1.112,0.766c0,0 -0.054,-0.473 0.028,-1.369m23.3,-64.127c1.583,3.423 3.637,5.502 5.988,5.616c6.134,0.301 11.955,-12.759 12.999,-29.168c1.046,-16.407 -3.077,-29.954 -9.213,-30.255c-2.791,-0.136 -5.513,2.516 -7.754,6.968c2.989,-10.922 7.493,-18.007 12.151,-17.747c7.336,0.414 12.271,18.871 11.02,41.232c-1.249,22.36 -8.211,40.158 -15.548,39.748c-4.287,-0.241 -7.75,-6.65 -9.643,-16.394m13.894,32.64c11.508,-6.45 20.789,-27.475 22.21,-52.877c1.593,-28.501 -7.264,-52.617 -20.266,-57.168c3.033,-2.485 6.261,-3.781 9.557,-3.595c13.869,0.777 23.67,27.175 21.893,58.969c-1.778,31.795 -14.462,56.94 -28.331,56.162c-1.758,-0.098 -3.451,-0.611 -5.063,-1.491m1.18,-150.305c0,0 -0.646,0.29 -1.771,0.697c-1.125,0.414 -2.726,0.935 -4.642,1.482c-1.915,0.538 -4.147,1.079 -6.528,1.576c-1.189,0.251 -2.417,0.494 -3.664,0.717c-1.245,0.218 -2.51,0.441 -3.771,0.661c-2.612,0.43 -5.204,0.814 -7.612,1.186c1.199,-2.319 2.405,-4.561 3.607,-6.716c0.991,-0.227 1.984,-0.452 2.99,-0.62c5.317,-0.874 10.686,-0.881 14.703,-0.388c2.011,0.247 3.684,0.574 4.855,0.869c1.167,0.286 1.833,0.536 1.833,0.536m-41.915,-49.869c-1.28,-0.11 -2.543,-0.212 -3.776,-0.299l0.108,-1.877c1.675,0.102 2.963,1.057 3.668,2.176m-19.488,108.292c2.338,0.047 4.732,0.078 7.225,0.078c1.324,0 2.703,-0.019 4.071,-0.031l-0.227,0.115c-1.068,0.539 -2.135,1.082 -3.203,1.577c-1.032,0.539 -2.11,0.991 -3.108,1.474c-0.981,0.497 -2.017,0.896 -2.912,1.351c-0.9,0.443 -1.841,0.799 -2.603,1.213c-0.774,0.405 -1.602,0.7 -2.196,1.07c-0.598,0.377 -1.262,0.629 -1.678,0.936c-0.85,0.598 -1.461,0.981 -1.461,0.981c0,0 0.105,-0.616 0.5,-1.766c0.199,-0.577 0.559,-1.158 0.986,-1.871c0.409,-0.749 0.982,-1.414 1.618,-2.193c0.629,-0.798 1.399,-1.482 2.214,-2.267c0.243,-0.235 0.513,-0.45 0.774,-0.667m-14.836,20.031c-1.159,-1.497 -2.355,-3.12 -3.489,-4.785c-1.137,-1.663 -2.215,-3.364 -3.18,-4.99c-0.974,-1.621 -1.828,-3.171 -2.512,-4.532c-1.397,-2.701 -2.095,-4.658 -2.097,-4.658c0,0 1.572,1.367 3.581,3.658c1.019,1.134 2.149,2.496 3.305,3.998c1.163,1.492 2.352,3.117 3.487,4.782c1.137,1.663 2.21,3.366 3.178,4.994c0.971,1.622 1.826,3.17 2.511,4.532c1.396,2.701 2.1,4.658 2.1,4.658c0,0 -1.568,-1.371 -3.577,-3.661c-1.018,-1.137 -2.149,-2.5 -3.307,-3.996m35.044,5.615c0,0 -0.479,0.485 -1.348,1.229c-0.867,0.755 -2.123,1.765 -3.648,2.9c-3.053,2.273 -7.243,4.893 -11.426,7.347c-2.078,1.206 -4.157,2.413 -6.109,3.543c-1.929,1.125 -3.69,2.194 -5.111,3.199c-0.704,0.507 -1.358,0.982 -1.877,1.454c-0.517,0.478 -0.947,0.926 -1.27,1.343c-0.138,0.213 -0.274,0.412 -0.406,0.589c-0.112,0.181 -0.174,0.347 -0.243,0.48c-0.139,0.287 -0.213,0.438 -0.213,0.438c0,0 -0.06,-0.151 -0.144,-0.461c-0.104,-0.315 -0.198,-0.788 -0.175,-1.421c0.027,-0.614 0.119,-1.403 0.418,-2.214c0.268,-0.834 0.677,-1.725 1.222,-2.622c0.542,-0.897 1.212,-1.789 1.972,-2.682c0.769,-0.866 1.622,-1.741 2.557,-2.561c0.933,-0.818 1.922,-1.627 2.979,-2.36c1.039,-0.76 2.145,-1.439 3.254,-2.105c4.465,-2.613 9.296,-4.381 13.076,-5.237c1.892,-0.427 3.51,-0.662 4.66,-0.764c1.15,-0.113 1.832,-0.095 1.832,-0.095m7.449,-36.128c0,0 -0.483,0.468 -1.353,1.18c-0.867,0.722 -2.13,1.677 -3.662,2.751c-1.774,1.234 -3.941,2.565 -6.276,3.883l0.007,-0.35c0.04,-1.769 0.264,-3.731 0.619,-5.82c1.513,-0.442 2.96,-0.792 4.272,-1.036c1.866,-0.345 3.46,-0.513 4.592,-0.579c1.133,-0.069 1.801,-0.029 1.801,-0.029m0.024,-82.241c2.103,0.548 4.908,2.302 7.664,4.341c-8.502,13.08 -35.102,57.631 -31.682,82.199c-4.172,-0.041 -8.115,-0.156 -11.816,-0.33c2.769,-13.269 12.358,-51.903 35.834,-86.21m-17.313,-16.187c-5.105,-0.25 -9.507,-0.317 -12.635,-0.317c-6.309,0 -14.52,0.283 -16.9,1.075l-0.896,0.298l-0.578,0.746c-1.843,2.372 -8.27,10.758 -15.674,21.81c-6.147,-1.191 -18.952,-3.47 -24.435,-2.94c0.192,-11.589 0.341,-24.692 0.448,-39.558c0.064,-9.212 0.104,-18.425 0.124,-27.418c5.798,-5.17 11.723,-10.236 16.156,-13.756c6.615,0.349 15.698,0.089 17.787,-1.232c2.353,-1.489 1.429,-19.017 0.651,-29.525l28.727,8.713c0.571,6.901 1.998,24.048 3.475,41.201c1.111,12.891 2.026,23.168 2.719,30.545c0.394,4.193 0.737,7.688 1.007,10.138l0.024,0.22m-70.632,-101.337l7.042,2.137c0.726,11.551 1.802,32.25 1.974,36.96c-2.964,2.432 -6.065,5.092 -8.917,7.588c0.016,-17.222 -0.031,-33.331 -0.099,-46.685m2.664,195.047c-8.016,-17.295 26.197,-67.717 41.181,-87.177c1.255,-0.175 3.869,-0.394 7.818,-0.519c-7.37,14.682 -37.677,75.403 -42.082,90.152c-3.559,-1.06 -5.819,-1.967 -6.917,-2.456m100.299,-23.346c-1.094,0.622 -2.671,1.44 -4.575,2.332c-3.81,1.784 -8.971,3.697 -14.165,5.333c-0.103,0.032 -0.203,0.059 -0.304,0.091c0.959,-2.416 1.98,-4.851 3.051,-7.286c1.143,-0.271 2.281,-0.525 3.387,-0.728c2.585,-0.478 5.033,-0.763 7.151,-0.897c2.122,-0.124 3.911,-0.112 5.173,-0.046c1.261,0.061 1.995,0.175 1.995,0.175c0,0 -0.617,0.412 -1.713,1.026m-113.914,-89.335c-0.851,119.952 -5.086,122.805 -6.896,124.011c-4.386,2.924 -12.033,3.684 -18.816,3.684c-7.078,0 -13.21,-0.831 -13.702,-0.901c-0.853,-0.119 -1.447,-0.906 -1.329,-1.761c0.119,-0.851 0.909,-1.462 1.759,-1.335c0.222,0.031 22.37,3.017 30.266,-2.232c5.811,-6.67 6.398,-146.918 5.375,-239.683c-0.011,-0.86 0.679,-1.42 1.539,-1.42l0.019,0c0.854,0 1.548,0.532 1.558,1.385c0.006,0.589 0.644,59.358 0.227,118.252m-9.471,83.868c-0.705,-0.094 -2.313,-0.173 -7.293,-0.173c-4.039,0 -9.229,0.052 -14.06,0.098c-3,0.031 -5.854,0.059 -8.211,0.073c0.174,-31.624 -2.762,-73.436 -3.508,-77.156c0,0 -39.082,0.445 -85.895,1.181l13.107,-80.16c20.604,-4.219 80.847,-10.305 107.615,-9.604c0.365,63.912 -0.152,127.691 -1.755,165.741m-5.345,-182.415c-0.282,4.953 -0.968,10.266 -1.703,11.068c-1.589,0.94 -21.402,1.689 -33.976,1.944c-0.317,-2.011 -1.091,-8.223 0.897,-11.107c0.354,-0.513 2.911,-2.19 20.917,-2.19c6.175,0 11.843,0.203 13.865,0.285m-102.296,10.971c2.612,-1.333 20.213,-5.462 23.882,-5.462l0.066,0c0.465,2.533 0.468,10.697 -0.571,11.392c-0.751,0.473 -6.794,1.455 -11.649,2.302c-6.978,1.219 -11.117,2.026 -13.035,2.663c-0.694,-4.333 -1.137,-9.646 1.307,-10.895m-9.217,24.597l-5.272,32.243l-8.422,-2.128l1.049,-28.907l12.645,-1.208zm-44.742,250.836c0.078,-0.339 0.21,-0.839 0.488,-1.425c0.266,-0.589 0.619,-1.318 1.139,-2.043c0.497,-0.758 1.11,-1.569 1.844,-2.38c1.458,-1.635 3.358,-3.31 5.52,-4.864c2.16,-1.561 4.584,-3 7.078,-4.268c5.002,-2.518 10.306,-4.274 14.435,-5.125c2.065,-0.425 3.825,-0.666 5.074,-0.77c1.247,-0.116 1.984,-0.101 1.984,-0.101c0,0 -0.549,0.493 -1.536,1.252c-0.985,0.762 -2.413,1.791 -4.144,2.939c-3.466,2.301 -8.213,4.948 -13.003,7.369c-1.201,0.594 -2.399,1.187 -3.582,1.774c-1.172,0.589 -2.35,1.133 -3.471,1.678c-1.124,0.536 -2.211,1.059 -3.241,1.55c-1.035,0.491 -2.005,0.963 -2.891,1.415c-0.89,0.448 -1.717,0.859 -2.422,1.26c-0.71,0.406 -1.329,0.767 -1.826,1.1c-0.487,0.34 -0.903,0.607 -1.142,0.829c-0.27,0.211 -0.415,0.323 -0.415,0.323c0,0 0.039,-0.179 0.111,-0.513m25.907,-53.361c0.02,0.277 -0.019,0.54 -0.022,0.697c-0.009,0.164 -0.015,0.253 -0.015,0.253c0,0 -0.086,-0.015 -0.249,-0.044c-0.154,-0.035 -0.417,-0.06 -0.683,-0.145c-0.563,-0.143 -1.306,-0.396 -2.107,-0.77c-1.601,-0.753 -3.307,-2.089 -4.61,-3.741c-0.905,-1.151 -1.599,-2.457 -2.06,-3.729c-0.206,-0.557 -0.377,-1.105 -0.48,-1.636c-0.174,-0.868 -0.243,-1.652 -0.245,-2.233c-0.02,-0.277 0.022,-0.539 0.025,-0.699c0.012,-0.164 0.017,-0.253 0.017,-0.253c0,0 0.086,0.015 0.249,0.044c0.156,0.035 0.42,0.057 0.685,0.143c0.565,0.142 1.31,0.394 2.111,0.768c0.356,0.166 0.717,0.371 1.076,0.594c1.264,0.776 2.518,1.862 3.528,3.151c1.295,1.659 2.186,3.637 2.536,5.371c0.171,0.866 0.241,1.647 0.244,2.229m94.829,-46.037c-0.519,0.112 -22.561,-9.46 -22.561,-9.46l0,-27.472l22.717,-0.217c0,0 0.365,37.034 -0.156,37.149m11.012,18.202c0.249,-5.445 0.889,-12.702 1.261,-16.556c2.167,-0.016 4.681,-0.029 7.3,-0.055c4.809,-0.047 9.977,-0.077 13.998,-0.077c1.743,0 3.023,0.054 3.96,0.068c0.008,5.366 -0.165,11.048 -0.491,15.409c-0.235,3.139 -0.547,5.813 -0.929,7.103c0.382,-1.29 0.694,-4.133 0.929,-7.273l-26.028,1.381zm-0.102,4.288c0.002,0.406 0.009,0.778 0.023,1.109c-0.014,-0.331 -0.021,-0.703 -0.023,-1.109m-139.648,33.905l0.005,-0.058l0.023,0.015c0.056,0.038 0.477,0.317 1.104,0.842c0.688,0.562 1.602,1.395 2.569,2.459c1.966,2.115 4.092,5.184 5.758,8.492c1.664,3.304 2.867,6.838 3.408,9.676c0.282,1.41 0.413,2.639 0.456,3.525c0.057,0.879 0.023,1.413 0.023,1.413c0,0 -0.448,-0.292 -1.123,-0.859c-0.685,-0.559 -1.596,-1.395 -2.568,-2.459c-1.958,-2.119 -4.091,-5.188 -5.761,-8.487c-1.672,-3.301 -2.879,-6.835 -3.419,-9.673c-0.277,-1.413 -0.408,-2.642 -0.45,-3.529c-0.047,-0.752 -0.03,-1.228 -0.025,-1.357m-14.459,-125.284l140.862,-0.183l2.041,20.174l-146.81,-11.554l3.907,-8.437zm-7.163,-2.719c0,0 -0.297,1.834 -0.816,5.043c-0.532,3.203 -1.308,7.772 -2.357,13.252c-0.537,2.742 -1.126,5.709 -1.873,8.861c-0.401,1.591 -0.775,3.179 -1.396,4.951c-0.195,0.48 -0.242,0.809 -0.614,1.473l-0.243,0.439l-0.129,0.217l-0.064,0.106l-0.03,0.053c-0.134,0.151 0.246,-0.26 -0.305,0.353c-0.113,0.081 -0.049,0.067 -0.492,0.363c-0.171,0.108 -0.351,0.204 -0.534,0.284c-0.188,0.08 -0.193,0.07 -0.297,0.107c-1.286,0.376 -2.108,0.392 -3.058,0.477c-3.637,0.219 -7.204,0.12 -10.873,0.025c-3.651,-0.108 -7.351,-0.271 -11.045,-0.453c-14.752,-0.828 -29.505,-1.656 -40.567,-2.277c-5.531,-0.272 -10.14,-0.438 -13.366,-0.44c-1.616,-0.006 -2.885,0.034 -3.746,0.106c-0.86,0.065 -1.311,0.176 -1.311,0.176c0,0 0.444,-0.134 1.304,-0.246c0.859,-0.117 2.128,-0.223 3.743,-0.304c3.234,-0.168 7.855,-0.246 13.398,-0.265c11.077,0.035 25.845,0.084 40.617,0.133c3.685,-0.012 7.372,-0.045 10.986,-0.128c3.598,-0.095 7.194,-0.196 10.457,-0.57c0.559,-0.066 1.187,-0.165 1.618,-0.271c0.068,-0.148 0.172,-0.542 0.255,-0.801c0.412,-1.393 0.717,-3.001 1.006,-4.504c0.556,-3.059 0.984,-6.005 1.371,-8.725c0.744,-5.449 1.274,-10.018 1.635,-13.212c0.345,-3.197 0.542,-5.022 0.542,-5.022l6.184,0.799zm-93.116,52.238l73.266,0c1.291,0 2.338,1.243 2.338,2.534c0,1.291 -1.047,2.533 -2.338,2.533l-73.266,0c-1.291,0 -2.338,-1.242 -2.338,-2.533c0,-1.291 1.047,-2.534 2.338,-2.534m85.737,63.331c1.289,0 2.338,1.242 2.338,2.534c0,1.292 -1.049,2.533 -2.338,2.533l-65.473,0c-1.29,0 -2.338,-1.241 -2.338,-2.533c0,-1.292 1.048,-2.534 2.338,-2.534l65.473,0zm-0.779,-9.5c0,1.292 -1.046,1.901 -2.339,1.901l-67.031,0c-1.291,0 -2.338,-0.609 -2.338,-1.901c0,-1.291 1.047,-1.9 2.338,-1.9l67.031,0c1.293,0 2.339,0.609 2.339,1.9m-3.897,-14.565c1.289,0 2.336,0.608 2.336,1.899c0,1.291 -1.047,1.9 -2.336,1.9l-68.591,0c-1.29,0 -2.336,-0.609 -2.336,-1.9c0,-1.291 1.046,-1.899 2.336,-1.899l68.591,0zm-4.677,-21.533l-71.708,0c-1.291,0 -2.338,-1.242 -2.338,-2.533c0,-1.291 1.047,-2.534 2.338,-2.534l71.708,0c1.291,0 2.337,1.243 2.337,2.534c0,1.291 -1.046,2.533 -2.337,2.533m3.896,9.5c0,1.291 -1.046,1.899 -2.338,1.899l-70.148,0c-1.292,0 -2.339,-0.608 -2.339,-1.899c0,-1.292 1.047,-1.901 2.339,-1.901l70.148,0c1.292,0 2.338,0.609 2.338,1.901m-143.271,46.568c3.73,-2.177 7.666,-3.946 10.662,-5.174c1.497,-0.618 2.763,-1.093 3.661,-1.42c0.91,-0.321 1.432,-0.504 1.432,-0.504l1.456,6.062c0,0 -0.495,0.076 -1.359,0.209c-0.876,0.145 -2.136,0.366 -3.643,0.681c-3.012,0.623 -7.027,1.59 -10.893,2.973c-0.961,0.357 -1.944,0.689 -2.859,1.101c-0.935,0.387 -1.847,0.784 -2.691,1.236c-0.877,0.409 -1.673,0.879 -2.416,1.35c-0.78,0.431 -1.421,0.949 -2.03,1.423c-0.646,0.439 -1.119,0.954 -1.558,1.406c-0.223,0.225 -0.429,0.436 -0.621,0.631c-0.181,0.205 -0.299,0.426 -0.431,0.608c-0.512,0.766 -0.805,1.2 -0.805,1.2c0,0 0.208,-0.487 0.573,-1.336c0.099,-0.208 0.182,-0.461 0.327,-0.704c0.155,-0.233 0.325,-0.485 0.506,-0.757c0.361,-0.544 0.763,-1.181 1.33,-1.752c0.539,-0.603 1.119,-1.277 1.829,-1.868c0.681,-0.635 1.424,-1.282 2.243,-1.87c0.797,-0.635 1.657,-1.224 2.548,-1.802c0.876,-0.612 1.814,-1.136 2.739,-1.693m-13.148,39.379c0.526,-0.656 1.161,-1.247 1.782,-1.916c1.275,-1.288 2.706,-2.585 4.166,-3.852c2.936,-2.502 6.02,-4.818 8.372,-6.505c1.176,-0.846 2.173,-1.532 2.875,-2.012c0.714,-0.478 1.121,-0.749 1.121,-0.749l2.885,5.529c0,0 -0.423,0.171 -1.168,0.47c-0.745,0.31 -1.819,0.757 -3.097,1.326c-2.552,1.128 -5.937,2.714 -9.209,4.505c-1.629,0.903 -3.235,1.848 -4.689,2.81c-0.705,0.502 -1.44,0.945 -2.051,1.447c-0.615,0.498 -1.252,0.933 -1.736,1.423c-0.493,0.479 -1.01,0.888 -1.34,1.338c-0.344,0.441 -0.723,0.794 -0.905,1.154c-0.401,0.719 -0.629,1.133 -0.629,1.133c0,0 0.141,-0.459 0.389,-1.255c0.115,-0.416 0.412,-0.828 0.675,-1.363c0.254,-0.549 0.675,-1.051 1.087,-1.658c0.401,-0.618 0.939,-1.179 1.472,-1.825m-1.666,-9.636l-1.446,0.578c-0.463,-1.153 -8.488,-19.281 -10.024,-21.969c-0.075,-0.131 -0.138,-0.238 -0.182,-0.292l0.52,-0.537l0.001,0l-0.715,-0.315l0.742,-0.477c0.111,0 0.209,0.007 0.317,0.065c0.537,0.271 1.361,1.852 5.624,11.298c2.464,5.46 4.957,11.13 5.163,11.649m-21.735,17.104c0,1.739 0.047,3.504 0.138,5.24l2.361,-0.127c0.565,10.658 2.878,20.875 6.671,30.298l-2.195,0.883c1.994,4.948 4.413,9.745 7.192,14.255l1.996,-1.23c5.512,8.938 12.516,16.771 20.665,23.113l-1.452,1.866c4.234,3.293 8.776,6.187 13.496,8.599l1.068,-2.091c8.584,4.386 18.021,7.296 28.076,8.373c0.568,0.061 1.132,0.085 1.699,0.135l-0.204,2.358c2.37,0.202 4.765,0.306 7.118,0.306c2.953,0 5.948,-0.16 8.896,-0.479l-0.252,-2.328c10.459,-1.133 20.445,-4.323 29.585,-9.178l1.11,2.085c4.667,-2.482 9.17,-5.422 13.377,-8.747l-1.455,-1.841c8.042,-6.354 15.045,-14.18 20.652,-23.134l2.001,1.253c2.808,-4.486 5.27,-9.258 7.313,-14.18l-2.164,-0.898c1.288,-3.102 2.412,-6.305 3.381,-9.585c10.355,1.854 19.835,3.512 27.057,4.703c0.028,0.461 0.065,0.915 0.096,1.374c0.935,0.525 2.142,1.245 3.496,2.184c3.022,2.058 6.679,5.157 9.96,8.634c3.275,3.476 6.18,7.325 8.008,10.541c0.923,1.598 1.591,3.022 1.984,4.079c0.214,0.517 0.317,0.956 0.401,1.271c0.089,0.357 0.002,0.463 0.014,0.476c0.008,0.015 -0.098,-0.191 -0.326,-0.302c-0.243,-0.155 -0.598,-0.381 -1.052,-0.67c-0.918,-0.567 -2.216,-1.386 -3.691,-2.444c-2.965,-2.101 -6.597,-5.207 -9.87,-8.672c-3.276,-3.458 -6.194,-7.277 -8.065,-10.442c-0.199,-0.331 -0.383,-0.65 -0.56,-0.967c0.652,6.734 1.833,13.275 3.476,19.573l-3.037,0.794c1.354,5.193 3.05,10.296 5.042,15.173l2.907,-1.188c1.654,4.05 3.517,7.949 5.578,11.682l-2.021,2.404l7.258,6.102c1.559,2.277 3.189,4.484 4.905,6.595l-2.43,1.976c3.437,4.225 7.191,8.127 11.164,11.598l2.07,-2.373c7.466,6.531 15.872,11.672 25.028,15.058c0.295,-0.484 0.611,-0.977 0.98,-1.459c0.539,-0.753 1.173,-1.458 1.853,-2.177c0.69,-0.693 1.42,-1.406 2.221,-2.029c0.779,-0.673 1.639,-1.229 2.479,-1.828c1.732,-1.101 3.545,-2.063 5.324,-2.768c1.774,-0.725 3.494,-1.21 5.024,-1.519c1.535,-0.317 2.828,-0.424 3.757,-0.437c0.927,-0.031 1.484,0.016 1.484,0.016c0,0 -0.34,0.447 -0.983,1.113c-0.647,0.668 -1.587,1.579 -2.701,2.551c-1.122,0.975 -2.472,2.035 -3.914,3.102c-0.733,0.522 -1.468,1.077 -2.244,1.591c-0.768,0.527 -1.542,1.051 -2.328,1.566c-2.129,1.397 -4.247,2.704 -6.157,3.871c-0.904,0.55 -1.772,1.081 -2.548,1.56c-0.322,0.213 -0.644,0.407 -0.95,0.6c4.917,1.64 10.006,2.809 15.147,3.444l0.387,-3.122c0.404,0.048 0.806,0.123 1.215,0.166c10.146,1.085 20.108,0.044 29.606,-2.767l0.893,3.021c5.089,-1.506 10.128,-3.542 14.973,-6.048l-1.431,-2.772c9.001,-4.65 17.344,-11.002 24.751,-18.709l2.266,2.177c3.645,-3.79 7.087,-7.937 10.237,-12.322l-2.549,-1.829c5.877,-8.191 10.837,-17.403 14.637,-27.422l2.928,1.11c1.87,-4.933 3.466,-10.056 4.741,-15.233l-3.046,-0.75c1.413,-5.734 2.483,-11.655 3.133,-17.745c0.474,-4.419 0.698,-8.79 0.736,-13.117l3.144,0.025l0.005,-1.183c0,-0.286 -0.011,-0.57 -0.013,-0.855l55.269,-5.406c0.424,2.222 0.891,4.415 1.404,6.574l-3.049,0.726c1.254,5.263 2.792,10.4 4.567,15.272l2.936,-1.069c3.798,10.428 8.731,19.701 14.573,27.431l-2.495,1.885c3.4,4.498 7.108,8.495 11.023,11.883l2.054,-2.372c8.265,7.156 17.687,11.658 27.858,12.8l-0.354,3.127c0.906,0.101 1.816,0.179 2.731,0.23c0.919,0.052 1.828,0.075 2.737,0.075c3.68,0 7.396,-0.421 11.043,-1.255l-0.7,-3.067c9.618,-2.197 18.737,-7.382 26.905,-14.967l2.129,2.292c3.779,-3.512 7.399,-7.551 10.753,-12.007l-2.51,-1.89c5.862,-7.785 10.969,-16.951 15.082,-27.181l2.909,1.171c1.939,-4.825 3.664,-9.894 5.127,-15.066l-3.019,-0.856c2.719,-9.612 4.625,-19.885 5.547,-30.632c0.145,-1.701 0.272,-3.408 0.37,-5.13c0.196,-3.516 0.273,-6.999 0.258,-10.442c-0.052,-10.802 -1.136,-21.202 -3.106,-30.97l3.074,-0.622c-1.066,-5.281 -2.409,-10.47 -3.991,-15.418l-2.98,0.955c-3.372,-10.537 -7.866,-20.024 -13.266,-28.103l2.613,-1.743c-3.115,-4.661 -6.54,-8.884 -10.179,-12.553l-2.235,2.217c-7.792,-7.847 -16.765,-13.244 -26.54,-15.47l0.696,-3.057c-0.429,-0.097 -0.868,-0.151 -1.302,-0.237c0.116,-0.109 0.245,-0.237 0.357,-0.332c1.72,-1.443 4.239,-2.177 7.483,-2.177c7.017,0 15.25,3.366 18.989,5.079l-1.936,10.968l11.31,5.902l1.11,-3.563c2.017,-6.472 4.943,-17.965 1.898,-22.226c-3.71,-5.194 -37.608,-17.956 -55.801,-21.007c-4.882,-0.819 -9.791,-1.397 -14.447,-1.81c-0.842,-6.761 -3.345,-35.368 -5.625,-62.407c4.076,-1.067 5.976,-24.186 2.148,-28.834c-7.274,-8.834 -73.526,-36.368 -76.253,-34.549c-0.182,0.122 -0.362,0.319 -0.535,0.554c-0.063,-7.979 -0.115,-12.462 -0.117,-12.627c-0.056,-5.13 -4.232,-8.997 -9.351,-8.997l-0.106,0c-5.164,0 -9.305,4.035 -9.248,9.2c0.043,3.941 0.083,7.751 0.12,11.723c-69.004,-3.164 -111.707,13.293 -111.707,13.293c0,0 -2.72,7.224 -2.836,18.282l-1.912,-0.359l-0.932,5.637l-25.211,2.495l0.296,3.06l-3.311,0c0,0 -2.339,29.56 -1.169,30.728c0.475,0.475 2.251,0.886 4.48,1.066l-0.761,2.97l18.355,4.607l-5.331,32.591c-67.16,1.091 -145.489,2.732 -147.559,4.506c-5.194,12.47 -10.649,28.445 -10.649,28.445l-2.729,24.552l7.087,32.819c-1.375,-0.218 -2.755,-0.408 -4.154,-0.557c-1.705,-0.183 -3.394,-0.296 -5.088,-0.369l0.118,-2.353c-1.213,-0.055 -2.455,-0.084 -3.599,-0.079c-4.129,0 -8.242,0.314 -12.325,0.936l0.755,2.328c-9.572,1.453 -19.004,4.617 -26.604,9.21l0,7.193l-2.532,0l0,-6.34c0,0.1 -0.362,0.211 -0.536,0.312l-1.055,-2.033c-4.57,2.668 -9.028,5.786 -13.099,9.264l1.487,1.783c-2.108,1.803 -4.155,3.711 -6.101,5.715l0.746,-0.106c0,0 2.345,16.594 2.67,18.736l-1.543,0.233c-0.289,-1.897 -2.165,-15.12 -2.592,-18.133c-4.949,5.213 -9.322,11.065 -13,17.451l-2.039,-1.179c-2.64,4.587 -4.928,9.443 -6.795,14.436l2.211,0.828c-2.775,7.426 -4.699,15.336 -5.588,23.637l-2.324,-0.25c-0.381,3.554 -0.574,7.154 -0.574,10.696"/>
   <path stroke="#fff" id="svg_2" fill="#00ffff" d="m549.713,296.847c1.593,-28.501 -7.264,-52.617 -20.266,-57.167c3.033,-2.485 6.261,-3.783 9.557,-3.596c13.869,0.776 23.67,27.175 21.893,58.969c-1.778,31.795 -14.462,56.94 -28.331,56.162c-1.758,-0.098 -3.451,-0.611 -5.063,-1.491c11.508,-6.45 20.789,-27.475 22.21,-52.877"/>
   <path stroke="#fff" id="svg_3" fill="#00ffff" d="m519.597,322.7c6.134,0.301 11.955,-12.759 12.999,-29.168c1.046,-16.407 -3.077,-29.954 -9.213,-30.255c-2.791,-0.136 -5.513,2.516 -7.754,6.968c2.989,-10.922 7.493,-18.007 12.151,-17.747c7.336,0.414 12.271,18.871 11.02,41.232c-1.249,22.36 -8.211,40.158 -15.548,39.748c-4.287,-0.241 -7.75,-6.65 -9.643,-16.394c1.583,3.423 3.637,5.502 5.988,5.616"/>
   <path stroke="#fff" id="svg_4" fill="#00ffff" d="m379.546,42.483c-1.589,0.936 -21.4,1.688 -33.976,1.943c-0.317,-2.011 -1.091,-8.222 0.897,-11.108c0.354,-0.514 2.911,-2.19 20.917,-2.19c6.175,0 11.843,0.204 13.865,0.284c-0.282,4.955 -0.968,10.268 -1.703,11.071"/>
   <path stroke="#fff" id="svg_5" fill="#00ffff" d="m302.33,48.319c-0.751,0.472 -6.794,1.44 -11.648,2.287c-6.978,1.219 -11.119,1.936 -13.036,2.573c-0.693,-4.334 -1.138,-9.522 1.308,-10.772c2.611,-1.333 20.212,-5.484 23.881,-5.484l0.066,0c0.465,2.533 0.468,10.701 -0.571,11.396"/>
   <path stroke="#fff" id="svg_6" fill="#00ffff" d="m389.169,253.972c-4.386,2.924 -12.033,3.687 -18.816,3.687c-7.078,0 -13.21,-0.828 -13.702,-0.898c-0.853,-0.119 -1.447,-0.905 -1.329,-1.76c0.119,-0.85 0.909,-1.455 1.759,-1.328c0.222,0.033 22.37,3.033 30.266,-2.219c5.811,-6.669 6.398,-146.945 5.375,-239.71c-0.011,-0.86 0.679,-1.42 1.539,-1.42l0.019,0c0.854,0 1.548,0.532 1.558,1.385c0.006,0.589 0.644,59.467 0.227,118.36c-0.851,119.95 -5.086,122.699 -6.896,123.903"/>
   <path stroke="#fff" id="svg_7" fill="#00ffff" d="m192.197,165.107c-0.536,2.743 -1.129,5.708 -1.873,8.861c-0.399,1.591 -0.773,3.179 -1.396,4.95c-0.195,0.48 -0.242,0.81 -0.613,1.474l-0.244,0.439l-0.129,0.217l-0.064,0.106l-0.033,0.053c-0.131,0.152 0.25,-0.26 -0.302,0.353c-0.113,0.08 -0.049,0.067 -0.492,0.363c-0.171,0.107 -0.351,0.204 -0.534,0.284c-0.187,0.08 -0.193,0.069 -0.298,0.107c-1.285,0.376 -2.107,0.392 -3.057,0.477c-3.637,0.219 -7.204,0.119 -10.871,0.025c-3.655,-0.108 -7.354,-0.269 -11.047,-0.453c-14.752,-0.829 -29.504,-1.656 -40.567,-2.277c-5.531,-0.272 -10.14,-0.438 -13.368,-0.44c-1.614,-0.006 -2.881,0.034 -3.744,0.106c-0.86,0.063 -1.312,0.176 -1.312,0.176c0,0 0.445,-0.136 1.305,-0.246c0.859,-0.117 2.129,-0.222 3.743,-0.304c3.231,-0.169 7.855,-0.248 13.399,-0.265c11.076,0.035 25.845,0.084 40.617,0.133c3.684,-0.012 7.371,-0.045 10.985,-0.128c3.599,-0.096 7.194,-0.198 10.457,-0.571c0.56,-0.065 1.187,-0.164 1.619,-0.27c0.067,-0.149 0.171,-0.542 0.251,-0.801c0.415,-1.393 0.72,-3.001 1.011,-4.504c0.555,-3.059 0.983,-6.007 1.366,-8.726c0.749,-5.448 1.277,-10.017 1.638,-13.211c0.346,-3.197 0.542,-5.022 0.542,-5.022l6.184,0.799c0,0 -0.296,1.834 -0.816,5.043c-0.534,3.202 -1.308,7.772 -2.357,13.252"/>
   <path stroke="#fff" id="svg_8" fill="#00ffff" d="m181.032,200.787l6.123,-1.185l10.855,72.559l-16.978,-71.374"/>
   <path stroke="#fff" id="svg_9" fill="#00ffff" d="m316.615,406.783c-1.91,-0.294 -3.701,-1.019 -5.369,-2.124c13.211,-5.649 25.494,-27.045 29.657,-53.921c4.671,-30.159 -2.503,-56.753 -16.209,-62.968c3.563,-2.324 7.214,-3.364 10.789,-2.819c15.041,2.291 23.009,31.416 17.796,65.057c-5.209,33.645 -21.625,59.061 -36.664,56.775"/>
   <path stroke="#fff" id="svg_10" fill="#00ffff" d="m317.3,346.47c3.251,-16.117 0.994,-30.094 -5.042,-31.221c-1.615,-0.303 -3.335,0.374 -5.054,1.79c4.27,-10.249 9.575,-16.531 14.354,-15.804c7.957,1.213 11.434,21.373 7.77,45.035c-3.667,23.66 -13.085,41.866 -21.043,40.653c-3.862,-0.587 -6.667,-5.653 -8.112,-13.411c0.102,0.03 0.198,0.081 0.304,0.102c6.037,1.128 13.569,-11.027 16.823,-27.144"/>
   <path stroke="#fff" id="svg_11" fill="#00ffff" d="m255.498,297.713c2.065,-0.425 3.825,-0.666 5.074,-0.77c1.247,-0.116 1.984,-0.101 1.984,-0.101c0,0 -0.547,0.493 -1.536,1.252c-0.985,0.762 -2.413,1.791 -4.144,2.939c-3.466,2.3 -8.213,4.948 -13.003,7.369c-1.201,0.594 -2.401,1.187 -3.582,1.774c-1.172,0.589 -2.348,1.133 -3.471,1.678c-1.124,0.536 -2.211,1.059 -3.243,1.55c-1.033,0.491 -2.004,0.963 -2.889,1.415c-0.89,0.448 -1.714,0.859 -2.422,1.26c-0.71,0.406 -1.329,0.765 -1.824,1.1c-0.489,0.34 -0.902,0.607 -1.144,0.829c-0.27,0.211 -0.415,0.323 -0.415,0.323c0,0 0.038,-0.179 0.111,-0.513c0.078,-0.34 0.21,-0.839 0.488,-1.425c0.266,-0.589 0.619,-1.318 1.139,-2.043c0.497,-0.758 1.11,-1.57 1.844,-2.38c1.461,-1.635 3.358,-3.31 5.52,-4.864c2.162,-1.561 4.584,-3 7.078,-4.268c5.001,-2.518 10.306,-4.274 14.435,-5.125"/>
   <path stroke="#fff" id="svg_12" fill="#00ffff" d="m265.361,265.536c2.877,-0.56 5.598,-0.916 7.949,-1.109c2.357,-0.18 4.341,-0.218 5.742,-0.184c1.398,0.028 2.212,0.125 2.212,0.125c0,0 -0.698,0.43 -1.93,1.079c-1.232,0.653 -3.005,1.517 -5.144,2.468c-4.277,1.9 -10.063,3.979 -15.869,5.808c-2.907,0.905 -5.819,1.768 -8.545,2.552c-2.724,0.786 -5.264,1.496 -7.419,2.156c-2.16,0.652 -3.92,1.281 -5.084,1.886c-0.549,0.319 -1.055,0.566 -1.296,0.821c-0.287,0.245 -0.441,0.376 -0.441,0.376c0,0 0.035,-0.19 0.139,-0.569c0.047,-0.198 0.129,-0.428 0.264,-0.678c0.128,-0.25 0.266,-0.579 0.488,-0.858c0.812,-1.252 2.316,-2.745 4.284,-4.194c3.952,-2.917 9.768,-5.568 15.743,-7.438c2.995,-0.931 6.03,-1.689 8.907,-2.241"/>
   <path stroke="#fff" id="svg_13" fill="#00ffff" d="m276.407,242.548c5.923,-0.972 11.897,-1.043 16.372,-0.584c2.241,0.228 4.104,0.544 5.406,0.834c1.302,0.28 2.043,0.525 2.043,0.525c0,0 -0.722,0.294 -1.981,0.707c-1.256,0.421 -3.05,0.955 -5.193,1.518c-2.144,0.555 -4.641,1.119 -7.305,1.649c-1.333,0.266 -2.709,0.526 -4.104,0.771c-1.392,0.241 -2.806,0.486 -4.222,0.73c-5.649,0.928 -11.248,1.727 -15.327,2.664c-1.019,0.237 -1.959,0.469 -2.763,0.735c-0.807,0.27 -1.5,0.54 -2.066,0.809c-0.539,0.295 -1.011,0.524 -1.267,0.753c-0.299,0.205 -0.46,0.316 -0.46,0.316c0,0 0.057,-0.185 0.17,-0.529c0.11,-0.362 0.328,-0.863 0.721,-1.455c0.392,-0.572 0.921,-1.279 1.647,-1.925c0.708,-0.68 1.571,-1.37 2.562,-2.011c1.983,-1.299 4.456,-2.462 7.162,-3.386c2.708,-0.926 5.65,-1.626 8.605,-2.121"/>
   <path stroke="#fff" id="svg_14" fill="#00ffff" d="m220.538,354.956c0.616,-0.977 1.371,-1.952 2.224,-2.926c0.865,-0.95 1.821,-1.908 2.867,-2.806c1.043,-0.9 2.15,-1.788 3.327,-2.597c1.16,-0.84 2.389,-1.594 3.622,-2.333c4.972,-2.908 10.324,-4.933 14.503,-5.97c2.091,-0.517 3.877,-0.826 5.147,-0.98c1.264,-0.161 2.013,-0.168 2.013,-0.168c0,0 -0.547,0.51 -1.533,1.307c-0.984,0.801 -2.408,1.884 -4.129,3.111c-3.451,2.452 -8.166,5.329 -12.85,8.077c-1.172,0.684 -2.34,1.364 -3.49,2.034c-1.138,0.673 -2.257,1.334 -3.337,1.974c-2.152,1.289 -4.11,2.524 -5.676,3.694c-0.776,0.587 -1.492,1.14 -2.056,1.69c-0.564,0.554 -1.026,1.073 -1.367,1.551c-0.146,0.241 -0.292,0.467 -0.429,0.671c-0.117,0.202 -0.18,0.389 -0.249,0.543c-0.142,0.319 -0.218,0.487 -0.218,0.487c0,0 -0.048,-0.178 -0.138,-0.512c-0.104,-0.348 -0.189,-0.873 -0.149,-1.566c0.047,-0.675 0.171,-1.533 0.517,-2.421c0.314,-0.911 0.784,-1.881 1.401,-2.86"/>
   <path stroke="#fff" id="svg_15" fill="#00ffff" d="m224.48,393.976c2.232,-2.939 5.73,-6.226 9.621,-8.958c0.978,-0.676 1.964,-1.341 2.974,-1.94c0.992,-0.62 2.014,-1.169 3.008,-1.684c1.994,-1.029 3.959,-1.833 5.695,-2.407c0.891,-0.273 1.695,-0.501 2.437,-0.673c0.764,-0.171 1.435,-0.262 1.971,-0.344c1.077,-0.084 1.718,-0.065 1.718,-0.065c0,0 -0.433,0.481 -1.241,1.2c-0.748,0.77 -1.77,1.794 -3.075,2.991c-1.285,1.213 -2.817,2.546 -4.499,3.919c-1.679,1.373 -3.524,2.756 -5.398,4.1c-1.895,1.315 -3.815,2.59 -5.677,3.706c-1.851,1.13 -3.642,2.104 -5.201,2.916c-1.586,0.792 -2.908,1.449 -3.836,1.912c-0.476,0.242 -0.834,0.424 -1.072,0.584c-0.26,0.152 -0.4,0.235 -0.4,0.235c0,0 0.026,-0.149 0.103,-0.438c0.083,-0.286 0.204,-0.755 0.463,-1.228c0.238,-0.508 0.547,-1.122 0.957,-1.751c0.402,-0.66 0.896,-1.34 1.452,-2.075"/>
   <path stroke="#fff" id="svg_16" fill="#00ffff" d="m239.138,424.316c0.202,-0.659 0.531,-1.314 0.903,-2.054c0.396,-0.702 0.859,-1.46 1.411,-2.184c0.54,-0.75 1.173,-1.457 1.854,-2.174c0.691,-0.695 1.42,-1.405 2.222,-2.032c0.777,-0.672 1.639,-1.229 2.479,-1.828c1.73,-1.101 3.544,-2.061 5.324,-2.765c1.771,-0.729 3.493,-1.213 5.023,-1.52c1.534,-0.316 2.826,-0.425 3.757,-0.435c0.926,-0.031 1.484,0.014 1.484,0.014c0,0 -0.339,0.446 -0.983,1.112c-0.647,0.67 -1.588,1.581 -2.703,2.551c-1.118,0.976 -2.471,2.038 -3.913,3.102c-0.733,0.522 -1.468,1.075 -2.242,1.591c-0.769,0.527 -1.544,1.054 -2.332,1.564c-3.128,2.056 -6.285,3.945 -8.703,5.431c-0.581,0.381 -1.173,0.72 -1.644,1.054c-0.494,0.326 -0.935,0.619 -1.281,0.885c-0.366,0.262 -0.631,0.491 -0.829,0.651c-0.203,0.164 -0.311,0.25 -0.311,0.25c0,0 -0.008,-0.138 -0.015,-0.394c0.015,-0.245 -0.033,-0.665 0.077,-1.122c0.079,-0.478 0.19,-1.072 0.422,-1.697"/>
   <path stroke="#fff" id="svg_17" fill="#00ffff" d="m262.012,438.167c0.692,-0.693 1.421,-1.406 2.222,-2.029c0.777,-0.673 1.638,-1.229 2.48,-1.828c1.73,-1.101 3.543,-2.063 5.323,-2.768c1.773,-0.725 3.493,-1.21 5.023,-1.519c1.535,-0.317 2.828,-0.424 3.758,-0.437c0.926,-0.031 1.484,0.016 1.484,0.016c0,0 -0.34,0.447 -0.984,1.113c-0.648,0.668 -1.589,1.579 -2.701,2.551c-1.122,0.975 -2.472,2.035 -3.914,3.102c-0.733,0.522 -1.47,1.077 -2.243,1.591c-0.768,0.527 -1.544,1.051 -2.33,1.566c-2.129,1.397 -4.246,2.704 -6.156,3.871c-0.903,0.549 -1.772,1.081 -2.548,1.56c-0.322,0.213 -0.644,0.407 -0.952,0.6c-0.245,0.154 -0.483,0.305 -0.69,0.452c-0.499,0.326 -0.936,0.617 -1.285,0.887c-0.364,0.262 -0.631,0.487 -0.826,0.65c-0.204,0.161 -0.314,0.248 -0.314,0.248c0,0 -0.005,-0.136 -0.016,-0.391c0.016,-0.245 -0.03,-0.665 0.08,-1.126c0.077,-0.477 0.19,-1.07 0.422,-1.698c0.201,-0.655 0.53,-1.313 0.904,-2.05c0.131,-0.234 0.281,-0.481 0.43,-0.725c0.296,-0.484 0.611,-0.977 0.979,-1.459c0.54,-0.753 1.174,-1.458 1.854,-2.177"/>
   <path stroke="#fff" id="svg_18" fill="#00ffff" d="m212.395,361.539c3.277,3.476 6.181,7.325 8.009,10.541c0.924,1.598 1.591,3.022 1.984,4.079c0.216,0.517 0.317,0.956 0.401,1.271c0.089,0.357 0.002,0.463 0.014,0.476c0.008,0.015 -0.098,-0.191 -0.327,-0.302c-0.242,-0.154 -0.598,-0.381 -1.05,-0.67c-0.921,-0.567 -2.217,-1.385 -3.692,-2.444c-2.965,-2.101 -6.596,-5.207 -9.87,-8.672c-3.276,-3.458 -6.194,-7.277 -8.065,-10.442c-0.2,-0.331 -0.382,-0.65 -0.562,-0.967c-0.66,-1.175 -1.172,-2.219 -1.519,-3.023c-0.447,-1.009 -0.635,-1.639 -0.635,-1.639c0,0 0.722,0.338 1.857,0.974c0.933,0.525 2.141,1.245 3.496,2.184c3.021,2.058 6.679,5.157 9.959,8.634"/>
   <path stroke="#fff" id="svg_19" fill="#00ffff" d="m207.198,313.368c2.561,2.338 5.522,5.763 8.052,9.482c2.531,3.718 4.637,7.723 5.877,10.954c0.63,1.608 1.059,3.014 1.317,4.028c0.267,1.006 0.359,1.62 0.359,1.62c0,0 -0.539,-0.312 -1.382,-0.93c-0.852,-0.614 -2.006,-1.529 -3.276,-2.707c-2.561,-2.343 -5.524,-5.767 -8.062,-9.479c-2.536,-3.711 -4.644,-7.714 -5.883,-10.948c-0.629,-1.609 -1.056,-3.014 -1.311,-4.029c-0.234,-0.886 -0.326,-1.44 -0.348,-1.571l-0.008,-0.055l0.019,0.014c0.053,0.029 0.565,0.33 1.365,0.917c0.854,0.611 2.01,1.526 3.281,2.704"/>
   <path stroke="#fff" id="svg_20" fill="#00ffff" d="m220.694,278.073c1.965,2.115 4.091,5.184 5.757,8.491c1.664,3.306 2.869,6.84 3.408,9.677c0.282,1.41 0.413,2.639 0.458,3.525c0.057,0.879 0.021,1.413 0.021,1.413c0,0 -0.448,-0.292 -1.123,-0.859c-0.685,-0.559 -1.596,-1.395 -2.566,-2.459c-1.963,-2.119 -4.093,-5.188 -5.765,-8.487c-1.669,-3.301 -2.877,-6.835 -3.416,-9.673c-0.28,-1.413 -0.409,-2.642 -0.451,-3.529c-0.047,-0.752 -0.03,-1.228 -0.024,-1.357l0.004,-0.058l0.023,0.017c0.056,0.036 0.477,0.316 1.105,0.84c0.688,0.562 1.599,1.395 2.569,2.459"/>
   <path stroke="#fff" id="svg_21" fill="#00ffff" d="m240.43,253.109c-0.02,-0.277 0.022,-0.539 0.025,-0.699c0.009,-0.164 0.017,-0.253 0.017,-0.253c0,0 0.086,0.015 0.247,0.044c0.158,0.035 0.424,0.057 0.688,0.143c0.564,0.142 1.309,0.394 2.11,0.768c0.356,0.166 0.717,0.371 1.076,0.594c1.264,0.776 2.518,1.862 3.528,3.151c1.295,1.659 2.186,3.637 2.533,5.371c0.174,0.866 0.245,1.647 0.247,2.229c0.02,0.277 -0.019,0.54 -0.022,0.697c-0.008,0.164 -0.015,0.253 -0.015,0.253c0,0 -0.086,-0.015 -0.249,-0.044c-0.154,-0.035 -0.417,-0.06 -0.682,-0.145c-0.562,-0.143 -1.305,-0.397 -2.108,-0.77c-1.601,-0.753 -3.306,-2.089 -4.612,-3.741c-0.905,-1.151 -1.596,-2.457 -2.061,-3.729c-0.202,-0.557 -0.374,-1.105 -0.48,-1.636c-0.171,-0.868 -0.239,-1.652 -0.242,-2.233"/>
   <path stroke="#fff" id="svg_22" fill="#00ffff" d="m484.272,249.004c1.513,-0.442 2.96,-0.792 4.272,-1.036c1.866,-0.345 3.46,-0.513 4.592,-0.579c1.133,-0.069 1.801,-0.029 1.801,-0.029c0,0 -0.483,0.468 -1.353,1.18c-0.867,0.722 -2.13,1.677 -3.662,2.751c-1.774,1.234 -3.941,2.565 -6.276,3.883l0.007,-0.35c0.04,-1.769 0.264,-3.731 0.619,-5.82"/>
   <path stroke="#fff" id="svg_23" fill="#00ffff" d="m478.576,257.889l-0.227,0.115c-1.068,0.539 -2.135,1.082 -3.203,1.577c-1.032,0.539 -2.11,0.991 -3.108,1.474c-0.981,0.497 -2.017,0.896 -2.912,1.351c-0.9,0.443 -1.841,0.799 -2.603,1.213c-0.774,0.405 -1.602,0.7 -2.196,1.07c-0.598,0.377 -1.262,0.629 -1.678,0.936c-0.85,0.598 -1.461,0.981 -1.461,0.981c0,0 0.104,-0.617 0.5,-1.766c0.199,-0.577 0.559,-1.158 0.986,-1.871c0.409,-0.749 0.982,-1.414 1.618,-2.193c0.629,-0.798 1.399,-1.482 2.214,-2.267c0.243,-0.235 0.513,-0.45 0.774,-0.667c2.338,0.047 4.732,0.078 7.225,0.078c1.324,0 2.703,-0.019 4.071,-0.031"/>
   <path stroke="#fff" id="svg_24" fill="#00ffff" d="m497.373,219.037c2.585,-0.478 5.033,-0.764 7.151,-0.896c2.122,-0.124 3.911,-0.114 5.173,-0.045c1.261,0.06 1.995,0.173 1.995,0.173c0,0 -0.617,0.413 -1.713,1.027c-1.094,0.622 -2.671,1.44 -4.575,2.331c-3.81,1.784 -8.971,3.698 -14.165,5.334c-0.103,0.031 -0.203,0.06 -0.304,0.091c0.959,-2.418 1.98,-4.851 3.051,-7.286c1.145,-0.27 2.281,-0.524 3.387,-0.729"/>
   <path stroke="#fff" id="svg_25" fill="#00ffff" d="m507.292,198.402c5.317,-0.874 10.686,-0.881 14.703,-0.39c2.011,0.247 3.684,0.577 4.855,0.87c1.167,0.287 1.833,0.536 1.833,0.536c0,0 -0.646,0.293 -1.771,0.697c-1.125,0.415 -2.726,0.936 -4.642,1.483c-1.915,0.537 -4.147,1.079 -6.528,1.575c-1.189,0.253 -2.417,0.493 -3.664,0.718c-1.245,0.218 -2.51,0.44 -3.771,0.661c-2.612,0.43 -5.204,0.814 -7.612,1.187c1.199,-2.32 2.405,-4.563 3.607,-6.716c0.991,-0.228 1.984,-0.453 2.99,-0.621"/>
   <path stroke="#fff" id="svg_26" fill="#00ffff" d="m482.492,287.617c-3.053,2.27 -7.243,4.893 -11.427,7.347c-2.077,1.205 -4.156,2.413 -6.108,3.543c-1.928,1.125 -3.69,2.194 -5.111,3.199c-0.704,0.507 -1.358,0.982 -1.877,1.453c-0.517,0.479 -0.947,0.927 -1.27,1.344c-0.138,0.213 -0.274,0.412 -0.406,0.589c-0.112,0.181 -0.174,0.347 -0.243,0.48c-0.139,0.287 -0.213,0.437 -0.213,0.437c0,0 -0.06,-0.15 -0.145,-0.46c-0.103,-0.315 -0.197,-0.788 -0.174,-1.421c0.027,-0.614 0.119,-1.403 0.418,-2.214c0.268,-0.834 0.677,-1.725 1.222,-2.622c0.543,-0.897 1.212,-1.789 1.972,-2.682c0.769,-0.866 1.622,-1.741 2.557,-2.561c0.933,-0.818 1.922,-1.628 2.979,-2.36c1.039,-0.76 2.145,-1.439 3.254,-2.105c4.468,-2.613 9.296,-4.381 13.076,-5.238c1.892,-0.426 3.51,-0.662 4.66,-0.763c1.15,-0.113 1.832,-0.095 1.832,-0.095c0,0 -0.479,0.485 -1.348,1.229c-0.867,0.755 -2.123,1.765 -3.648,2.9"/>
   <path stroke="#fff" id="svg_27" fill="#00ffff" d="m466.796,335.018c-1.223,0.594 -2.28,1.047 -3.036,1.381c-0.386,0.174 -0.672,0.303 -0.881,0.415c-0.218,0.11 -0.335,0.166 -0.335,0.166c0,0 0.004,-0.123 0.036,-0.36c0.04,-0.226 0.075,-0.625 0.233,-1.022c0.255,-0.864 0.769,-2.016 1.532,-3.233c1.503,-2.485 4.048,-5.216 7.003,-7.402c0.745,-0.54 1.499,-1.067 2.278,-1.537c0.763,-0.487 1.566,-0.9 2.34,-1.296c1.566,-0.772 3.12,-1.351 4.519,-1.711c0.716,-0.174 1.337,-0.32 1.963,-0.402c0.612,-0.086 1.148,-0.126 1.573,-0.131c0.857,0.015 1.374,0.089 1.374,0.089c0,0 -0.31,0.423 -0.898,1.05c-0.266,0.313 -0.59,0.692 -0.958,1.128c-0.356,0.395 -0.786,0.897 -1.247,1.375c-0.927,0.986 -2.025,2.083 -3.253,3.182c-1.224,1.107 -2.583,2.201 -3.974,3.254c-1.412,1.031 -2.85,2.022 -4.268,2.87c-1.404,0.864 -2.789,1.59 -4.001,2.184"/>
   <path stroke="#fff" id="svg_28" fill="#00ffff" d="m475.518,358.852c0.176,-0.519 0.389,-1.163 0.713,-1.771c0.344,-0.569 0.749,-1.18 1.218,-1.814c0.48,-0.603 1.03,-1.13 1.62,-1.697c0.592,-0.586 1.23,-1.066 1.911,-1.524c0.666,-0.462 1.377,-0.942 2.088,-1.31c0.73,-0.362 1.454,-0.728 2.194,-1.037c0.728,-0.335 1.476,-0.574 2.21,-0.792c1.458,-0.43 2.868,-0.747 4.091,-0.844c1.23,-0.12 2.302,-0.113 3.072,-0.061c0.766,0.04 1.233,0.131 1.233,0.131c0,0 -0.249,0.404 -0.735,0.997c-0.482,0.604 -1.198,1.397 -2.115,2.224c-0.935,0.818 -1.976,1.721 -3.171,2.528c-0.594,0.411 -1.224,0.801 -1.85,1.203c-0.623,0.405 -1.285,0.761 -1.943,1.123c-0.691,0.319 -1.281,0.718 -1.949,1.019c-0.643,0.329 -1.325,0.594 -1.902,0.898c-0.59,0.299 -1.242,0.535 -1.797,0.787c-0.532,0.264 -1.073,0.5 -1.604,0.71c-0.497,0.221 -0.907,0.467 -1.352,0.668c-0.459,0.195 -0.801,0.41 -1.091,0.61c-0.6,0.392 -1.044,0.653 -1.044,0.653c0,0 -0.08,-0.432 -0.041,-1.25c0.017,-0.412 0.043,-0.947 0.244,-1.451"/>
   <path stroke="#fff" id="svg_29" fill="#00ffff" d="m490.395,380.454c0.046,-0.268 0.151,-0.515 0.237,-0.806c0.193,-0.567 0.429,-1.237 0.759,-1.913c0.353,-0.626 0.765,-1.298 1.237,-1.998c0.462,-0.726 1.054,-1.309 1.652,-1.978c0.608,-0.653 1.255,-1.321 1.986,-1.86c0.706,-0.583 1.465,-1.123 2.218,-1.672c0.791,-0.473 1.585,-0.936 2.393,-1.348c0.804,-0.421 1.596,-0.819 2.432,-1.103c1.636,-0.592 3.213,-1.1 4.568,-1.286c1.36,-0.205 2.542,-0.266 3.389,-0.261c0.845,-0.008 1.359,0.053 1.359,0.053c0,0 -0.287,0.432 -0.842,1.068c-0.549,0.645 -1.363,1.504 -2.399,2.404c-1.047,0.907 -2.139,1.937 -3.432,2.858c-0.645,0.448 -1.284,0.974 -1.965,1.444c-0.669,0.493 -1.384,0.928 -2.086,1.386c-0.684,0.463 -1.365,0.936 -2.074,1.348c-0.715,0.413 -1.379,0.837 -2.036,1.242c-0.642,0.416 -1.381,0.735 -1.944,1.126c-0.6,0.365 -1.199,0.7 -1.778,1.004c-0.546,0.329 -1.046,0.632 -1.489,0.899c-0.496,0.265 -0.888,0.514 -1.187,0.753c-0.642,0.46 -1.112,0.766 -1.112,0.766c0,0 -0.054,-0.473 0.028,-1.369c0.026,-0.23 0.054,-0.48 0.086,-0.757"/>
   <path stroke="#fff" id="svg_30" fill="#00ffff" d="m436.287,294.75c0,0 1.802,1.249 4.267,3.324c1.241,1.03 2.644,2.274 4.101,3.652c1.464,1.372 2.983,2.879 4.45,4.436c1.47,1.553 2.884,3.161 4.168,4.711c1.29,1.542 2.44,3.037 3.371,4.365c0.942,1.319 1.659,2.48 2.119,3.324c0.239,0.421 0.383,0.773 0.483,1.022c0.108,0.27 0.075,0.384 0.082,0.391c0,0.008 -0.051,-0.156 -0.228,-0.309c-0.171,-0.168 -0.465,-0.406 -0.815,-0.715c-0.719,-0.609 -1.759,-1.456 -2.966,-2.519c-1.216,-1.051 -2.602,-2.305 -4.047,-3.693c-1.452,-1.38 -2.966,-2.884 -4.431,-4.438c-1.469,-1.551 -2.89,-3.149 -4.18,-4.688c-1.299,-1.53 -2.463,-3.006 -3.414,-4.317c-1.933,-2.59 -2.96,-4.546 -2.96,-4.546"/>
   <path stroke="#fff" id="svg_31" fill="#00ffff" d="m441.726,327.236c1.128,0.891 2.401,1.97 3.721,3.172c1.324,1.197 2.698,2.513 4.022,3.879c1.328,1.366 2.6,2.785 3.753,4.155c1.157,1.369 2.187,2.697 3.012,3.887c0.839,1.18 1.47,2.224 1.871,2.991c0.208,0.379 0.328,0.698 0.411,0.928c0.087,0.247 0.046,0.349 0.052,0.353c0,0.011 -0.04,-0.142 -0.201,-0.274c-0.15,-0.149 -0.423,-0.352 -0.741,-0.618c-0.653,-0.525 -1.605,-1.255 -2.701,-2.17c-1.11,-0.906 -2.368,-1.995 -3.679,-3.202c-1.316,-1.202 -2.69,-2.515 -4.014,-3.878c-1.323,-1.363 -2.602,-2.774 -3.759,-4.139c-1.162,-1.359 -2.202,-2.675 -3.04,-3.848c-1.718,-2.322 -2.586,-4.103 -2.586,-4.103c0,0 1.643,1.073 3.879,2.867"/>
   <path stroke="#fff" id="svg_32" fill="#00ffff" d="m457.125,360.961c1.466,1.375 2.982,2.881 4.451,4.437c1.469,1.555 2.885,3.162 4.169,4.71c1.288,1.544 2.439,3.038 3.369,4.367c0.942,1.319 1.66,2.481 2.12,3.324c0.24,0.421 0.384,0.772 0.485,1.022c0.105,0.271 0.072,0.384 0.079,0.39c0,0.008 -0.049,-0.155 -0.228,-0.308c-0.168,-0.168 -0.465,-0.406 -0.815,-0.715c-0.717,-0.608 -1.759,-1.458 -2.964,-2.519c-1.218,-1.05 -2.603,-2.305 -4.048,-3.693c-1.452,-1.381 -2.966,-2.885 -4.431,-4.438c-1.468,-1.554 -2.89,-3.149 -4.181,-4.689c-1.298,-1.531 -2.461,-3.006 -3.413,-4.316c-1.932,-2.59 -2.959,-4.547 -2.959,-4.547c0,0 1.802,1.251 4.264,3.325c1.244,1.029 2.647,2.273 4.102,3.65"/>
   <path stroke="#fff" id="svg_33" fill="#00ffff" d="m455.751,281.869c-1.018,-1.135 -2.149,-2.5 -3.307,-3.996c-1.159,-1.497 -2.355,-3.12 -3.489,-4.785c-1.137,-1.663 -2.215,-3.364 -3.18,-4.99c-0.974,-1.621 -1.828,-3.171 -2.512,-4.532c-1.397,-2.701 -2.095,-4.658 -2.097,-4.658c0,0 1.572,1.367 3.58,3.658c1.02,1.134 2.15,2.496 3.306,3.995c1.163,1.495 2.352,3.12 3.487,4.785c1.137,1.663 2.21,3.366 3.178,4.994c0.971,1.621 1.826,3.17 2.511,4.532c1.396,2.701 2.1,4.658 2.1,4.658c0,0 -1.568,-1.371 -3.577,-3.661"/>
   <path stroke="#fff" id="svg_34" fill="#00ffff" d="m416.597,245.098c-3.559,-1.06 -5.819,-1.969 -6.917,-2.456c-8.016,-17.295 26.197,-67.717 41.181,-87.177c1.255,-0.175 3.868,-0.396 7.818,-0.518c-7.37,14.681 -37.677,75.403 -42.082,90.151"/>
   <path stroke="#fff" id="svg_35" fill="#00ffff" d="m494.961,165.119c2.103,0.548 4.908,2.301 7.664,4.341c-8.502,13.08 -35.102,57.631 -31.682,82.199c-4.172,-0.041 -8.115,-0.156 -11.816,-0.33c2.769,-13.267 12.358,-51.903 35.834,-86.21"/>
   <path stroke="#fff" id="svg_36" fill="#00ffff" d="m345.436,169.522l-146.81,-11.555l3.907,-8.436l140.862,-0.185l2.041,20.176"/>
   <path stroke="#fff" id="svg_37" fill="#00ffff" d="m49.925,267.677c1.497,-0.618 2.763,-1.093 3.661,-1.42c0.91,-0.321 1.432,-0.505 1.432,-0.505l1.456,6.063c0,0 -0.495,0.076 -1.359,0.209c-0.876,0.145 -2.136,0.366 -3.643,0.681c-3.012,0.623 -7.027,1.59 -10.893,2.973c-0.961,0.357 -1.944,0.689 -2.859,1.101c-0.935,0.387 -1.847,0.784 -2.691,1.236c-0.877,0.409 -1.673,0.878 -2.416,1.35c-0.78,0.431 -1.421,0.949 -2.03,1.423c-0.646,0.439 -1.119,0.954 -1.558,1.406c-0.223,0.225 -0.429,0.436 -0.621,0.631c-0.182,0.205 -0.299,0.426 -0.431,0.607c-0.512,0.767 -0.805,1.201 -0.805,1.201c0,0 0.208,-0.487 0.573,-1.336c0.099,-0.208 0.182,-0.461 0.327,-0.704c0.154,-0.233 0.325,-0.485 0.506,-0.757c0.361,-0.544 0.763,-1.181 1.33,-1.752c0.539,-0.603 1.119,-1.277 1.829,-1.868c0.681,-0.635 1.424,-1.282 2.243,-1.87c0.797,-0.635 1.657,-1.224 2.548,-1.802c0.876,-0.613 1.814,-1.136 2.739,-1.693c3.73,-2.177 7.666,-3.946 10.662,-5.174"/>
   <path stroke="#fff" id="svg_38" fill="#00ffff" d="m32.064,306.462c2.934,-2.502 6.02,-4.818 8.371,-6.505c1.175,-0.846 2.172,-1.532 2.876,-2.012c0.713,-0.478 1.121,-0.749 1.121,-0.749l2.885,5.529c0,0 -0.424,0.171 -1.169,0.47c-0.746,0.309 -1.819,0.757 -3.096,1.326c-2.554,1.128 -5.939,2.714 -9.211,4.505c-1.628,0.903 -3.233,1.848 -4.688,2.81c-0.705,0.502 -1.441,0.945 -2.051,1.447c-0.614,0.498 -1.251,0.933 -1.735,1.423c-0.495,0.479 -1.012,0.888 -1.342,1.338c-0.342,0.441 -0.721,0.794 -0.905,1.154c-0.401,0.719 -0.629,1.133 -0.629,1.133c0,0 0.143,-0.459 0.391,-1.255c0.115,-0.416 0.411,-0.828 0.674,-1.363c0.253,-0.549 0.674,-1.051 1.088,-1.658c0.401,-0.618 0.939,-1.18 1.472,-1.825c0.525,-0.656 1.161,-1.247 1.782,-1.916c1.275,-1.288 2.705,-2.587 4.166,-3.852"/>
   <path stroke="#fff" id="svg_39" fill="#00ffff" d="m26.269,350.238c-0.421,0.653 -0.66,1.024 -0.66,1.024c0,0 0.157,-0.423 0.429,-1.16c0.348,-0.705 0.89,-1.702 1.66,-2.82c1.524,-2.249 3.829,-5.034 6.24,-7.714c2.406,-2.682 4.908,-5.274 6.812,-7.193c1.894,-1.915 3.217,-3.182 3.217,-3.182l3.815,4.933c0,0 -1.485,0.896 -3.717,2.335c-2.226,1.428 -5.174,3.377 -8.044,5.427c-2.876,2.049 -5.663,4.214 -7.582,6.025c-0.964,0.9 -1.685,1.721 -2.17,2.325"/>
   <path stroke="#fff" id="svg_40" fill="#00ffff" d="m47.534,370.418c-1.23,1.31 -2.416,2.659 -3.472,3.969c-0.501,0.668 -1.029,1.302 -1.456,1.936c-0.409,0.642 -0.873,1.229 -1.172,1.82c-0.299,0.589 -0.676,1.113 -0.838,1.623c-0.18,0.504 -0.407,0.945 -0.483,1.325c-0.135,0.783 -0.213,1.231 -0.213,1.231c0,0 -0.019,-0.463 -0.052,-1.271c-0.007,-0.409 0.121,-0.883 0.198,-1.455c0.063,-0.582 0.316,-1.163 0.497,-1.848c0.184,-0.689 0.516,-1.362 0.797,-2.12c0.301,-0.753 0.689,-1.495 1.055,-2.296c0.784,-1.564 1.69,-3.194 2.65,-4.79c1.92,-3.191 4.026,-6.258 5.657,-8.527c0.829,-1.13 1.522,-2.068 2.006,-2.723c0.504,-0.66 0.792,-1.035 0.792,-1.035l4.493,4.324c0,0 -0.338,0.288 -0.928,0.784c-0.587,0.52 -1.428,1.263 -2.437,2.153c-2.001,1.805 -4.627,4.279 -7.094,6.9"/>
   <path stroke="#fff" id="svg_41" fill="#00ffff" d="m44.062,253.386c-0.611,0.343 -1.122,0.681 -1.518,0.992c-0.376,0.327 -0.684,0.594 -0.83,0.821c-0.167,0.219 -0.257,0.338 -0.257,0.338c0,0 0.07,-0.132 0.198,-0.374c0.112,-0.261 0.372,-0.575 0.704,-0.978c0.352,-0.389 0.815,-0.821 1.382,-1.279c0.574,-0.445 1.245,-0.92 1.999,-1.401c3.022,-1.911 7.345,-3.907 11.732,-5.688c4.391,-1.784 8.854,-3.362 12.221,-4.494c3.368,-1.133 5.661,-1.826 5.661,-1.826l1.318,6.094c0,0 -2.275,0.289 -5.717,0.838c-3.436,0.55 -8.02,1.352 -12.55,2.364c-4.529,1.006 -9.017,2.233 -12.212,3.577c-0.799,0.337 -1.512,0.682 -2.131,1.016"/>
   <path stroke="#fff" id="svg_42" fill="#00ffff" d="m13.316,280.374l0.002,0l-0.714,-0.315l0.74,-0.477c0.112,0 0.209,0.007 0.317,0.065c0.538,0.271 1.363,1.852 5.625,11.297c2.464,5.461 4.956,11.131 5.163,11.65l-1.447,0.578c-0.462,-1.153 -8.488,-19.281 -10.024,-21.969c-0.075,-0.131 -0.138,-0.238 -0.181,-0.292l0.519,-0.537"/>
   <path stroke="#fff" id="svg_43" fill="#00ffff" d="m8.027,311.074c0.58,-0.077 1.075,0.385 1.823,1.339c2.525,3.213 15.257,23.991 14.599,25.639l-0.95,-0.382l-0.542,0.1c-0.315,-1.767 -13.18,-23.991 -15.064,-25.206c0.035,0.024 0.179,0.082 0.355,0.054l-0.221,-1.544"/>
   <path stroke="#fff" id="svg_44" fill="#00ffff" d="m11.56,344.394c5.153,1.216 19.5,20.115 20.115,21.959l-1.477,0.497c-0.669,-1.775 -14.704,-20.014 -19.026,-20.946c-0.13,-0.029 -0.29,-0.039 -0.341,0.01l-1.101,-1.104c0.315,-0.313 0.885,-0.641 1.83,-0.416"/>
   <path stroke="#fff" id="svg_45" fill="#00ffff" d="m34.953,271.979l-1.54,0.233c-0.287,-1.897 -2.164,-15.12 -2.592,-18.133c-0.056,-0.391 -0.088,-0.618 -0.088,-0.618l0.79,-0.112l0.755,-0.106c0,0 2.351,16.594 2.675,18.736"/>
   <path stroke="#fff" id="svg_46" fill="#00ffff" d="m50.845,237.048l2.533,0l0,7.6l-2.533,0l0,-7.6z"/>
   <path stroke="#fff" id="svg_47" fill="#00ffff" d="m386.028,311.17c0.76,-0.008 1.613,-0.119 2.531,-0.214c0.455,-0.076 0.928,-0.155 1.419,-0.239c0.476,-0.115 0.969,-0.239 1.476,-0.364c0.495,-0.152 0.992,-0.338 1.498,-0.516c0.481,-0.24 0.997,-0.42 1.461,-0.712c1.925,-1.053 3.53,-2.716 4.474,-4.741c0.982,-1.998 1.369,-4.292 1.493,-6.464c0.126,-2.178 -0.023,-4.267 -0.198,-6.073c-0.181,-1.808 -0.395,-3.343 -0.525,-4.47c-0.116,-1.151 -0.181,-1.808 -0.181,-1.808l6.236,-0.08c0,0 -0.034,0.597 -0.092,1.641c-0.044,1.068 -0.07,2.666 -0.178,4.623c-0.115,1.958 -0.306,4.281 -0.841,6.764c-0.537,2.466 -1.413,5.151 -3.036,7.466c-0.807,1.145 -1.759,2.205 -2.86,3.035c-1.105,0.815 -2.273,1.486 -3.474,1.902c-0.585,0.246 -1.197,0.365 -1.768,0.541c-0.589,0.113 -1.16,0.227 -1.715,0.309c-0.558,0.049 -1.101,0.096 -1.625,0.143c-0.52,0.005 -1.023,0.012 -1.508,0.017c-0.962,-0.05 -1.839,-0.074 -2.605,-0.185c-0.769,-0.109 -1.438,-0.163 -1.98,-0.286c-1.084,-0.206 -1.702,-0.326 -1.702,-0.326c0,0 0.629,0.021 1.728,0.06c0.546,0.037 1.215,-0.013 1.972,-0.023"/>
   <path stroke="#fff" id="svg_48" fill="#00ffff" d="m414.486,274.238l0.118,6.237l-40.589,-1.689l40.471,-4.548"/>
   <path stroke="#fff" id="svg_49" fill="#00ffff" d="m416.044,263.329l0.119,6.234l-40.589,-1.689l40.47,-4.545"/>
   <path stroke="#fff" id="svg_50" fill="#00ffff" d="m175.52,199.05c1.292,0 2.338,1.243 2.338,2.534c0,1.291 -1.046,2.533 -2.338,2.533l-73.268,0c-1.289,0 -2.335,-1.242 -2.335,-2.533c0,-1.291 1.046,-2.534 2.335,-2.534l73.268,0"/>
   <path stroke="#fff" id="svg_51" fill="#00ffff" d="m106.93,216.783c-1.291,0 -2.338,-1.242 -2.338,-2.533c0,-1.291 1.047,-2.534 2.338,-2.534l71.708,0c1.291,0 2.337,1.243 2.337,2.534c0,1.291 -1.046,2.533 -2.337,2.533l-71.708,0"/>
   <path stroke="#fff" id="svg_52" fill="#00ffff" d="m180.196,228.182l-70.148,0c-1.29,0 -2.339,-0.608 -2.339,-1.899c0,-1.292 1.049,-1.901 2.339,-1.901l70.148,0c1.292,0 2.34,0.609 2.34,1.901c0,1.291 -1.048,1.899 -2.34,1.899"/>
   <path stroke="#fff" id="svg_53" fill="#00ffff" d="m183.314,242.115l-68.589,0c-1.291,0 -2.339,-0.609 -2.339,-1.9c0,-1.291 1.048,-1.899 2.339,-1.899l68.589,0c1.29,0 2.339,0.608 2.339,1.899c0,1.291 -1.049,1.9 -2.339,1.9"/>
   <path stroke="#fff" id="svg_54" fill="#00ffff" d="m117.842,250.981l67.031,0c1.29,0 2.339,0.609 2.339,1.9c0,1.292 -1.049,1.901 -2.339,1.901l-67.031,0c-1.291,0 -2.338,-0.609 -2.338,-1.901c0,-1.291 1.047,-1.9 2.338,-1.9"/>
   <path stroke="#fff" id="svg_55" fill="#00ffff" d="m122.519,262.381l65.472,0c1.29,0 2.338,1.242 2.338,2.534c0,1.292 -1.048,2.533 -2.338,2.533l-65.472,0c-1.293,0 -2.339,-1.241 -2.339,-2.533c0,-1.292 1.046,-2.534 2.339,-2.534"/>
   <path stroke="#fff" id="svg_56" fill="#00ffff" d="m345.604,218.419c-0.521,0.113 -22.435,-9.459 -22.435,-9.459l0,-27.473l22.843,-0.216c0,0 0.111,37.036 -0.408,37.148"/>
   <path stroke="#fff" id="svg_57" fill="#00ffff" d="m112.662,359.209l0.077,0l-0.077,0zm-43.869,-40.49c-0.01,0.575 -0.017,1.158 -0.028,1.743c0.036,2.641 0.176,5.215 0.509,7.838c0.662,5.246 1.991,10.637 4.166,15.865c2.144,5.237 5.162,10.298 9.046,14.794c3.879,4.484 8.696,8.383 14.222,11.063c2.759,1.339 5.68,2.375 8.669,3.038c1.498,0.318 3.004,0.576 4.515,0.73c0.753,0.095 1.508,0.11 2.26,0.166l0.564,0.032l0.656,0.004l0.914,0.012c3.213,-0.03 6.031,-0.423 8.883,-1.101c2.815,-0.678 5.487,-1.642 7.958,-2.805c4.957,-2.333 9.091,-5.43 12.443,-8.649c3.365,-3.225 5.952,-6.592 7.976,-9.709c2.034,-3.119 3.482,-6.011 4.559,-8.431c1.086,-2.42 1.754,-4.389 2.222,-5.724c0.425,-1.351 0.653,-2.072 0.653,-2.072l-18.089,-4.768c0,0 -0.123,0.526 -0.356,1.515c-0.267,0.975 -0.631,2.427 -1.276,4.199c-0.636,1.774 -1.505,3.899 -2.759,6.174c-1.246,2.277 -2.857,4.733 -4.945,7.056c-2.078,2.322 -4.623,4.537 -7.622,6.237c-1.497,0.848 -3.102,1.58 -4.8,2.132c-1.654,0.549 -3.581,0.954 -5.224,1.106l-0.91,0.089l-0.229,0.298l-0.115,0.36l-0.269,0c-0.47,0 -0.947,-0.314 -1.421,-0.346c-0.953,-0.022 -1.908,-0.356 -2.87,-0.478c-1.923,-0.274 -3.852,-0.85 -5.749,-1.597c-3.795,-1.491 -7.427,-3.972 -10.563,-7.099c-3.138,-3.126 -5.817,-6.895 -7.839,-10.97c-2.054,-4.06 -3.484,-8.418 -4.361,-12.76c-0.442,-2.174 -0.71,-4.37 -0.902,-6.397c-0.034,-0.585 -0.066,-1.165 -0.099,-1.745l-0.025,-0.43l-0.012,-0.219c-0.003,-0.039 -0.003,0.156 -0.003,0.049l-0.004,-0.047l-0.008,-0.094l-0.069,-0.759c-0.107,-1.013 -0.191,-2.021 -0.181,-3.021c-0.072,-4.005 0.525,-7.891 1.554,-11.412c2.07,-7.078 5.552,-12.599 8.115,-16.276c1.308,-1.845 2.404,-3.243 3.176,-4.192c0.776,-0.946 1.192,-1.448 1.192,-1.448c0,0 -0.517,0.396 -1.484,1.142c-0.964,0.751 -2.371,1.889 -4.092,3.423c-3.392,3.09 -8.223,7.787 -12.318,15.046c-2.029,3.62 -3.784,7.912 -4.824,12.764c-0.286,1.21 -0.478,2.456 -0.637,3.727l-0.129,0.96l-0.018,0.119l-0.007,0.061l-0.004,0.156l-0.005,0.218l-0.006,0.433"/>
   <path stroke="#fff" id="svg_58" fill="#00ffff" d="m177.852,281.217c0.528,0.06 0.857,0.07 1.531,0.193c1.261,0.24 1.34,0.304 1.399,0.309l-2.211,5.826l-0.611,-0.138c-0.248,-0.042 -0.557,-0.1 -0.918,-0.163c-0.468,-0.075 -1.005,-0.161 -1.606,-0.256c-1.277,-0.194 -2.864,-0.42 -4.693,-0.665c-1.662,-0.226 -3.523,-0.467 -5.551,-0.728c-8.522,-1.085 -19.924,-2.436 -31.329,-3.753c-22.819,-2.567 -45.639,-5.132 -45.639,-5.132c0,0 22.946,1.012 45.894,2.026c11.473,0.539 22.945,1.113 31.561,1.623c1,0.06 1.955,0.116 2.87,0.173c3.046,0.188 5.623,0.364 7.582,0.53c0.646,0.056 1.22,0.108 1.721,0.155"/>
  </g>
 </g>
</svg>