<?xml version="1.0" encoding="UTF-8" standalone="no"?>
<svg
   version="1.1"
   id="Слой_1"
   x="0px"
   y="0px"
   width="64px"
   height="64px"
   viewBox="0 0 64 64"
   enable-background="new 0 0 64 64"
   xml:space="preserve"
   sodipodi:docname="car-pod.svg"
   inkscape:version="1.2.1 (9c6d41e410, 2022-07-14)"
   xmlns:inkscape="http://www.inkscape.org/namespaces/inkscape"
   xmlns:sodipodi="http://sodipodi.sourceforge.net/DTD/sodipodi-0.dtd"
   xmlns="http://www.w3.org/2000/svg"
   xmlns:svg="http://www.w3.org/2000/svg"><defs
   id="defs421" /><sodipodi:namedview
   id="namedview419"
   pagecolor="#ffffff"
   bordercolor="#000000"
   borderopacity="0.25"
   inkscape:showpageshadow="2"
   inkscape:pageopacity="0.0"
   inkscape:pagecheckerboard="0"
   inkscape:deskcolor="#d1d1d1"
   showgrid="false"
   inkscape:zoom="9.2476309"
   inkscape:cx="15.950031"
   inkscape:cy="29.62921"
   inkscape:window-width="1920"
   inkscape:window-height="1017"
   inkscape:window-x="-8"
   inkscape:window-y="-8"
   inkscape:window-maximized="1"
   inkscape:current-layer="Слой_1" />
<g
   id="g332">
	<path
   fill="#4572ED"
   d="M14,30c-2.757,0-5-2.243-5-5s2.243-5,5-5s5,2.243,5,5S16.757,30,14,30z M14,22c-1.654,0-3,1.346-3,3   s1.346,3,3,3s3-1.346,3-3S15.654,22,14,22z"
   id="path330" />
</g>
<g
   id="g336">
	<path
   fill="#4572ED"
   d="M50,30c-2.757,0-5-2.243-5-5s2.243-5,5-5s5,2.243,5,5S52.757,30,50,30z M50,22c-1.654,0-3,1.346-3,3   s1.346,3,3,3s3-1.346,3-3S51.654,22,50,22z"
   id="path334" />
</g>
<g
   id="g340">
	<path
   fill="#4572ED"
   d="M52.115,37h-40.23C6.985,37,3,33.015,3,28.115c0-0.06,0.005-0.119,0.016-0.177l1.611-8.957   C4.938,17.253,6.438,16,8.193,16h47.613c1.756,0,3.256,1.254,3.566,2.982l1.611,8.957C60.995,27.997,61,28.056,61,28.115   C61,33.015,57.015,37,52.115,37z M5.001,28.202C5.047,31.958,8.117,35,11.885,35h40.23c3.768,0,6.838-3.042,6.884-6.798   l-1.595-8.866C57.266,18.561,56.594,18,55.807,18H8.193c-0.787,0-1.459,0.562-1.598,1.335L5.001,28.202z"
   id="path338" />
</g>
<g
   id="g344">
	<path
   fill="#4572ED"
   d="M41,26H23c-0.553,0-1-0.448-1-1s0.447-1,1-1h18c0.553,0,1,0.448,1,1S41.553,26,41,26z"
   id="path342" />
</g>
<g
   id="g348">
	<path
   fill="#4572ED"
   d="M32,29L27,29c-0.553,0-1-0.448-1-1s0.448-1,1-1l0,0L32,27L37,27c0.552,0,1,0.448,1,1s-0.447,1-1,1L32,29z"
   id="path346" />
</g>
<g
   id="g352">
	<path
   fill="#4572ED"
   d="M54.001,13c-0.378,0-0.739-0.215-0.908-0.58c-0.072-0.156-0.637-1.172-4.853-7.678   C47.128,3.025,45.242,2,43.194,2H20.851c-2.067,0-3.964,1.041-5.074,2.785l-4.933,7.751c-0.296,0.467-0.913,0.604-1.381,0.307   c-0.466-0.296-0.604-0.915-0.307-1.38l4.933-7.752C15.568,1.388,18.097,0,20.851,0h22.344c2.729,0,5.242,1.366,6.725,3.654   c4.62,7.13,4.897,7.729,4.988,7.926c0.232,0.501,0.014,1.095-0.487,1.328C54.284,12.971,54.142,13,54.001,13z"
   id="path350" />
</g>
<g
   id="g356">
	<path
   fill="#4572ED"
   d="M63,13h-5c-0.553,0-1-0.448-1-1s0.447-1,1-1h5c0.553,0,1,0.448,1,1S63.553,13,63,13z"
   id="path354" />
</g>
<g
   id="g360">
	<path
   fill="#4572ED"
   d="M6,13H1c-0.553,0-1-0.448-1-1s0.447-1,1-1h5c0.553,0,1,0.448,1,1S6.553,13,6,13z"
   id="path358" />
</g>
<g
   id="g364">
	<path
   fill="#4572ED"
   d="M37,7H27c-0.553,0-1-0.448-1-1s0.447-1,1-1h10c0.553,0,1,0.448,1,1S37.553,7,37,7z"
   id="path362" />
</g>
<g
   id="g368">
	<path
   fill="#2AB27B"
   d="M36,55h-8c-0.553,0-1-0.447-1-1V44c0-0.553,0.447-1,1-1h8c0.553,0,1,0.447,1,1v10   C37,54.553,36.553,55,36,55z M29,53h6v-8h-6V53z"
   id="path366" />
</g>
<g
   id="g372">
	<path
   fill="#4572ED"
   d="M41,64H23c-0.553,0-1-0.447-1-1v-5c0-0.553,0.447-1,1-1h18c0.553,0,1,0.447,1,1v5   C42,63.553,41.553,64,41,64z M24,62h16v-3H24V62z"
   id="path370" />
</g>
<g
   id="g376">
	<path
   fill="#2AB27B"
   d="M59,44c-0.42,0-0.811-0.266-0.949-0.686l-0.772-2.332H6.722l-0.772,2.332   c-0.174,0.524-0.739,0.806-1.264,0.635c-0.524-0.174-0.809-0.739-0.635-1.264l1-3.018C5.187,39.259,5.569,38.982,6,38.982h52   c0.431,0,0.813,0.276,0.949,0.686l1,3.018c0.174,0.524-0.11,1.09-0.635,1.264C59.21,43.983,59.104,44,59,44z"
   id="path374" />
</g>
<g
   id="g380">
	<path
   fill="#2AB27B"
   d="M28,51c-0.256,0-0.512-0.098-0.707-0.293c-0.391-0.391-0.391-1.023,0-1.414l6-6   c0.391-0.391,1.023-0.391,1.414,0s0.391,1.023,0,1.414l-6,6C28.512,50.902,28.256,51,28,51z"
   id="path378" />
</g>
<g
   id="g384">
	<path
   fill="#2AB27B"
   d="M30,55c-0.256,0-0.512-0.098-0.707-0.293c-0.391-0.391-0.391-1.023,0-1.414l6-6   c0.391-0.391,1.023-0.391,1.414,0s0.391,1.023,0,1.414l-6,6C30.512,54.902,30.256,55,30,55z"
   id="path382" />
</g>
<g
   id="g388">
	<path
   fill="#2AB27B"
   d="M19.006,53c-0.553,0-1-0.447-1-1v-8c0-0.553,0.447-1,1-1s1,0.447,1,1v8C20.006,52.553,19.559,53,19.006,53z   "
   id="path386" />
</g>
<g
   id="g392">
	<path
   fill="#2AB27B"
   d="M19.006,58c-0.553,0-1-0.447-1-1v-2c0-0.553,0.447-1,1-1s1,0.447,1,1v2C20.006,57.553,19.559,58,19.006,58z   "
   id="path390" />
</g>
<g
   id="g396">
	<path
   fill="#2AB27B"
   d="M14.006,50c-0.553,0-1-0.447-1-1v-5.002c0-0.553,0.447-1,1-1s1,0.447,1,1V49   C15.006,49.553,14.559,50,14.006,50z"
   id="path394" />
</g>
<g
   id="g400">
	<path
   fill="#2AB27B"
   d="M14.006,60c-0.553,0-1-0.447-1-1v-7c0-0.553,0.447-1,1-1s1,0.447,1,1v7C15.006,59.553,14.559,60,14.006,60z   "
   id="path398" />
</g>
<g
   id="g404">
	<path
   fill="#2AB27B"
   d="M44.994,58c-0.553,0-1-0.447-1-1v-8c0-0.553,0.447-1,1-1s1,0.447,1,1v8C45.994,57.553,45.547,58,44.994,58z   "
   id="path402" />
</g>
<g
   id="g408">
	<path
   fill="#2AB27B"
   d="M44.994,47c-0.553,0-1-0.447-1-1v-2c0-0.553,0.447-1,1-1s1,0.447,1,1v2C45.994,46.553,45.547,47,44.994,47z   "
   id="path406" />
</g>
<g
   id="g412">
	<path
   fill="#2AB27B"
   d="M49.994,59.999c-0.553,0-1-0.447-1-1v-2c0-0.553,0.447-1,1-1s1,0.447,1,1v2   C50.994,59.552,50.547,59.999,49.994,59.999z"
   id="path410" />
</g>
<g
   id="g416">
	<path
   fill="#2AB27B"
   d="M49.994,54.999c-0.553,0-1-0.447-1-1V43.997c0-0.553,0.447-1,1-1s1,0.447,1,1v10.002   C50.994,54.552,50.547,54.999,49.994,54.999z"
   id="path414" />
</g>
<path
   style="fill:#00ffff;stroke-width:0.108136;fill-opacity:1"
   d="M 10.05663,36.750705 C 8.0686841,36.330395 6.0959423,35.07316 4.8547143,33.435506 3.8495054,32.109252 3.0853594,30.002623 3.0817966,28.547852 3.0794162,27.575868 4.6671527,18.830431 4.9673727,18.161881 5.3102974,17.398233 5.7750035,16.909379 6.5654418,16.480772 L 7.2450989,16.112235 H 31.95413 56.663161 l 0.618574,0.289922 c 0.796364,0.373253 1.525401,1.124126 1.79513,1.848898 0.11556,0.310516 0.586949,2.655103 1.04753,5.210193 0.95072,5.274154 0.962997,5.512786 0.377613,7.340233 -0.974806,3.043146 -3.484629,5.292181 -6.655398,5.963856 -1.13328,0.240067 -42.65094,0.226194 -43.78998,-0.01463 z m 44.011272,-1.967574 c 2.86314,-0.956469 4.883615,-3.509415 4.933456,-6.233605 0.01473,-0.805381 -1.474869,-9.149189 -1.726875,-9.67285 -0.220286,-0.457748 -0.603963,-0.747617 -1.160369,-0.876663 -0.616771,-0.143046 -47.6500045,-0.129869 -48.2742682,0.01353 -0.5295514,0.121638 -1.0009834,0.501749 -1.1781926,0.949965 -0.061902,0.156569 -0.4805191,2.337294 -0.9302607,4.846057 -0.7713198,4.302599 -0.8112353,4.601932 -0.703548,5.276027 0.2610784,1.634286 0.8216019,2.726546 2.007753,3.912392 1.191043,1.190737 2.3445987,1.75253 4.1564585,2.024234 0.148686,0.0223 9.686264,0.03452 21.194617,0.02716 l 20.924278,-0.01338 z"
   id="path1273" /><path
   style="fill:#00ffff;fill-opacity:1;stroke-width:0.108136"
   d="M 4.3711819,43.641115 C 4.1973328,43.467266 4.0550927,43.211843 4.0550927,43.073507 c 0,-0.138335 0.2450695,-0.986822 0.544599,-1.885527 0.3813086,-1.144075 0.6270935,-1.711509 0.8197304,-1.892482 L 5.6945534,39.037025 H 32.008198 58.321842 l 0.254219,0.238826 c 0.171108,0.160747 0.444412,0.816547 0.835979,2.005954 0.541964,1.646237 0.571404,1.78868 0.430343,2.082165 -0.299714,0.623576 -1.015728,0.756216 -1.494998,0.276946 C 58.235926,43.529457 57.958944,42.87377 57.73187,42.183833 L 57.319006,40.929402 H 31.993596 6.6681866 L 6.321774,41.983726 c -0.4681342,1.42479 -0.6088454,1.706181 -0.9252832,1.85036 -0.4280315,0.195024 -0.6858346,0.146503 -1.0253089,-0.192971 z"
   id="path2277" /><path
   style="fill:#00ffff;fill-opacity:1;stroke-width:0.108136"
   d="m 26.380221,28.660903 c -0.401657,-0.401657 -0.394575,-0.959389 0.01689,-1.329579 l 0.27043,-0.243305 h 5.351607 5.351608 l 0.265424,0.265424 c 0.183254,0.183254 0.265424,0.385636 0.265424,0.65373 0,0.268095 -0.08217,0.470476 -0.265424,0.65373 l -0.265424,0.265425 H 32.008203 26.64565 Z"
   id="path2279" /><path
   style="fill:#00ffff;fill-opacity:1;stroke-width:0.108136"
   d="m 22.358564,25.65522 c -0.371082,-0.40047 -0.362611,-0.946336 0.02063,-1.329579 l 0.265424,-0.265425 h 9.363578 9.363578 l 0.265423,0.265425 c 0.36112,0.361119 0.36112,0.94634 0,1.30746 l -0.265423,0.265424 h -9.393881 -9.393881 z"
   id="path2281" /><path
   style="fill:#00ffff;fill-opacity:1;stroke-width:0.108136"
   d="m 12.651889,29.753566 c -2.415227,-0.799779 -3.920211,-3.116735 -3.5348939,-5.442049 0.4019144,-2.425476 2.5012519,-4.252325 4.8865919,-4.252325 2.94954,0 5.349441,2.786139 4.874918,5.659484 -0.271269,1.642598 -1.306047,3.017934 -2.807439,3.731402 -0.75396,0.358285 -0.915734,0.393872 -1.905276,0.419125 -0.680329,0.01736 -1.241769,-0.02552 -1.513901,-0.115637 z m 2.339536,-1.877845 c 0.763771,-0.244246 1.604497,-1.062104 1.858697,-1.808139 0.288325,-0.846188 0.239188,-1.640641 -0.149594,-2.418662 -0.557973,-1.116604 -1.454613,-1.662367 -2.73112,-1.662367 -0.989621,0 -1.785417,0.386465 -2.359282,1.145745 -0.503696,0.666441 -0.67876,1.284118 -0.609278,2.149713 0.06827,0.850514 0.365321,1.439062 1.014912,2.010855 0.831975,0.732334 1.871513,0.935952 2.975665,0.582855 z"
   id="path2283" /><path
   style="fill:#00ffff;fill-opacity:1;stroke-width:0.108136"
   d="m 48.450176,29.676963 c -1.783911,-0.629867 -3.021109,-2.093964 -3.326424,-3.936482 -0.559195,-3.374634 2.75743,-6.404526 6.050876,-5.527759 0.941356,0.250604 1.560949,0.610013 2.273365,1.318716 2.439533,2.426819 1.76093,6.36613 -1.362585,7.909855 -0.748101,0.369732 -0.891907,0.402377 -1.900547,0.431435 -0.888621,0.0256 -1.21067,-0.01074 -1.734685,-0.195765 z m 2.931345,-1.97542 c 1.530538,-0.775583 2.100921,-2.655658 1.269261,-4.183692 -0.757025,-1.390903 -2.555089,-1.948487 -4.001436,-1.240855 -1.929884,0.944204 -2.263559,3.572992 -0.635433,5.006126 0.937086,0.824856 2.244883,0.987348 3.367608,0.418421 z"
   id="path2285" /><path
   style="fill:#00ffff;fill-opacity:1;stroke-width:0.108136"
   d="m 57.357726,12.606139 c -0.392018,-0.392018 -0.403001,-0.753522 -0.03614,-1.189515 l 0.279952,-0.332704 h 2.900441 2.900442 l 0.279952,0.332704 c 0.366864,0.435993 0.355881,0.797497 -0.03614,1.189515 l -0.316089,0.31609 h -2.828168 -2.828167 z"
   id="path2287" /><path
   style="fill:#00ffff;fill-opacity:1;stroke-width:0.108136"
   d="M 9.3922178,12.665902 C 8.7977422,12.154556 8.8359919,12.07143 11.826169,7.376318 c 1.90239,-2.987091 2.91884,-4.4791797 3.34743,-4.9138278 0.99722,-1.0113159 2.218933,-1.73542617 3.642031,-2.15863458 0.603148,-0.1793675 1.510352,-0.19513611 12.889315,-0.2240364 13.258464,-0.03367384 12.934005,-0.04606301 14.410314,0.55024459 2.105879,0.85060219 2.843392,1.61829039 5.420048,5.64181279 3.065821,4.7873664 3.386868,5.3336804 3.386868,5.7633224 0,0.68352 -0.843971,1.125634 -1.402275,0.734583 C 53.400194,12.685936 53.040493,12.187159 52.720564,11.66139 52.400636,11.13562 51.19795,9.2384272 50.047929,7.445406 47.785378,3.9178206 47.241586,3.2700621 46.028962,2.6580665 44.651646,1.9629531 45.449241,2.0005124 32.065359,2.0005124 c -13.420253,0 -12.76106,-0.031699 -14.106007,0.6783257 -1.24563,0.657593 -1.752735,1.295199 -4.602591,5.787046 -1.444803,2.2772489 -2.728389,4.2115269 -2.852414,4.2983979 -0.331214,0.231991 -0.7735391,0.192864 -1.1121292,-0.09838 z"
   id="path2289" /><path
   style="fill:#00ffff;fill-opacity:1;stroke-width:0.108136"
   d="M 26.499779,6.744287 C 26.071878,6.4076994 25.969592,6.0582701 26.173305,5.6289778 c 0.0925,-0.1949339 0.289783,-0.4098287 0.438402,-0.4775441 0.190046,-0.086591 1.806217,-0.1231188 5.44735,-0.1231188 h 5.177134 l 0.332704,0.2799521 c 0.470964,0.3962892 0.470964,0.9902511 0,1.3865402 l -0.332704,0.2799522 h -5.221707 c -5.165214,0 -5.224876,-0.00249 -5.514705,-0.2304724 z"
   id="path2291" /><path
   style="fill:#00ffff;fill-opacity:1;stroke-width:0.108136"
   d="M 0.33401999,12.589524 C 0.02822127,12.226103 -0.01376213,11.954008 0.17986691,11.590456 0.44031187,11.101452 0.50911407,11.090968 3.4813496,11.087359 c 2.8264831,-0.0034 2.8331715,-0.0029 3.1305315,0.252887 0.4175807,0.359188 0.4175807,0.966469 0,1.325657 -0.2972174,0.255655 -0.3054495,0.256326 -3.1479528,0.256326 H 0.61397209 Z"
   id="path2293" /><path
   style="fill:#00ffff;fill-opacity:1;stroke-width:0.108136"
   d="m 13.346587,49.625622 -0.262155,-0.279051 v -2.848175 -2.848175 l 0.262155,-0.279052 c 0.188985,-0.201164 0.372362,-0.279051 0.657,-0.279051 0.284638,0 0.468015,0.07789 0.656999,0.279051 l 0.262155,0.279052 v 2.848175 2.848175 l -0.262155,0.279051 c -0.188984,0.201165 -0.372361,0.279052 -0.656999,0.279052 -0.284638,0 -0.468015,-0.07789 -0.657,-0.279052 z"
   id="path2295" /><path
   style="fill:#00ffff;fill-opacity:1;stroke-width:0.108136"
   d="M 13.558938,59.799138 C 13.04385,59.519194 13.019705,59.306367 13.053232,55.341653 l 0.0312,-3.689654 0.262155,-0.278916 c 0.361191,-0.384283 0.952808,-0.384283 1.313999,0 l 0.262155,0.278916 0.0312,3.689654 c 0.03377,3.993469 0.01126,4.183854 -0.527673,4.462546 -0.372029,0.192383 -0.505475,0.191605 -0.867331,-0.0051 z"
   id="path2297" /><path
   style="fill:#00ffff;fill-opacity:1;stroke-width:0.108136"
   d="m 18.378171,52.667052 -0.265424,-0.265424 v -4.389331 -4.389331 l 0.265424,-0.265424 c 0.291744,-0.291743 0.854108,-0.353773 1.149712,-0.126815 0.40564,0.31144 0.423173,0.511843 0.423173,4.836847 v 4.232724 l -0.316089,0.316089 c -0.403307,0.403306 -0.884746,0.422714 -1.256796,0.05066 z"
   id="path2299" /><path
   style="fill:#00ffff;fill-opacity:1;stroke-width:0.108136"
   d="m 18.378171,57.641299 c -0.254312,-0.254313 -0.265424,-0.32369 -0.265424,-1.657256 0,-1.305306 0.01513,-1.405675 0.243306,-1.614523 0.133818,-0.122481 0.350361,-0.255124 0.481206,-0.294761 0.285083,-0.08636 0.84407,0.177818 1.002455,0.473764 0.15417,0.288069 0.142669,2.556649 -0.01446,2.851664 -0.30424,0.571232 -1.00089,0.687307 -1.447086,0.241112 z"
   id="path2301" /><path
   style="fill:#00ffff;fill-opacity:1;stroke-width:0.108136"
   d="m 27.667302,54.879831 c -0.587608,-0.237129 -0.579283,-0.152009 -0.579283,-5.923288 v -5.333577 l 0.265424,-0.265424 0.265424,-0.265424 h 4.389331 4.389331 l 0.265424,0.265424 0.265424,0.265424 v 5.310679 c 0,3.435592 -0.03931,5.384134 -0.111341,5.518722 -0.2747,0.513281 -0.474736,0.535139 -4.830502,0.527835 -2.248123,-0.0038 -4.191777,-0.04894 -4.319232,-0.100371 z m 4.691557,-4.568853 2.731209,-2.729634 v -1.325459 -1.325458 h -0.350661 c -0.314065,0 -0.635703,0.284877 -3.08187,2.729633 l -2.731209,2.729634 v 1.325459 1.325459 h 0.350661 c 0.314065,0 0.635703,-0.284877 3.08187,-2.729634 z m 2.731209,1.377936 c 0,-0.743433 -0.0129,-1.351697 -0.02866,-1.351697 -0.01576,0 -0.63546,0.608264 -1.377109,1.351697 l -1.348452,1.351698 h 1.377109 1.377108 z m -4.703907,-5.352722 1.402645,-1.405765 h -1.431239 -1.431239 v 1.405765 c 0,0.773171 0.01287,1.405765 0.02859,1.405765 0.01573,0 0.659784,-0.632594 1.431239,-1.405765 z"
   id="path2303" /><path
   style="fill:#00ffff;fill-opacity:1;stroke-width:0.108136"
   d="m 22.530751,63.798351 c -0.157248,-0.08542 -0.339727,-0.309713 -0.40551,-0.498418 -0.16128,-0.46265 -0.161068,-5.133861 2.55e-4,-5.596631 0.240655,-0.690343 -0.187759,-0.661665 9.884441,-0.661665 6.749009,0 9.211932,0.03301 9.386151,0.125799 0.489664,0.260796 0.499488,0.32625 0.503097,3.351968 l 0.0034,2.88302 -0.332705,0.279952 -0.332703,0.279952 -9.210281,-0.0043 c -7.794768,-0.0037 -9.25422,-0.0282 -9.496184,-0.159648 z m 17.533564,-3.296369 v -1.513901 h -8.056117 -8.056117 v 1.513901 1.513902 h 8.056117 8.056117 z"
   id="path2305" /><path
   style="fill:#00ffff;fill-opacity:1;stroke-width:0.108136"
   d="m 44.330764,57.641299 -0.265424,-0.265424 0.0034,-4.357382 c 0.0036,-4.588922 4.64e-4,-4.558625 0.503097,-4.826329 0.370555,-0.197359 0.734668,-0.148825 1.045643,0.139377 l 0.28613,0.265176 v 4.389579 4.389579 l -0.265424,0.265424 c -0.183255,0.183254 -0.385636,0.265424 -0.653731,0.265424 -0.268094,0 -0.470475,-0.08217 -0.65373,-0.265424 z"
   id="path2307" /><path
   style="fill:#00ffff;fill-opacity:1;stroke-width:0.108136"
   d="m 45.943143,44.984494 c 2.82e-4,-0.594746 0.01844,-0.824256 0.04035,-0.51002 0.02191,0.314236 0.02168,0.800847 -5.12e-4,1.081358 -0.02219,0.280511 -0.04012,0.02341 -0.03984,-0.571338 z"
   id="path2309" /><path
   style="fill:#00ffff;fill-opacity:1;stroke-width:0.108136"
   d="M 44.581704,46.818988 C 44.127295,46.568467 44.06534,46.342135 44.06534,44.93262 c 0,-1.246315 0.01284,-1.32249 0.265424,-1.575078 0.36112,-0.361119 0.946341,-0.361119 1.307461,0 0.253473,0.253473 0.265424,0.326236 0.265424,1.616007 0,1.247833 -0.01851,1.371299 -0.243306,1.622881 -0.310593,0.347605 -0.704428,0.428865 -1.078639,0.222558 z"
   id="path2311" /><path
   style="fill:#00ffff;fill-opacity:1;stroke-width:0.108136"
   d="M 49.631713,54.835216 C 49.042391,54.58005 49.039587,54.552107 49.039587,48.93466 v -5.177134 l 0.279952,-0.332704 c 0.356335,-0.42348 0.867502,-0.451497 1.309021,-0.07175 l 0.303404,0.260957 v 5.359621 5.359622 l -0.27034,0.261717 c -0.358646,0.347206 -0.634324,0.411508 -1.029911,0.240225 z"
   id="path2313" /><path
   style="fill:#00ffff;fill-opacity:1;stroke-width:0.108136"
   d="m 49.582397,59.822408 c -0.440665,-0.222965 -0.539488,-0.569341 -0.541216,-1.896969 -0.0016,-1.21051 0.0021,-1.228546 0.314495,-1.540935 0.518545,-0.518545 1.196459,-0.388273 1.477306,0.283888 0.184677,0.441994 0.206037,2.135415 0.03319,2.631246 -0.113329,0.325095 -0.562097,0.663621 -0.875027,0.660071 -0.0773,-8.77e-4 -0.261233,-0.06266 -0.408748,-0.137301 z"
   id="path2315" /></svg>
