<?xml version="1.0" encoding="UTF-8" standalone="no" ?>
<!DOCTYPE svg PUBLIC "-//W3C//DTD SVG 1.1//EN" "http://www.w3.org/Graphics/SVG/1.1/DTD/svg11.dtd">
<svg xmlns="http://www.w3.org/2000/svg" xmlns:xlink="http://www.w3.org/1999/xlink" version="1.1" width="500" height="500" viewBox="0 0 500 500" xml:space="preserve">
<desc>Created with Fabric.js 4.6.0</desc>
<defs>
</defs>
<g transform="matrix(0.45 0 0 0.45 247.3 256.09)" id="Jlq7BcGN6t9fDI-3zG5W6"  >
<path style="stroke: none; stroke-width: 1; stroke-dasharray: none; stroke-linecap: butt; stroke-dashoffset: 0; stroke-linejoin: miter; stroke-miterlimit: 4; fill: rgb(99,177,29); fill-rule: nonzero; opacity: 1;" vector-effect="non-scaling-stroke"  transform=" translate(-500, -500)" d="M 129.1 761.9 L 28.9 761.9 L 28.9 761.9 L 28.4 761.9 L 28.4 761.9 L 27.9 761.9 L 27.9 761.9 L 27.4 761.9 L 27.4 761.9 L 26.9 761.9 L 26.9 761.9 L 26.4 761.9 L 26.4 761.9 L 25.9 761.8 L 25.9 761.8 L 25.4 761.6999999999999 L 25.4 761.6999999999999 L 24.9 761.5999999999999 L 24.9 761.5999999999999 L 24.4 761.4999999999999 L 24.4 761.4999999999999 L 23.9 761.3999999999999 L 23.9 761.3999999999999 L 23.5 761.2999999999998 L 23.5 761.2999999999998 L 23.1 761.1999999999998 L 23.1 761.1999999999998 L 22.6 761.0999999999998 L 22.6 761.0999999999998 L 22.200000000000003 760.8999999999997 L 22.200000000000003 760.8999999999997 L 21.800000000000004 760.7999999999997 L 21.800000000000004 760.7999999999997 L 21.400000000000006 760.5999999999997 L 21.400000000000006 760.5999999999997 L 21.000000000000007 760.3999999999996 L 21.000000000000007 760.3999999999996 L 20.60000000000001 760.1999999999996 L 20.60000000000001 760.1999999999996 L 20.20000000000001 759.9999999999995 L 20.20000000000001 759.9999999999995 L 19.80000000000001 759.7999999999995 L 19.80000000000001 759.7999999999995 L 19.400000000000013 759.5999999999995 L 19.400000000000013 759.5999999999995 L 19.000000000000014 759.2999999999995 L 19.000000000000014 759.2999999999995 L 18.600000000000016 759.0999999999995 L 18.600000000000016 759.0999999999995 L 18.200000000000017 758.7999999999995 L 18.200000000000017 758.7999999999995 L 17.80000000000002 758.4999999999995 L 17.80000000000002 758.4999999999995 L 17.40000000000002 758.1999999999996 L 17.40000000000002 758.1999999999996 L 17.00000000000002 757.8999999999996 L 17.00000000000002 757.8999999999996 L 16.600000000000023 757.5999999999997 L 16.600000000000023 757.5999999999997 L 16.300000000000022 757.2999999999997 L 16.300000000000022 757.2999999999997 L 16.00000000000002 756.9999999999998 L 16.00000000000002 756.9999999999998 L 15.70000000000002 756.6999999999998 L 15.70000000000002 756.6999999999998 L 15.40000000000002 756.3999999999999 L 15.40000000000002 756.3999999999999 L 15.10000000000002 756.0999999999999 L 15.10000000000002 756.0999999999999 L 14.800000000000018 755.8 L 14.800000000000018 755.8 L 14.500000000000018 755.4 L 14.500000000000018 755.4 L 14.200000000000017 755.1 L 14.200000000000017 755.1 L 13.900000000000016 754.7 L 13.900000000000016 754.7 L 13.600000000000016 754.3000000000001 L 13.600000000000016 754.3000000000001 L 13.300000000000015 753.9000000000001 L 13.300000000000015 753.9000000000001 L 13.000000000000014 753.5000000000001 L 13.000000000000014 753.5000000000001 L 12.800000000000015 753.1000000000001 L 12.800000000000015 753.1000000000001 L 12.600000000000016 752.7000000000002 L 12.600000000000016 752.7000000000002 L 12.400000000000016 752.3000000000002 L 12.400000000000016 752.3000000000002 L 12.200000000000017 751.9000000000002 L 12.200000000000017 751.9000000000002 L 12.000000000000018 751.5000000000002 L 12.000000000000018 751.5000000000002 L 11.800000000000018 751.1000000000003 L 11.800000000000018 751.1000000000003 L 11.60000000000002 750.7000000000003 L 11.60000000000002 750.7000000000003 L 11.40000000000002 750.3000000000003 L 11.40000000000002 750.3000000000003 L 11.20000000000002 749.9000000000003 L 11.20000000000002 749.9000000000003 L 11.000000000000021 749.5000000000003 L 11.000000000000021 749.5000000000003 L 11 749 L 11 749 L 10.8 748.6 L 10.8 748.6 L 10.700000000000001 748.2 L 10.700000000000001 748.2 L 10.600000000000001 747.8000000000001 L 10.600000000000001 747.8000000000001 L 10.500000000000002 747.3000000000001 L 10.500000000000002 747.3000000000001 L 10.400000000000002 746.8000000000001 L 10.400000000000002 746.8000000000001 L 10.300000000000002 746.4000000000001 L 10.300000000000002 746.4000000000001 L 10.200000000000003 745.9000000000001 L 10.200000000000003 745.9000000000001 L 10.100000000000003 745.4000000000001 L 10.100000000000003 745.4000000000001 L 10.000000000000004 744.9000000000001 L 10.000000000000004 744.9000000000001 L 10.000000000000004 744.4000000000001 L 10.000000000000004 744.4000000000001 L 10.000000000000004 743.9000000000001 L 10.000000000000004 743.9000000000001 L 10.000000000000004 743.4000000000001 L 10.000000000000004 743.4000000000001 L 10.000000000000004 743 L 10.000000000000004 743 L 10.000000000000004 473.9 C 10.000000000000004 471.2 10.600000000000003 468.59999999999997 11.600000000000003 466.29999999999995 C 11.400000000000004 451.29999999999995 12.100000000000003 436.49999999999994 14.800000000000004 420.79999999999995 C 19.200000000000003 394.59999999999997 53.400000000000006 388.79999999999995 58.6 364.69999999999993 C 62.6 346.19999999999993 70.5 334.0999999999999 79.6 322.29999999999995 C 76.8 316.69999999999993 74.89999999999999 310.29999999999995 79.1 307.49999999999994 L 81.89999999999999 305.69999999999993 C 85.89999999999999 303.5999999999999 88.6 305.69999999999993 90.99999999999999 307.5999999999999 C 94.09999999999998 303.3999999999999 97.29999999999998 298.9999999999999 100.29999999999998 294.19999999999993 C 100.59999999999998 293.69999999999993 100.89999999999998 293.19999999999993 101.19999999999999 292.5999999999999 C 91.29999999999998 292.2999999999999 80.99999999999999 291.5999999999999 69.6 290.4999999999999 C 55.8 289.1999999999999 44.199999999999996 275.2999999999999 46.699999999999996 260.1999999999999 C 52.199999999999996 227.4999999999999 88 224.19999999999987 122.5 222.9999999999999 C 125.7 222.8999999999999 128.8 223.2999999999999 131.4 224.19999999999987 C 166.4 145.39999999999986 207.8 78.19999999999987 249.8 73.39999999999986 C 384.9 57.79999999999986 548.9000000000001 57.79999999999986 684 73.39999999999986 C 726.1 78.29999999999987 767.4 145.49999999999986 802.4 224.19999999999987 C 805 223.29999999999987 808.1 222.89999999999986 811.3 222.9999999999999 C 845.8 224.19999999999987 881.5999999999999 227.4999999999999 887.0999999999999 260.1999999999999 C 889.5999999999999 275.1999999999999 877.9999999999999 289.1999999999999 864.1999999999999 290.4999999999999 C 852.8 291.5999999999999 842.4 292.1999999999999 832.5999999999999 292.5999999999999 C 832.8999999999999 293.0999999999999 833.1999999999999 293.5999999999999 833.4999999999999 294.19999999999993 C 836.4999999999999 299.0999999999999 839.5999999999999 303.49999999999994 842.7999999999998 307.5999999999999 C 845.1999999999998 305.69999999999993 847.8999999999999 303.5999999999999 851.8999999999999 305.69999999999993 L 854.6999999999998 307.49999999999994 C 858.8999999999999 310.29999999999995 856.9999999999998 316.69999999999993 854.1999999999998 322.29999999999995 C 863.1999999999998 333.99999999999994 871.1999999999998 346.19999999999993 875.1999999999998 364.69999999999993 C 880.3999999999999 388.79999999999995 914.5999999999998 394.5999999999999 918.9999999999998 420.79999999999995 C 921.6999999999998 436.49999999999994 922.3999999999997 451.29999999999995 922.1999999999998 466.29999999999995 C 923.2999999999998 468.69999999999993 923.7999999999998 471.19999999999993 923.7999999999998 473.9 L 923.7999999999998 550.4 L 882.9999999999999 550.4 C 870.5999999999999 550.4 859.2999999999998 555.5 851.1999999999999 563.6999999999999 L 851.0999999999999 563.8 C 848.5999999999999 566.3 846.3999999999999 569.0999999999999 844.5999999999999 572.0999999999999 C 839.1999999999999 568.6999999999999 829.1999999999999 565.1999999999999 804.0999999999999 556.6999999999999 C 776.3 538.9999999999999 752.6999999999999 517.1999999999999 731.6999999999999 492.3999999999999 L 730.6999999999999 491.19999999999993 C 708.8 465.19999999999993 689.4 435.99999999999994 670.5999999999999 404.69999999999993 C 665.8 388.69999999999993 659.3999999999999 369.69999999999993 651.3 353.99999999999994 C 639.9 331.99999999999994 624.5 315.69999999999993 603.5 315.69999999999993 C 593.5 315.69999999999993 584.6 317.0999999999999 576.6 319.79999999999995 L 576.6 319.79999999999995 C 548.2 329.19999999999993 534 351.59999999999997 529.1 380.69999999999993 C 525 404.79999999999995 527.8000000000001 433.69999999999993 533.9 462.3999999999999 C 542.3 502.0999999999999 557.4 542.3999999999999 568.8 567.9999999999999 C 538.3 569.5999999999999 509.99999999999994 571.5999999999999 486.29999999999995 573.7999999999998 C 455.19999999999993 576.6999999999998 431.4 579.8999999999999 420.29999999999995 582.7999999999998 C 400.59999999999997 586.7999999999998 385.29999999999995 596.1999999999998 374.29999999999995 608.4999999999999 C 361.99999999999994 622.3999999999999 355.59999999999997 639.8999999999999 354.9 657.6999999999999 C 354.2 675.3 359.2 687.0999999999999 365.09999999999997 696.1999999999999 L 363.7 696.0999999999999 L 363.7 696.0999999999999 L 360.9 695.9999999999999 L 360.9 695.9999999999999 L 358.09999999999997 695.8999999999999 L 358.09999999999997 695.8999999999999 L 355.29999999999995 695.7999999999998 L 355.29999999999995 695.7999999999998 L 352.49999999999994 695.6999999999998 L 352.49999999999994 695.6999999999998 L 349.69999999999993 695.5999999999998 L 349.69999999999993 695.5999999999998 L 346.8999999999999 695.4999999999998 L 346.8999999999999 695.4999999999998 L 344.19999999999993 695.3999999999997 L 344.19999999999993 695.3999999999997 L 341.3999999999999 695.2999999999997 L 341.3999999999999 695.2999999999997 L 338.5999999999999 695.1999999999997 L 338.5999999999999 695.1999999999997 L 335.7999999999999 695.0999999999997 L 335.7999999999999 695.0999999999997 L 333.0999999999999 694.9999999999997 L 333.0999999999999 694.9999999999997 L 330.2999999999999 694.8999999999996 L 330.2999999999999 694.8999999999996 L 327.5999999999999 694.7999999999996 L 327.5999999999999 694.7999999999996 L 324.8999999999999 694.6999999999996 L 324.8999999999999 694.6999999999996 L 322.19999999999993 694.5999999999996 L 322.19999999999993 694.5999999999996 L 319.49999999999994 694.4999999999995 L 319.49999999999994 694.4999999999995 L 316.79999999999995 694.3999999999995 L 316.79999999999995 694.3999999999995 L 314.09999999999997 694.3999999999995 L 314.09999999999997 694.3999999999995 L 311.4 694.2999999999995 L 311.4 694.2999999999995 L 308.7 694.1999999999995 L 308.7 694.1999999999995 L 306 694.1999999999995 L 306 694.1999999999995 L 303.3 694.0999999999995 L 303.3 694.0999999999995 L 300.6 694.0999999999995 L 300.6 694.0999999999995 L 297.90000000000003 694.0999999999995 L 297.90000000000003 694.0999999999995 L 295.20000000000005 694.0999999999995 L 295.20000000000005 694.0999999999995 L 292.50000000000006 694.0999999999995 L 292.50000000000006 694.0999999999995 L 289.6000000000001 694.0999999999995 L 289.6000000000001 694.0999999999995 L 286.80000000000007 694.0999999999995 L 286.80000000000007 694.0999999999995 L 284.1000000000001 694.0999999999995 L 284.1000000000001 694.0999999999995 L 281.50000000000006 694.0999999999995 L 281.50000000000006 694.0999999999995 L 279.00000000000006 694.0999999999995 L 279.00000000000006 694.0999999999995 L 276.6000000000001 694.0999999999995 L 276.6000000000001 694.0999999999995 L 274.2000000000001 694.1999999999995 L 274.2000000000001 694.1999999999995 L 271.9000000000001 694.2999999999995 L 271.9000000000001 694.2999999999995 L 269.7000000000001 694.3999999999995 L 269.7000000000001 694.3999999999995 L 267.6000000000001 694.4999999999995 L 267.6000000000001 694.4999999999995 L 265.6000000000001 694.5999999999996 L 265.6000000000001 694.5999999999996 L 263.6000000000001 694.6999999999996 L 263.6000000000001 694.6999999999996 C 263.00000000000006 694.7999999999996 262.30000000000007 694.7999999999996 261.7000000000001 694.7999999999996 L 261.7000000000001 694.7999999999996 L 259.9000000000001 694.8999999999996 L 259.9000000000001 694.8999999999996 L 258.2000000000001 694.9999999999997 L 258.2000000000001 694.9999999999997 L 256.5000000000001 695.0999999999997 L 256.5000000000001 695.0999999999997 L 254.90000000000012 695.2999999999997 L 254.90000000000012 695.2999999999997 L 253.40000000000012 695.3999999999997 L 253.40000000000012 695.3999999999997 L 251.90000000000012 695.5999999999998 L 251.90000000000012 695.5999999999998 L 250.5000000000001 695.7999999999998 L 250.5000000000001 695.7999999999998 L 249.1000000000001 695.9999999999999 L 249.1000000000001 695.9999999999999 L 247.8000000000001 696.1999999999999 L 247.8000000000001 696.1999999999999 L 246.50000000000009 696.4 L 246.50000000000009 696.4 L 245.3000000000001 696.6 L 245.3000000000001 696.6 L 244.1000000000001 696.8000000000001 L 244.1000000000001 696.8000000000001 L 242.90000000000012 697.0000000000001 L 242.90000000000012 697.0000000000001 L 241.80000000000013 697.2000000000002 L 241.80000000000013 697.2000000000002 L 240.70000000000013 697.4000000000002 L 240.70000000000013 697.4000000000002 L 239.60000000000014 697.6000000000003 L 239.60000000000014 697.6000000000003 L 238.60000000000014 697.8000000000003 L 238.60000000000014 697.8000000000003 L 237.60000000000014 698.1000000000003 L 237.60000000000014 698.1000000000003 L 236.60000000000014 698.3000000000003 L 236.60000000000014 698.3000000000003 L 235.60000000000014 698.5000000000003 L 235.60000000000014 698.5000000000003 L 234.70000000000013 698.7000000000004 L 234.70000000000013 698.7000000000004 L 233.80000000000013 699.0000000000003 L 233.80000000000013 699.0000000000003 L 232.90000000000012 699.2000000000004 L 232.90000000000012 699.2000000000004 L 232.0000000000001 699.4000000000004 L 232.0000000000001 699.4000000000004 L 231.1000000000001 699.6000000000005 L 231.1000000000001 699.6000000000005 L 230.2000000000001 699.9000000000004 L 230.2000000000001 699.9000000000004 L 229.3000000000001 700.1000000000005 L 229.3000000000001 700.1000000000005 L 228.4000000000001 700.3000000000005 L 228.4000000000001 700.3000000000005 L 227.50000000000009 700.5000000000006 L 227.50000000000009 700.5000000000006 L 226.60000000000008 700.7000000000006 L 226.60000000000008 700.7000000000006 L 225.70000000000007 700.9000000000007 L 225.70000000000007 700.9000000000007 L 224.80000000000007 701.1000000000007 L 224.80000000000007 701.1000000000007 L 223.90000000000006 701.3000000000008 L 223.90000000000006 701.3000000000008 L 223.00000000000006 701.5000000000008 L 223.00000000000006 701.5000000000008 L 222.10000000000005 701.6000000000008 L 222.10000000000005 701.6000000000008 L 221.20000000000005 701.8000000000009 L 221.20000000000005 701.8000000000009 L 220.20000000000005 702.0000000000009 L 220.20000000000005 702.0000000000009 L 219.20000000000005 702.1000000000009 L 219.20000000000005 702.1000000000009 L 218.20000000000005 702.200000000001 L 218.20000000000005 702.200000000001 L 217.20000000000005 702.300000000001 L 217.20000000000005 702.300000000001 L 216.10000000000005 702.400000000001 L 216.10000000000005 702.400000000001 L 215.00000000000006 702.500000000001 L 215.00000000000006 702.500000000001 L 213.90000000000006 702.600000000001 L 213.90000000000006 702.600000000001 L 212.70000000000007 702.7000000000011 L 212.70000000000007 702.7000000000011 L 211.50000000000009 702.8000000000011 L 211.50000000000009 702.8000000000011 L 210.20000000000007 702.9000000000011 L 210.20000000000007 702.9000000000011 L 208.90000000000006 703.0000000000011 L 208.90000000000006 703.0000000000011 L 207.50000000000006 703.1000000000012 L 207.50000000000006 703.1000000000012 L 206.10000000000005 703.1000000000012 L 206.10000000000005 703.1000000000012 L 204.60000000000005 703.1000000000012 L 204.60000000000005 703.1000000000012 L 203.10000000000005 703.1000000000012 L 203.10000000000005 703.1000000000012 L 148.10000000000005 703.5000000000011 L 148.10000000000005 743 L 148.10000000000005 743 L 148.10000000000005 743.5 L 148.10000000000005 743.5 L 148.10000000000005 744 L 148.10000000000005 744 L 148.10000000000005 744.5 L 148.10000000000005 744.5 L 148.00000000000006 745 L 148.00000000000006 745 L 147.90000000000006 745.5 L 147.90000000000006 745.5 L 147.80000000000007 746 L 147.80000000000007 746 L 147.70000000000007 746.5 L 147.70000000000007 746.5 L 147.60000000000008 746.9 L 147.60000000000008 746.9 L 147.50000000000009 747.4 L 147.50000000000009 747.4 L 147.4000000000001 747.9 L 147.4000000000001 747.9 L 147.3000000000001 748.3 L 147.3000000000001 748.3 L 147.2000000000001 748.6999999999999 L 147.2000000000001 748.6999999999999 L 147 749 L 147 749 L 146.9 749.4 L 146.9 749.4 L 146.70000000000002 749.8 L 146.70000000000002 749.8 L 146.50000000000003 750.1999999999999 L 146.30000000000004 750.5999999999999 L 146.30000000000004 750.5999999999999 L 146.10000000000005 750.9999999999999 L 146.10000000000005 750.9999999999999 L 145.90000000000006 751.3999999999999 L 145.90000000000006 751.3999999999999 L 145.70000000000007 751.7999999999998 L 145.70000000000007 751.7999999999998 L 145.50000000000009 752.1999999999998 L 145.50000000000009 752.1999999999998 L 145.3000000000001 752.5999999999998 L 145.3000000000001 752.5999999999998 L 145.1000000000001 752.9999999999998 L 145.1000000000001 752.9999999999998 L 144.8000000000001 753.3999999999997 L 144.8000000000001 753.3999999999997 L 144.50000000000009 753.7999999999997 L 144.50000000000009 753.7999999999997 L 144.20000000000007 754.1999999999997 L 144.20000000000007 754.1999999999997 L 143.90000000000006 754.5999999999997 L 143.90000000000006 754.5999999999997 L 143.60000000000005 754.9999999999997 L 143.60000000000005 754.9999999999997 L 143.30000000000004 755.2999999999996 L 143.30000000000004 755.2999999999996 L 143.00000000000003 755.6999999999996 L 143.00000000000003 755.6999999999996 L 142.70000000000002 755.9999999999995 L 142.70000000000002 755.9999999999995 L 142.4 756.2999999999995 L 142.4 756.2999999999995 L 142.1 756.5999999999995 L 142.1 756.5999999999995 L 141.79999999999998 756.8999999999994 L 141.49999999999997 757.1999999999994 L 141.19999999999996 757.4999999999993 L 140.79999999999995 757.7999999999993 L 140.39999999999995 758.0999999999992 L 140.39999999999995 758.0999999999992 L 139.99999999999994 758.3999999999992 L 139.59999999999994 758.6999999999991 L 139.59999999999994 758.6999999999991 L 139.19999999999993 758.9999999999991 L 139.19999999999993 758.9999999999991 L 138.79999999999993 759.1999999999991 L 138.79999999999993 759.1999999999991 L 138.39999999999992 759.4999999999991 L 138.39999999999992 759.4999999999991 L 137.99999999999991 759.6999999999991 L 137.5999999999999 759.8999999999992 L 137.5999999999999 759.8999999999992 L 137.1999999999999 760.0999999999992 L 136.7999999999999 760.2999999999993 L 136.7999999999999 760.2999999999993 L 136.3999999999999 760.4999999999993 L 135.9999999999999 760.6999999999994 L 135.59999999999988 760.7999999999994 L 135.19999999999987 760.9999999999994 L 134.79999999999987 761.0999999999995 L 134.79999999999987 761.0999999999995 L 134.29999999999987 761.1999999999995 L 134.29999999999987 761.1999999999995 L 133.79999999999987 761.2999999999995 L 133.29999999999987 761.3999999999995 L 133.29999999999987 761.3999999999995 L 132.79999999999987 761.4999999999995 L 132.29999999999987 761.5999999999996 L 132.29999999999987 761.5999999999996 L 131.79999999999987 761.6999999999996 L 131.29999999999987 761.7999999999996 L 131.29999999999987 761.7999999999996 L 130.79999999999987 761.7999999999996 L 130.29999999999987 761.7999999999996 L 129.79999999999987 761.7999999999996 L 129.29999999999987 761.7999999999996 L 129.1 761.9 L 129.1 761.9 z M 990 594.9 L 923.7 594.9 L 882.9000000000001 594.9 C 882.7 594.9 882.5000000000001 595 882.4000000000001 595.1 C 882.3000000000001 595.2 882.3000000000001 595.4 882.3000000000001 595.6 L 882.3000000000001 761.9000000000001 L 882.3000000000001 900.1000000000001 C 882.3000000000001 900.3000000000002 882.4000000000001 900.5000000000001 882.5000000000001 900.6000000000001 C 882.6000000000001 900.7000000000002 882.8000000000001 900.7000000000002 883.0000000000001 900.7000000000002 L 990 900.7000000000002 L 990 594.9 L 990 594.9 z M 494.3 929.9 C 513.2 936.3 535.8 938.1999999999999 553.9 938.3 C 586.4 937.6999999999999 631.8 935.5 680.1999999999999 926.1999999999999 C 723.9999999999999 917.6999999999999 770.3 903.1999999999999 811.1999999999999 878.4 C 811.1999999999999 854.4 811.1999999999999 825.4 811.4 761.9 L 811.4 759 L 811.4 755.6 L 811.4 752.2 L 811.4 748.7 L 811.4 745.2 L 811.4 741.6 C 811.5 696 811.6999999999999 650.5 812.1 605.3 C 808.5 604.5999999999999 801.5 602.8 787.4 598 C 785.6999999999999 597.5 784 596.7 782.4 595.7 C 749.6999999999999 575.3000000000001 722.1 549.9000000000001 697.6 520.9000000000001 L 696.6 519.8000000000001 C 672.6 491.30000000000007 651.6 459.50000000000006 631.3000000000001 425.6000000000001 C 630.2 423.80000000000007 629.2 421.9000000000001 628.6 419.7000000000001 C 624.3000000000001 405.2000000000001 618.6 387.6000000000001 611.6 374.1000000000001 C 607.4 366.00000000000006 604 360.00000000000006 603.3000000000001 360.00000000000006 C 598.1 360.00000000000006 593.8000000000001 360.6000000000001 590.3000000000001 361.80000000000007 L 590.3000000000001 361.80000000000007 L 590.2 361.80000000000007 C 580.2 365.1000000000001 574.9000000000001 374.80000000000007 572.7 387.80000000000007 C 569.6 405.80000000000007 572.1 429.1000000000001 577.2 452.9000000000001 C 586.5 496.5000000000001 604.2 540.4000000000001 614.4000000000001 561.1000000000001 C 616.5000000000001 564.8000000000002 618.3000000000001 569.0000000000001 619.4000000000001 573.1000000000001 C 620.6000000000001 577.2000000000002 621.2 581.7000000000002 621.0000000000001 585.7000000000002 C 620.7000000000002 594.9000000000002 616.8000000000001 602.8000000000002 608.6000000000001 607.6000000000001 L 608.6000000000001 607.6000000000001 C 607.8000000000002 608.1000000000001 606.9000000000001 608.5000000000001 606.0000000000001 608.9000000000001 C 603.5000000000001 610.0000000000001 600.7000000000002 610.7 597.7000000000002 610.8000000000001 C 557.4000000000002 612.5000000000001 519.7000000000002 615.0000000000001 489.90000000000015 617.7 C 461.3000000000001 620.3000000000001 440.50000000000017 623 432.20000000000016 625.2 C 431.10000000000014 625.6 430.00000000000017 625.9000000000001 428.8000000000002 626.1 C 419.1000000000002 628.1 411.9000000000002 632.3000000000001 407.20000000000016 637.6 C 402.00000000000017 643.5 399.20000000000016 651.1 398.90000000000015 659 C 398.60000000000014 667.1 402.70000000000016 673 406.20000000000016 677.6 L 407.10000000000014 678.7 C 410.40000000000015 682.9000000000001 413.40000000000015 686.7 415.70000000000016 691.9000000000001 L 415.8000000000002 692.0000000000001 L 415.8000000000002 692.1000000000001 L 415.8000000000002 692.2000000000002 L 415.8000000000002 692.2000000000002 L 415.8000000000002 692.3000000000002 L 415.9000000000002 692.4000000000002 L 415.9000000000002 692.5000000000002 L 415.9000000000002 692.5000000000002 L 415.9000000000002 692.5000000000002 L 416.0000000000002 692.6000000000003 L 416.0000000000002 692.7000000000003 L 416.10000000000025 692.8000000000003 L 416.10000000000025 692.8000000000003 L 416.10000000000025 692.9000000000003 L 416.10000000000025 693.0000000000003 L 416.2000000000003 693.1000000000004 L 416.2000000000003 693.1000000000004 L 416.2000000000003 693.2000000000004 L 416.3000000000003 693.3000000000004 L 416.3000000000003 693.4000000000004 L 416.3000000000003 693.5000000000005 L 416.3000000000003 693.5000000000005 L 416.3000000000003 693.6000000000005 L 416.3000000000003 693.7000000000005 L 416.3000000000003 693.8000000000005 L 416.3000000000003 693.8000000000005 L 416.3000000000003 693.9000000000005 L 416.3000000000003 694.0000000000006 L 416.3000000000003 694.1000000000006 L 416.3000000000003 694.1000000000006 L 416.3000000000003 694.2000000000006 L 416.3000000000003 694.3000000000006 L 416.3000000000003 694.3000000000006 L 416.3000000000003 694.4000000000007 L 416.3000000000003 694.4000000000007 L 416.3000000000003 694.5000000000007 L 416.3000000000003 694.6000000000007 L 416.3000000000003 694.7000000000007 L 416.3000000000003 694.8000000000008 L 416.3000000000003 694.8000000000008 L 416.3000000000003 694.9000000000008 L 416.3000000000003 695.0000000000008 L 416.3000000000003 695.1000000000008 L 416.3000000000003 695.1000000000008 L 416.3000000000003 695.2000000000008 L 416.3000000000003 695.3000000000009 L 416.3000000000003 695.4000000000009 L 416.3000000000003 695.5000000000009 L 416.3000000000003 695.6000000000009 L 416.3000000000003 695.700000000001 L 416.3000000000003 695.700000000001 L 416.3000000000003 695.800000000001 L 416.3000000000003 695.900000000001 L 416.3000000000003 696.000000000001 L 416.3000000000003 696.100000000001 L 416.3000000000003 696.100000000001 L 416.3000000000003 696.2000000000011 L 416.3000000000003 696.3000000000011 L 416.3000000000003 696.4000000000011 L 416.3000000000003 696.4000000000011 L 416.3000000000003 696.4000000000011 L 416.3000000000003 696.5000000000011 L 416.3000000000003 696.6000000000012 L 416.3000000000003 696.7000000000012 L 416.3000000000003 696.7000000000012 L 416.3000000000003 696.8000000000012 L 416.4000000000003 697.0000000000013 L 416.4000000000003 697.0000000000013 L 416.4000000000003 697.0000000000013 L 416.4000000000003 697.1000000000013 L 416.4000000000003 697.2000000000013 L 416.4000000000003 697.3000000000013 L 416.4000000000003 697.3000000000013 L 416.4000000000003 697.4000000000013 L 416.4000000000003 697.5000000000014 L 416.4000000000003 697.6000000000014 L 416.4000000000003 697.7000000000014 L 416.4000000000003 697.8000000000014 L 416.4000000000003 697.9000000000015 L 416.4000000000003 697.9000000000015 L 416.4000000000003 698.0000000000015 L 416.4000000000003 698.1000000000015 C 417.20000000000033 702.9000000000015 416.4000000000003 708.1000000000015 413.9000000000003 712.7000000000015 C 409.20000000000033 721.1000000000015 407.00000000000034 728.6000000000015 406.4000000000003 735.4000000000016 C 405.8000000000003 742.5000000000016 406.8000000000003 750.0000000000016 408.20000000000033 757.4000000000016 C 409.50000000000034 764.1000000000016 414.4000000000003 769.3000000000015 418.4000000000003 773.5000000000016 C 421.50000000000034 776.9000000000016 424.4000000000003 779.9000000000016 426.70000000000033 783.4000000000016 L 426.6000000000003 783.4000000000016 C 429.70000000000033 788.0000000000016 431.1000000000003 793.8000000000015 430.0000000000003 799.7000000000015 C 427.8000000000003 811.5000000000015 426.7000000000003 822.9000000000016 429.40000000000026 832.1000000000015 C 431.7000000000003 839.9000000000015 437.5000000000003 847.4000000000015 449.2000000000003 854.1000000000015 C 453.7000000000003 856.2000000000015 457.60000000000025 859.9000000000015 459.90000000000026 864.8000000000015 C 464.0000000000003 873.4000000000016 464.60000000000025 883.6000000000015 465.2000000000003 894.6000000000015 C 465.60000000000025 902.0000000000015 466.10000000000025 910.0000000000015 467.60000000000025 914.5000000000015 C 474.4 921.2 483.6 926.2 494.3 929.9 L 494.3 929.9 z M 433.8 100.4 C 278.3 101.7 198.60000000000002 117.5 169.2 279.8 C 173.1 279.5 177.1 279.40000000000003 181.2 279.1 C 263.79999999999995 274.8 345.9 272.6 433.79999999999995 272.20000000000005 L 499.9 272.20000000000005 C 587.8 272.6 669.9 274.80000000000007 752.5 279.1 C 756.5 279.3 760.5 279.5 764.5 279.8 C 735.1 117.5 655.4 101.70000000000002 499.9 100.4 L 433.8 100.4 L 433.8 100.4 z M 235.1 504.4 C 225.29999999999998 485.9 208.2 469.2 204.6 445.29999999999995 C 203 434.69999999999993 197.29999999999998 429.59999999999997 189.9 426.99999999999994 L 93.2 393.3999999999999 C 72 385.99999999999994 65.80000000000001 401.5999999999999 63.7 410.3999999999999 C 57.7 436.0999999999999 58.900000000000006 458.49999999999994 73.60000000000001 474.69999999999993 C 102.3 506.7 247 527 235.1 504.4 z" stroke-linecap="round" />
</g>
</svg>