<?xml version="1.0" encoding="UTF-8" standalone="no"?>
<!-- Generator: Adobe Illustrator 16.0.0, SVG Export Plug-In . SVG Version: 6.00 Build 0)  -->

<svg
   version="1.1"
   id="Capa_1"
   x="0px"
   y="0px"
   width="927.198px"
   height="927.197px"
   viewBox="0 0 927.198 927.197"
   style="enable-background:new 0 0 927.198 927.197;"
   xml:space="preserve"
   sodipodi:docname="car-key.svg"
   inkscape:version="1.2.1 (9c6d41e410, 2022-07-14)"
   xmlns:inkscape="http://www.inkscape.org/namespaces/inkscape"
   xmlns:sodipodi="http://sodipodi.sourceforge.net/DTD/sodipodi-0.dtd"
   xmlns="http://www.w3.org/2000/svg"
   xmlns:svg="http://www.w3.org/2000/svg"><defs
   id="defs5720" /><sodipodi:namedview
   id="namedview5718"
   pagecolor="#ffffff"
   bordercolor="#000000"
   borderopacity="0.25"
   inkscape:showpageshadow="2"
   inkscape:pageopacity="0.0"
   inkscape:pagecheckerboard="0"
   inkscape:deskcolor="#d1d1d1"
   showgrid="false"
   inkscape:zoom="0.90272076"
   inkscape:cx="464.70627"
   inkscape:cy="463.04463"
   inkscape:window-width="1920"
   inkscape:window-height="1017"
   inkscape:window-x="-8"
   inkscape:window-y="-8"
   inkscape:window-maximized="1"
   inkscape:current-layer="Capa_1" />
<g
   id="g5685">
	<g
   id="g5683">
		<path
   d="M833.52,209.923l35.354,35.355l15.219-15.218c26.319-26.32,26.319-69.146,0-95.468l-91.49-91.49    c-12.75-12.749-29.702-19.771-47.732-19.771c-18.031,0-34.982,7.021-47.732,19.771l-15.219,15.219l35.355,35.355l15.219-15.219    c3.307-3.306,7.702-5.127,12.378-5.127c4.677,0,9.072,1.821,12.378,5.127l91.489,91.489c6.825,6.825,6.825,17.932,0,24.757    L833.52,209.923z"
   id="path5675" />
		<path
   d="M56.352,738.253C19.738,774.867-22.547,876.515,14.068,913.13c28.087,28.087,94.438,9.746,140.35-16.849    c3.323-1.926,6.224-6.597,6.425-10.432c1.565-29.888,5.461-74.824,5.461-74.824c0.013-1.5,0.896-2.383,2.396-2.396l80.602-1.767    c2.064-0.045,3.727-1.709,3.77-3.773l1.687-80.521c0.013-1.5,0.896-2.383,2.397-2.396c0,0,52.667-0.465,74.189-0.659    c4.97-0.045,11.85-2.931,15.364-6.444c16.873-16.869,64.503-64.495,108.976-108.966L323.093,471.511L56.352,738.253z"
   id="path5677" />
		<path
   d="M851.197,262.956l-35.354-35.355L699.597,111.355L664.242,76l-62.757-62.756C592.656,4.415,581.083,0,569.511,0    c-11.572,0-23.146,4.415-31.975,13.244L304.464,246.316c-47.278,47.278-47.278,123.932,0,171.209l36.307,36.308l132.591,132.591    l36.31,36.309c23.639,23.64,54.621,35.459,85.604,35.459s61.966-11.819,85.604-35.459l233.073-233.071    c17.659-17.659,17.659-46.29,0-63.948L851.197,262.956z M575.087,494.239c-6.336,6.337-14.178,10.612-22.715,12.523    c-3.338,0.747-6.777,1.145-10.281,1.145c-12.467,0-24.186-4.854-32.998-13.669l-76.137-76.136    c-8.813-8.812-13.668-20.532-13.668-32.998c0-3.56,0.409-7.055,1.181-10.441c1.928-8.476,6.19-16.258,12.487-22.555    c8.813-8.814,20.532-13.668,32.997-13.668c12.466,0,24.186,4.854,32.998,13.668l3.092,3.092l69.621,69.622l3.423,3.423    c8.814,8.812,13.669,20.531,13.669,32.998C588.756,473.707,583.903,485.426,575.087,494.239z M804.553,355.884l-45.319,45.319    c-29.295,29.295-76.792,29.295-106.087,0L525.994,274.05c-29.295-29.295-29.295-76.792,0-106.087l45.319-45.319    c10.942-10.942,28.682-10.942,39.625,0l10.539,10.54L794.014,305.72l10.54,10.54C815.495,327.201,815.495,344.942,804.553,355.884    z"
   id="path5679" />
		<path
   d="M477.74,373.321c-3.146-3.147-7.333-4.882-11.785-4.882c-4.45,0-8.637,1.733-11.783,4.882    c-3.147,3.147-4.882,7.333-4.882,11.783c0,4.452,1.733,8.639,4.882,11.785l76.136,76.136c3.146,3.147,7.333,4.882,11.785,4.882    c4.45,0,8.637-1.733,11.783-4.882c3.147-3.147,4.882-7.333,4.882-11.783c0-4.452-1.733-8.639-4.882-11.785L477.74,373.321z"
   id="path5681" />
	</g>
</g>
<g
   id="g5687">
</g>
<g
   id="g5689">
</g>
<g
   id="g5691">
</g>
<g
   id="g5693">
</g>
<g
   id="g5695">
</g>
<g
   id="g5697">
</g>
<g
   id="g5699">
</g>
<g
   id="g5701">
</g>
<g
   id="g5703">
</g>
<g
   id="g5705">
</g>
<g
   id="g5707">
</g>
<g
   id="g5709">
</g>
<g
   id="g5711">
</g>
<g
   id="g5713">
</g>
<g
   id="g5715">
</g>
<path
   style="fill:#00ffff;fill-opacity:1;stroke-width:1.10776"
   d="m 574.71356,655.88307 c -16.92314,-3.22209 -31.84112,-9.31221 -46.74204,-19.08202 -8.12299,-5.32584 -25.99875,-22.7131 -120.43665,-117.14544 -95.8014,-95.79576 -111.77119,-112.22417 -117.31326,-120.68232 -7.5964,-11.59342 -13.74048,-25.39416 -17.09417,-38.39667 -3.11224,-12.06637 -4.17983,-32.86973 -2.33585,-45.51713 2.55448,-17.5206 10.87996,-38.54603 20.75453,-52.41416 5.68174,-7.97959 250.27192,-252.721165 255.8652,-256.0235709 5.70696,-3.3695244 15.77859,-6.06787796 22.64842,-6.06787796 7.9946,0 18.81843,3.86034536 26.08752,9.30416986 3.56148,2.667197 77.56952,76.064967 164.4623,163.106159 172.50784,172.80247 162.47448,161.99192 165.21957,178.01763 1.44882,8.45818 0.10568,17.86504 -3.718,26.04024 -1.87392,4.00649 -29.72874,32.5253 -124.94772,127.92621 -67.3949,67.52366 -125.32901,124.94754 -128.74245,127.60863 -12.66504,9.87354 -27.78346,17.15625 -45.01481,21.68415 -11.23919,2.95333 -37.20601,3.82897 -48.69259,1.642 z m -12.1503,-152.23386 c 9.48739,-4.67063 17.28911,-12.4797 21.9727,-21.99344 3.52939,-7.1692 3.68581,-8.02855 3.68581,-20.24949 0,-12.13362 -0.18016,-13.14469 -3.65581,-20.5169 -3.38383,-7.17749 -6.88609,-10.98463 -47.07989,-51.17842 -40.1938,-40.19381 -44.00094,-43.69606 -51.17843,-47.0799 -7.3722,-3.47565 -8.38328,-3.6558 -20.5169,-3.6558 -12.22093,0 -13.08029,0.15641 -20.24949,3.6858 -9.52604,4.68965 -17.32389,12.4875 -22.01355,22.01355 -3.52938,7.16919 -3.6858,8.02855 -3.6858,20.24948 0,12.13362 0.18016,13.1447 3.6558,20.5169 3.38642,7.18296 6.85548,10.94987 47.0799,51.12208 51.55144,51.48453 51.69722,51.5859 73.39781,51.03479 10.06841,-0.25569 11.85908,-0.63608 18.58785,-3.94865 z m 158.91362,-81.6229 c 5.10616,-1.01231 12.7688,-3.75544 19.0622,-6.82402 10.30359,-5.0239 11.11927,-5.72134 38.9919,-33.34062 20.29331,-20.10883 29.17423,-29.68048 30.92695,-33.33238 3.38249,-7.04756 3.43699,-17.70081 0.12543,-24.51877 C 808.80435,320.34782 781.49632,292.40461 707.05645,218.0756 596.94164,108.12474 603.68094,114.12477 590.43729,114.249 c -11.40956,0.10701 -13.98719,2.01685 -45.10194,33.41704 -27.50532,27.75763 -28.33884,28.73082 -33.39631,38.9919 -11.22139,22.76704 -11.23705,45.77071 -0.0467,68.68126 l 5.14015,10.52375 72.15084,72.15988 72.15084,72.1599 10.52374,5.1411 c 16.38501,8.00446 32.24531,10.14685 49.61907,6.70248 z"
   id="path6085" /><path
   style="fill:#00ffff;fill-opacity:1;stroke-width:1.10776"
   d="m 535.04918,475.62119 c -3.45149,-1.87427 -81.3681,-79.77844 -83.15467,-83.14139 -3.70772,-6.97924 -1.11183,-16.403 5.76783,-20.93868 3.79921,-2.50477 11.46328,-2.75557 15.6841,-0.51325 3.60694,1.91619 81.44618,79.91526 83.18797,83.35878 0.67314,1.3308 1.22061,4.571 1.21659,7.20045 -0.0133,8.72301 -6.70307,15.31014 -15.50137,15.26357 -2.74171,-0.0145 -5.98191,-0.56778 -7.20045,-1.22948 z"
   id="path6087" /><path
   style="fill:#00ffff;fill-opacity:1;stroke-width:1.10776"
   d="m 851.36056,227.16515 -17.12505,-17.18039 9.48758,-9.72483 c 10.19331,-10.4482 11.75514,-13.81659 10.28757,-22.18714 -0.64175,-3.66034 -6.67171,-10.0975 -50.73032,-54.15611 -44.05861,-44.058612 -50.49576,-50.088568 -54.1561,-50.730321 -8.37055,-1.467573 -11.73895,0.09426 -22.18715,10.287576 L 717.21227,92.96152 700.01742,75.83646 682.82256,58.7114 694.90923,46.94015 c 9.36105,-9.116756 13.93277,-12.679755 20.2731,-15.799977 19.4,-9.547177 39.77201,-9.538143 59.55436,0.02641 8.07906,3.906135 10.84596,6.4808 62.82946,58.464297 51.96884,51.96884 54.55911,54.75236 58.46089,62.82255 4.25103,8.79258 7.36687,21.83644 7.33386,30.70174 -0.0313,8.42051 -2.99905,20.11075 -7.35719,28.98131 -3.20482,6.52306 -6.59969,10.87595 -15.79998,20.25864 l -11.71811,11.95043 z"
   id="path6089" /><path
   style="fill:#00ffff;fill-opacity:1;stroke-width:1.10776"
   d="M 39.55667,924.95366 C 18.381396,920.35557 6.4848846,908.21468 2.1483748,886.77693 -4.2595493,855.09901 11.9968,801.02274 40.782007,758.26328 45.031552,751.95071 79.651934,716.62624 184.91175,611.20225 l 138.53675,-138.7528 65.64365,65.63669 65.64364,65.6367 -55.11086,55.18944 c -30.63825,30.68193 -57.07853,56.26319 -59.54191,57.60744 -4.28765,2.33974 -5.73253,2.42902 -44.64657,2.75842 -29.86869,0.25285 -40.34005,0.68037 -40.69958,1.66164 -0.26624,0.72667 -0.86404,19.61721 -1.32846,41.97899 -0.62418,30.05437 -1.20483,41.0182 -2.22643,42.0398 -1.01847,1.01847 -12.23678,1.63384 -42.64595,2.33926 -22.69516,0.52647 -41.59396,1.29904 -41.99733,1.71681 -0.71743,0.74302 -3.09261,28.06955 -5.40176,62.14724 -0.81737,12.06251 -1.68511,17.97089 -2.95503,20.1207 -2.1521,3.64321 -15.15605,11.09385 -31.34313,17.9581 -34.290286,14.54106 -66.21315,20.28797 -87.28211,15.71298 z"
   id="path6091" /></svg>
