<?xml version="1.0" encoding="UTF-8" standalone="no"?>
<!-- Generator: Adobe Illustrator 16.0.0, SVG Export Plug-In . SVG Version: 6.00 Build 0)  -->

<svg
   version="1.1"
   id="Capa_1"
   x="0px"
   y="0px"
   width="927.198px"
   height="927.197px"
   viewBox="0 0 927.198 927.197"
   style="enable-background:new 0 0 927.198 927.197;"
   xml:space="preserve"
   sodipodi:docname="g-car-key.svg"
   inkscape:version="1.2.1 (9c6d41e410, 2022-07-14)"
   xmlns:inkscape="http://www.inkscape.org/namespaces/inkscape"
   xmlns:sodipodi="http://sodipodi.sourceforge.net/DTD/sodipodi-0.dtd"
   xmlns="http://www.w3.org/2000/svg"
   xmlns:svg="http://www.w3.org/2000/svg"><defs
   id="defs5720" /><sodipodi:namedview
   id="namedview5718"
   pagecolor="#ffffff"
   bordercolor="#000000"
   borderopacity="0.25"
   inkscape:showpageshadow="2"
   inkscape:pageopacity="0.0"
   inkscape:pagecheckerboard="0"
   inkscape:deskcolor="#d1d1d1"
   showgrid="false"
   inkscape:zoom="0.90272076"
   inkscape:cx="464.15239"
   inkscape:cy="464.15239"
   inkscape:window-width="1920"
   inkscape:window-height="1017"
   inkscape:window-x="-8"
   inkscape:window-y="-8"
   inkscape:window-maximized="1"
   inkscape:current-layer="Capa_1" />
<g
   id="g5685">
	<g
   id="g5683">
		<path
   d="M833.52,209.923l35.354,35.355l15.219-15.218c26.319-26.32,26.319-69.146,0-95.468l-91.49-91.49    c-12.75-12.749-29.702-19.771-47.732-19.771c-18.031,0-34.982,7.021-47.732,19.771l-15.219,15.219l35.355,35.355l15.219-15.219    c3.307-3.306,7.702-5.127,12.378-5.127c4.677,0,9.072,1.821,12.378,5.127l91.489,91.489c6.825,6.825,6.825,17.932,0,24.757    L833.52,209.923z"
   id="path5675" />
		<path
   d="M56.352,738.253C19.738,774.867-22.547,876.515,14.068,913.13c28.087,28.087,94.438,9.746,140.35-16.849    c3.323-1.926,6.224-6.597,6.425-10.432c1.565-29.888,5.461-74.824,5.461-74.824c0.013-1.5,0.896-2.383,2.396-2.396l80.602-1.767    c2.064-0.045,3.727-1.709,3.77-3.773l1.687-80.521c0.013-1.5,0.896-2.383,2.397-2.396c0,0,52.667-0.465,74.189-0.659    c4.97-0.045,11.85-2.931,15.364-6.444c16.873-16.869,64.503-64.495,108.976-108.966L323.093,471.511L56.352,738.253z"
   id="path5677" />
		<path
   d="M851.197,262.956l-35.354-35.355L699.597,111.355L664.242,76l-62.757-62.756C592.656,4.415,581.083,0,569.511,0    c-11.572,0-23.146,4.415-31.975,13.244L304.464,246.316c-47.278,47.278-47.278,123.932,0,171.209l36.307,36.308l132.591,132.591    l36.31,36.309c23.639,23.64,54.621,35.459,85.604,35.459s61.966-11.819,85.604-35.459l233.073-233.071    c17.659-17.659,17.659-46.29,0-63.948L851.197,262.956z M575.087,494.239c-6.336,6.337-14.178,10.612-22.715,12.523    c-3.338,0.747-6.777,1.145-10.281,1.145c-12.467,0-24.186-4.854-32.998-13.669l-76.137-76.136    c-8.813-8.812-13.668-20.532-13.668-32.998c0-3.56,0.409-7.055,1.181-10.441c1.928-8.476,6.19-16.258,12.487-22.555    c8.813-8.814,20.532-13.668,32.997-13.668c12.466,0,24.186,4.854,32.998,13.668l3.092,3.092l69.621,69.622l3.423,3.423    c8.814,8.812,13.669,20.531,13.669,32.998C588.756,473.707,583.903,485.426,575.087,494.239z M804.553,355.884l-45.319,45.319    c-29.295,29.295-76.792,29.295-106.087,0L525.994,274.05c-29.295-29.295-29.295-76.792,0-106.087l45.319-45.319    c10.942-10.942,28.682-10.942,39.625,0l10.539,10.54L794.014,305.72l10.54,10.54C815.495,327.201,815.495,344.942,804.553,355.884    z"
   id="path5679" />
		<path
   d="M477.74,373.321c-3.146-3.147-7.333-4.882-11.785-4.882c-4.45,0-8.637,1.733-11.783,4.882    c-3.147,3.147-4.882,7.333-4.882,11.783c0,4.452,1.733,8.639,4.882,11.785l76.136,76.136c3.146,3.147,7.333,4.882,11.785,4.882    c4.45,0,8.637-1.733,11.783-4.882c3.147-3.147,4.882-7.333,4.882-11.783c0-4.452-1.733-8.639-4.882-11.785L477.74,373.321z"
   id="path5681" />
	</g>
</g>
<g
   id="g5687">
</g>
<g
   id="g5689">
</g>
<g
   id="g5691">
</g>
<g
   id="g5693">
</g>
<g
   id="g5695">
</g>
<g
   id="g5697">
</g>
<g
   id="g5699">
</g>
<g
   id="g5701">
</g>
<g
   id="g5703">
</g>
<g
   id="g5705">
</g>
<g
   id="g5707">
</g>
<g
   id="g5709">
</g>
<g
   id="g5711">
</g>
<g
   id="g5713">
</g>
<g
   id="g5715">
</g>
<path
   style="fill:#00ffff;fill-opacity:1;stroke-width:1.10776"
   d="m 574.71356,655.88307 c -16.92314,-3.22209 -31.84112,-9.31221 -46.74204,-19.08202 -8.12299,-5.32584 -25.99875,-22.7131 -120.43665,-117.14544 -95.8014,-95.79576 -111.77119,-112.22417 -117.31326,-120.68232 -7.5964,-11.59342 -13.74048,-25.39416 -17.09417,-38.39667 -3.11224,-12.06637 -4.17983,-32.86973 -2.33585,-45.51713 2.55448,-17.5206 10.87996,-38.54603 20.75453,-52.41416 5.68174,-7.97959 250.27192,-252.721165 255.8652,-256.0235709 5.70696,-3.3695244 15.77859,-6.06787796 22.64842,-6.06787796 7.9946,0 18.81843,3.86034536 26.08752,9.30416986 3.56148,2.667197 77.56952,76.064967 164.4623,163.106159 172.50784,172.80247 162.47448,161.99192 165.21957,178.01763 1.44882,8.45818 0.10568,17.86504 -3.718,26.04024 -1.87392,4.00649 -29.72874,32.5253 -124.94772,127.92621 -67.3949,67.52366 -125.32901,124.94754 -128.74245,127.60863 -12.66504,9.87354 -27.78346,17.15625 -45.01481,21.68415 -11.23919,2.95333 -37.20601,3.82897 -48.69259,1.642 z m -12.1503,-152.23386 c 9.48739,-4.67063 17.28911,-12.4797 21.9727,-21.99344 3.52939,-7.1692 3.68581,-8.02855 3.68581,-20.24949 0,-12.13362 -0.18016,-13.14469 -3.65581,-20.5169 -3.38383,-7.17749 -6.88609,-10.98463 -47.07989,-51.17842 -40.1938,-40.19381 -44.00094,-43.69606 -51.17843,-47.0799 -7.3722,-3.47565 -8.38328,-3.6558 -20.5169,-3.6558 -12.22093,0 -13.08029,0.15641 -20.24949,3.6858 -9.52604,4.68965 -17.32389,12.4875 -22.01355,22.01355 -3.52938,7.16919 -3.6858,8.02855 -3.6858,20.24948 0,12.13362 0.18016,13.1447 3.6558,20.5169 3.38642,7.18296 6.85548,10.94987 47.0799,51.12208 51.55144,51.48453 51.69722,51.5859 73.39781,51.03479 10.06841,-0.25569 11.85908,-0.63608 18.58785,-3.94865 z m 158.91362,-81.6229 c 5.10616,-1.01231 12.7688,-3.75544 19.0622,-6.82402 10.30359,-5.0239 11.11927,-5.72134 38.9919,-33.34062 20.29331,-20.10883 29.17423,-29.68048 30.92695,-33.33238 3.38249,-7.04756 3.43699,-17.70081 0.12543,-24.51877 C 808.80435,320.34782 781.49632,292.40461 707.05645,218.0756 596.94164,108.12474 603.68094,114.12477 590.43729,114.249 c -11.40956,0.10701 -13.98719,2.01685 -45.10194,33.41704 -27.50532,27.75763 -28.33884,28.73082 -33.39631,38.9919 -11.22139,22.76704 -11.23705,45.77071 -0.0467,68.68126 l 5.14015,10.52375 72.15084,72.15988 72.15084,72.1599 10.52374,5.1411 c 16.38501,8.00446 32.24531,10.14685 49.61907,6.70248 z"
   id="path6085" /><path
   style="fill:#00ffff;fill-opacity:1;stroke-width:1.10776"
   d="m 535.04918,475.62119 c -3.45149,-1.87427 -81.3681,-79.77844 -83.15467,-83.14139 -3.70772,-6.97924 -1.11183,-16.403 5.76783,-20.93868 3.79921,-2.50477 11.46328,-2.75557 15.6841,-0.51325 3.60694,1.91619 81.44618,79.91526 83.18797,83.35878 0.67314,1.3308 1.22061,4.571 1.21659,7.20045 -0.0133,8.72301 -6.70307,15.31014 -15.50137,15.26357 -2.74171,-0.0145 -5.98191,-0.56778 -7.20045,-1.22948 z"
   id="path6087" /><path
   style="fill:#00ffff;fill-opacity:1;stroke-width:1.10776"
   d="m 851.36056,227.16515 -17.12505,-17.18039 9.48758,-9.72483 c 10.19331,-10.4482 11.75514,-13.81659 10.28757,-22.18714 -0.64175,-3.66034 -6.67171,-10.0975 -50.73032,-54.15611 -44.05861,-44.058612 -50.49576,-50.088568 -54.1561,-50.730321 -8.37055,-1.467573 -11.73895,0.09426 -22.18715,10.287576 L 717.21227,92.96152 700.01742,75.83646 682.82256,58.7114 694.90923,46.94015 c 9.36105,-9.116756 13.93277,-12.679755 20.2731,-15.799977 19.4,-9.547177 39.77201,-9.538143 59.55436,0.02641 8.07906,3.906135 10.84596,6.4808 62.82946,58.464297 51.96884,51.96884 54.55911,54.75236 58.46089,62.82255 4.25103,8.79258 7.36687,21.83644 7.33386,30.70174 -0.0313,8.42051 -2.99905,20.11075 -7.35719,28.98131 -3.20482,6.52306 -6.59969,10.87595 -15.79998,20.25864 l -11.71811,11.95043 z"
   id="path6089" /><path
   style="fill:#00ffff;fill-opacity:1;stroke-width:1.10776"
   d="M 39.55667,924.95366 C 18.381396,920.35557 6.4848846,908.21468 2.1483748,886.77693 -4.2595493,855.09901 11.9968,801.02274 40.782007,758.26328 45.031552,751.95071 79.651934,716.62624 184.91175,611.20225 l 138.53675,-138.7528 65.64365,65.63669 65.64364,65.6367 -55.11086,55.18944 c -30.63825,30.68193 -57.07853,56.26319 -59.54191,57.60744 -4.28765,2.33974 -5.73253,2.42902 -44.64657,2.75842 -29.86869,0.25285 -40.34005,0.68037 -40.69958,1.66164 -0.26624,0.72667 -0.86404,19.61721 -1.32846,41.97899 -0.62418,30.05437 -1.20483,41.0182 -2.22643,42.0398 -1.01847,1.01847 -12.23678,1.63384 -42.64595,2.33926 -22.69516,0.52647 -41.59396,1.29904 -41.99733,1.71681 -0.71743,0.74302 -3.09261,28.06955 -5.40176,62.14724 -0.81737,12.06251 -1.68511,17.97089 -2.95503,20.1207 -2.1521,3.64321 -15.15605,11.09385 -31.34313,17.9581 -34.290286,14.54106 -66.21315,20.28797 -87.28211,15.71298 z"
   id="path6091" /><path
   style="fill:#63b11d;stroke:#afb11d;stroke-width:1.10776;stroke-opacity:1;fill-opacity:1"
   d="m 494.48492,435.07363 c -28.09076,-28.05296 -41.30579,-42.01442 -42.50413,-44.90488 -2.36828,-5.71246 -0.73596,-11.6258 4.47126,-16.19779 3.21849,-2.82587 4.84434,-3.42448 9.30106,-3.42448 7.41511,0 9.05229,1.41689 53.51045,46.31063 l 37.38698,37.75327 v 5.70785 c 0,10.19157 -5.3128,15.46567 -15.57916,15.46567 h -5.82134 z"
   id="path3207" /><path
   style="fill:#63b11d;fill-opacity:1;stroke:#afb11d;stroke-width:1.10776;stroke-opacity:1"
   d="M 571.60533,654.65248 C 549.80384,649.1857 533.52507,641.06422 518.77502,628.29543 505.2899,616.62168 310.45765,421.8057 298.92521,408.46399 c -9.76733,-11.29969 -17.08215,-24.09654 -22.30904,-39.02837 -4.30027,-12.28472 -5.77264,-22.2679 -5.74906,-38.98077 0.0285,-20.18836 3.28535,-33.17802 13.55641,-54.06816 l 5.71886,-11.63151 39.49193,-40.43332 C 351.35487,202.08353 408.92189,144.31182 457.56102,95.940294 558.31796,-4.2623271 550.58883,2.2155245 569.38981,2.2155245 c 10.32675,0 11.60323,0.2544445 18.83196,3.7538229 7.36787,3.5667356 15.32394,11.3237256 159.63516,155.6405926 83.53445,83.53773 156.48318,157.12096 162.10827,163.51829 14.17368,16.11948 14.95329,17.79047 14.98807,32.1251 0.0233,9.58123 -0.38869,12.53314 -2.33701,16.74657 -3.15741,6.82824 -43.03673,47.80747 -160.62844,165.05877 -97.84912,97.56585 -98.59079,98.24195 -117.20317,106.8414 -16.23629,7.50163 -25.63293,9.49049 -47.1469,9.97893 -14.7719,0.33538 -20.96777,0.0434 -26.03242,-1.22652 z m -8.8621,-150.54972 c 8.00035,-3.91478 17.60265,-13.30582 22.15986,-21.67229 3.22164,-5.91454 3.31868,-6.52998 3.31868,-21.04748 0,-14.19289 -0.156,-15.25077 -3.06181,-20.76423 -3.55461,-6.74448 -23.51771,-28.30797 -54.16358,-58.50575 -30.23737,-29.79526 -37.71574,-36.54532 -44.37685,-40.05504 -5.56204,-2.93062 -6.58853,-3.08271 -20.80549,-3.08271 -14.51751,0 -15.13295,0.097 -21.04749,3.31867 -7.79436,4.24558 -17.36039,13.81162 -21.60597,21.60598 -3.22164,5.91454 -3.31868,6.52998 -3.31868,21.04748 0,14.20573 0.15391,15.24687 3.07293,20.78618 3.39318,6.43912 24.79826,29.61582 52.49099,56.8355 30.47733,29.95673 39.89736,38.33926 47.21865,42.01811 6.73274,3.3831 7.18157,3.45237 20.17904,3.11401 12.07909,-0.31447 13.90018,-0.6431 19.93972,-3.59843 z m 168.56318,-84.46047 c 4.97497,-1.8115 11.94507,-5.00013 15.48909,-7.08582 8.12824,-4.78358 61.03772,-57.22164 63.90442,-63.33502 2.74023,-5.8437 3.46792,-13.99944 1.85062,-20.74112 -1.31363,-5.47582 -3.02985,-7.45358 -35.43281,-40.83254 -42.6795,-43.96503 -150.10827,-150.69363 -163.41743,-162.35237 -11.45198,-10.03185 -14.81628,-11.74979 -23.00993,-11.74979 -9.64286,0 -15.2931,3.66075 -34.78715,22.53833 -27.9763,27.09159 -39.92164,40.73927 -44.8425,51.23301 -5.519,11.76926 -7.55002,20.82991 -7.55002,33.6816 0,13.57335 2.12499,22.3132 8.7535,36.00228 l 5.36401,11.07762 71.29906,71.13472 71.29904,71.13472 10.61904,5.00836 c 15.09404,7.11896 21.03041,8.37383 37.56862,7.94158 12.04973,-0.31493 15.02109,-0.78941 22.89244,-3.65556 z"
   id="path3278" /><path
   style="fill:#63b11d;fill-opacity:1;stroke:#afb11d;stroke-width:1.10776;stroke-opacity:1"
   d="M 37.234467,923.85749 C 18.498969,918.58978 7.6982709,907.26364 3.1914244,888.15829 1.0436056,879.05331 1.6809327,856.41956 4.4472079,843.56097 9.4468218,820.32106 25.063333,783.31361 38.27879,763.38809 45.300088,752.80179 98.546477,698.25491 231.70742,565.23518 l 91.76517,-91.66784 65.13151,65.13852 65.1315,65.13852 -56.43949,56.08968 c -47.78053,47.4844 -57.09366,56.25372 -60.70346,57.15884 -2.34518,0.58804 -21.43247,1.36371 -42.41619,1.72374 -20.98371,0.36001 -38.60057,1.10293 -39.14857,1.65093 -0.548,0.548 -1.4432,17.62597 -1.98935,37.95105 -0.54614,20.32509 -1.27455,39.04062 -1.61868,41.59009 l -0.62568,4.6354 -5.75877,0.63317 c -3.16732,0.34825 -22.17905,1.14022 -42.24829,1.75993 -20.06924,0.61971 -36.65651,1.29372 -36.86058,1.4978 -0.20409,0.20407 -1.34604,12.28098 -2.53769,26.83755 -3.78176,46.1961 -4.44025,52.67312 -5.56959,54.78332 -4.18048,7.81127 -44.51574,25.65806 -72.628729,32.13539 -13.363909,3.0791 -39.535253,3.93383 -47.956064,1.56622 z"
   id="path3280" /><path
   style="fill:#63b11d;fill-opacity:1;stroke:#afb11d;stroke-width:1.10776;stroke-opacity:1"
   d="m 851.94932,226.67299 -16.53631,-16.61926 7.47863,-7.92774 c 9.74471,-10.32989 11.7377,-13.72599 11.74281,-20.00983 0.003,-3.97401 -0.77274,-6.16812 -3.5252,-9.96779 -4.60001,-6.35013 -89.71047,-91.460578 -96.0606,-96.060596 -3.83523,-2.778224 -5.98263,-3.529345 -10.09014,-3.529345 -6.27106,0 -10.72009,2.686568 -20.76805,12.540886 L 717.25782,91.898351 700.5813,75.304875 683.90479,58.7114 695.45183,47.574805 c 17.16321,-16.553131 30.39851,-22.650154 49.16852,-22.650154 19.16685,0 30.56452,5.205227 49.14223,22.442882 14.59313,13.540489 80.08948,79.239197 91.69518,91.978477 11.31217,12.41709 16.81461,26.67592 16.81461,43.57276 0,18.16681 -6.42475,32.00355 -22.69126,48.86926 l -11.09549,11.5042 z"
   id="path3282" /></svg>
