<?xml version="1.0" encoding="UTF-8" standalone="no"?>
<!-- Generator: Adobe Illustrator 19.0.0, SVG Export Plug-In . SVG Version: 6.00 Build 0)  -->

<svg
   version="1.1"
   id="Layer_1"
   x="0px"
   y="0px"
   viewBox="0 0 512 512"
   style="enable-background:new 0 0 512 512;"
   xml:space="preserve"
   sodipodi:docname="g-law.svg"
   inkscape:version="1.2.1 (9c6d41e410, 2022-07-14)"
   xmlns:inkscape="http://www.inkscape.org/namespaces/inkscape"
   xmlns:sodipodi="http://sodipodi.sourceforge.net/DTD/sodipodi-0.dtd"
   xmlns="http://www.w3.org/2000/svg"
   xmlns:svg="http://www.w3.org/2000/svg"><defs
   id="defs7329" /><sodipodi:namedview
   id="namedview7327"
   pagecolor="#ffffff"
   bordercolor="#000000"
   borderopacity="0.25"
   inkscape:showpageshadow="2"
   inkscape:pageopacity="0.0"
   inkscape:pagecheckerboard="0"
   inkscape:deskcolor="#d1d1d1"
   showgrid="false"
   inkscape:zoom="1.5898438"
   inkscape:cx="144.6683"
   inkscape:cy="256"
   inkscape:window-width="1920"
   inkscape:window-height="1017"
   inkscape:window-x="-8"
   inkscape:window-y="-8"
   inkscape:window-maximized="1"
   inkscape:current-layer="Layer_1" />



<g
   id="g7284"
   transform="matrix(1.7161462,0,0,1.3909535,-231.75354,-24.270577)">
	<path
   style="fill:#ffc36e"
   d="M 291.31,344.276 H 273.655 V 158.897 c 0,-4.875 3.953,-8.828 8.828,-8.828 v 0 c 4.875,0 8.828,3.953 8.828,8.828 v 185.379 z"
   id="path7280" />
	<path
   style="fill:#ffc36e"
   d="m 326.621,370.759 h -88.276 c -4.875,0 -8.828,-3.953 -8.828,-8.828 v 0 c 0,-4.875 3.953,-8.828 8.828,-8.828 h 88.276 c 4.875,0 8.828,3.953 8.828,8.828 v 0 c -0.001,4.875 -3.953,8.828 -8.828,8.828 z"
   id="path7282" />
</g>
<polygon
   style="fill:#ffd782"
   points="247.172,353.103 317.793,353.103 291.31,335.448 273.655,335.448 "
   id="polygon7286"
   transform="matrix(1.7161462,0,0,1.3909535,-231.75354,-24.270577)" />
<path
   style="fill:#f5b464;stroke-width:1.54502"
   d="m 390.01139,233.55793 c 8.06758,-0.27263 14.51172,-5.6445 14.51172,-12.25292 0,-6.78089 -6.78393,-12.27932 -15.15013,-12.27932 H 116.68249 c -8.36621,0 -15.15014,5.49843 -15.15014,12.27932 0,6.60565 6.44241,11.9789 14.51173,12.25292 L 60.09771,380.92944 h 31.698937 l 40.085743,-105.59283 40.08403,105.59283 h 31.69893 L 147.72757,233.58436 h 210.60204 l -55.9395,147.3437 h 31.69893 l 40.08574,-105.59284 40.08573,105.59284 h 31.69894 z"
   id="path7288" />
<g
   id="g7294"
   transform="matrix(1.7161462,0,0,1.3909535,-231.75354,-24.270577)">
	<path
   style="fill:#ffd782"
   d="m 173.409,282.483 c -4.107,0 -6.932,4.329 -5.132,8.02 7.878,16.152 24.431,27.29 43.614,27.29 19.183,0 35.735,-11.138 43.613,-27.29 1.8,-3.691 -1.025,-8.02 -5.132,-8.02 z"
   id="path7290" />
	<path
   style="fill:#ffd782"
   d="m 314.594,282.483 c -4.107,0 -6.932,4.329 -5.132,8.02 7.878,16.153 24.43,27.29 43.613,27.29 19.182,0 35.735,-11.138 43.613,-27.29 1.8,-3.691 -1.025,-8.02 -5.132,-8.02 z"
   id="path7292" />
</g>
<g
   id="g7296"
   transform="matrix(0.91225254,0,0,0.91565463,18.543337,28.012461)">
</g>
<g
   id="g7298"
   transform="matrix(0.91225254,0,0,0.91565463,18.543337,28.012461)">
</g>
<g
   id="g7300"
   transform="matrix(0.91225254,0,0,0.91565463,18.543337,28.012461)">
</g>
<g
   id="g7302"
   transform="matrix(0.91225254,0,0,0.91565463,18.543337,28.012461)">
</g>
<g
   id="g7304"
   transform="matrix(0.91225254,0,0,0.91565463,18.543337,28.012461)">
</g>
<g
   id="g7306"
   transform="matrix(0.91225254,0,0,0.91565463,18.543337,28.012461)">
</g>
<g
   id="g7308"
   transform="matrix(0.91225254,0,0,0.91565463,18.543337,28.012461)">
</g>
<g
   id="g7310"
   transform="matrix(0.91225254,0,0,0.91565463,18.543337,28.012461)">
</g>
<g
   id="g7312"
   transform="matrix(0.91225254,0,0,0.91565463,18.543337,28.012461)">
</g>
<g
   id="g7314"
   transform="matrix(0.91225254,0,0,0.91565463,18.543337,28.012461)">
</g>
<g
   id="g7316"
   transform="matrix(0.91225254,0,0,0.91565463,18.543337,28.012461)">
</g>
<g
   id="g7318"
   transform="matrix(0.91225254,0,0,0.91565463,18.543337,28.012461)">
</g>
<g
   id="g7320"
   transform="matrix(0.91225254,0,0,0.91565463,18.543337,28.012461)">
</g>
<g
   id="g7322"
   transform="matrix(0.91225254,0,0,0.91565463,18.543337,28.012461)">
</g>
<g
   id="g7324"
   transform="matrix(0.91225254,0,0,0.91565463,18.543337,28.012461)">
</g>
<path
   style="fill:#00ffff;fill-opacity:1;stroke-width:0.971805"
   d="m 107.35896,116.30062 c -1.62848,-1.45849 -1.78612,-7.31903 -1.78243,-66.27364 0.003,-63.324714 0.0494,-64.734072 2.18253,-67.56974 3.87833,-5.155845 5.93768,-5.415468 42.95575,-5.415468 32.86239,0 33.39008,0.02829 37.0056,1.985963 7.8023,4.224596 7.44234,0.756309 7.4442,71.724313 0.002,62.483332 -0.0378,63.680982 -2.15721,65.398722 -3.82617,3.10118 -6.81523,2.1768 -25.24173,-7.80626 l -17.6384,-9.556066 -17.68975,9.555066 c -18.28663,9.87747 -21.71853,10.96637 -25.07856,7.95711 z"
   id="path7694" /><path
   style="fill:#00ffff;fill-opacity:1;stroke-width:0.58274"
   d="m 29.769844,501.54854 c -0.913495,-0.70024 -2.082891,-2.08282 -2.598685,-3.07243 -0.8995,-1.72585 -0.937739,-11.45152 -0.937739,-238.38291 0,-224.929008 0.04507,-236.67032 0.916749,-238.342652 2.84471,-5.458035 8.929576,-5.589002 12.039585,-0.259141 l 1.07642,1.844722 V 259.97775 496.61937 l -1.246665,2.19744 c -2.199514,3.87698 -6.210319,5.06151 -9.249665,2.73173 z"
   id="path7696" /><path
   style="fill:#00ffff;fill-opacity:1;stroke-width:0.58274"
   d="m 468.56353,502.3387 c -0.91348,-0.70021 -2.08288,-2.08281 -2.59864,-3.07241 -0.89953,-1.72587 -0.93777,-11.45154 -0.93777,-238.38293 0,-224.929 0.045,-236.670311 0.91676,-238.342643 2.84469,-5.458035 8.92959,-5.589002 12.03959,-0.259141 l 1.07639,1.844721 V 260.76792 497.40956 l -1.24664,2.19742 c -2.19951,3.87699 -6.21031,5.06151 -9.24969,2.73172 z"
   id="path7696-0" /><path
   style="fill:#00ffff;fill-opacity:1;stroke-width:0.494186"
   d="m 122.83291,509.63059 c -34.572003,-0.0139 -78.829287,-0.0396 -98.349229,-0.0584 -34.0433134,-0.0329 -35.491034,-0.21762 -35.491034,-4.52985 0,-4.27417 1.7081606,-4.49728 34.696044,-4.52906 107.661069,-0.10374 337.950799,-0.10616 455.652369,-0.005 l 40.73769,0.0349 v 4.49674 4.49674 l -47.18067,0.0418 c -83.24326,0.0737 -235.03691,0.0961 -350.06517,0.0518 z"
   id="path7696-0-2" /><path
   style="fill:#00ffff;fill-opacity:1;stroke-width:0.494186"
   d="M 127.96301,28.115392 C 93.391002,28.101482 49.133719,28.075742 29.613777,28.057002 -4.4295383,28.024162 -5.8772574,27.839387 -5.8772574,23.52716 c 0,-4.274174 1.7081698,-4.497277 34.6960444,-4.529066 107.661063,-0.103767 337.950783,-0.106133 455.652393,-0.0057 l 40.73766,0.03501 v 4.496737 4.496748 l -47.18066,0.04174 c -83.24324,0.07372 -235.0369,0.09612 -350.06517,0.05186 z"
   id="path7696-0-2-6" /><path
   style="fill:#00ffff;fill-opacity:1;stroke-width:0.971805"
   d="m 65.894952,367.05285 c 0.553689,-1.19948 49.359518,-129.63572 50.175658,-132.04102 0.34594,-1.01955 -0.58693,-1.72508 -3.20794,-2.42618 -12.259,-3.2792 -14.125401,-16.83372 -2.96219,-21.51257 3.01651,-1.26431 17.0225,-1.40156 143.01602,-1.40156 152.80489,0 143.15377,-0.32572 148.32815,5.00596 1.52696,1.57338 2.25419,3.59202 2.25419,6.25723 0,5.4907 -3.17187,9.32847 -9.26992,11.21606 -2.67637,0.82841 -4.66783,1.93767 -4.42543,2.46501 0.52746,1.1476 49.38493,129.77175 50.13027,131.97496 0.47549,1.40554 -0.72818,1.53107 -14.68209,1.53107 H 410.0516 l -3.11705,-8.09283 c -1.71436,-4.45104 -9.59076,-25.21895 -17.50305,-46.15094 -7.91229,-20.93196 -14.5416,-38.22214 -14.73179,-38.42267 -0.19021,-0.20048 -0.58105,-0.17387 -0.86859,0.0591 -0.28752,0.23301 -8.39322,21.165 -18.01272,46.51549 l -17.48993,46.09178 h -14.91031 c -11.22852,0 -14.90112,-0.27005 -14.87303,-1.09363 0.0206,-0.60148 11.34275,-30.81833 25.1605,-67.14853 l 25.12321,-66.05489 -105.21388,-0.22306 c -57.86764,-0.12266 -105.43893,-0.0405 -105.71399,0.1823 -0.27505,0.22292 10.08138,28.27635 23.0143,62.34092 12.93296,34.06455 24.36426,64.19936 25.40294,66.96623 l 1.88849,5.03067 -15.2831,-8.7e-4 -15.28313,-9.1e-4 -14.49961,-38.27568 c -7.97482,-21.05164 -15.90458,-41.95365 -17.6217,-46.44892 -1.7171,-4.49527 -3.45002,-7.90944 -3.85088,-7.58707 -0.40089,0.32239 -8.52628,21.12648 -18.0565,46.23133 l -17.327588,45.6452 -15.452712,0.24337 c -12.188891,0.19198 -15.343685,0.007 -14.936528,-0.87488 z"
   id="path7698" /><path
   style="fill:#00ffff;fill-opacity:1;stroke-width:0.971805"
   d="M 238.34401,337.93779 V 234.26221 h 14.57249 14.57249 V 337.93779 441.61337 H 252.9165 238.34401 Z"
   id="path7700" /><path
   style="fill:#00ffff;fill-opacity:1;stroke-width:0.971805"
   d="M 114.60237,415.80981 C 98.723909,413.01091 85.714913,407.14657 73.737035,397.38811 60.365332,386.49407 54.336029,376.6908 58.381171,372.42049 c 3.200919,-3.37908 4.169603,-3.42377 74.189479,-3.42377 h 68.15894 l 3.28839,2.66528 c 4.34781,3.52395 3.73921,6.58861 -2.98035,15.0077 -11.78779,14.76914 -31.0609,25.56457 -52.08947,29.17683 -8.93048,1.53408 -25.53522,1.5163 -34.34579,-0.0368 z"
   id="path7702" /><path
   style="fill:#00ffff;fill-opacity:1;stroke-width:0.971805"
   d="m 354.9239,415.37023 c -15.3799,-3.07615 -28.4346,-9.09986 -39.07078,-18.02812 -7.64458,-6.41701 -9.42362,-8.29298 -13.6728,-14.41774 -4.20052,-6.05463 -4.2427,-8.11969 -0.23218,-11.37026 l 3.1553,-2.55739 68.35782,0.0127 c 52.0898,0.0102 68.98189,0.27011 70.98019,1.09363 1.4423,0.5944 3.24995,2.32989 4.01702,3.85664 1.28737,2.56239 1.10701,3.24197 -2.34495,8.83449 -6.73837,10.91696 -21.78387,22.26772 -37.33246,28.16472 -16.21886,6.15123 -36.74985,7.8328 -53.85716,4.41114 z"
   id="path7704" /><path
   style="fill:#00ffff;fill-opacity:1;stroke-width:0.971805"
   d="m 196.83942,465.35537 c 0.564,-0.41536 10.21572,-5.73037 21.44822,-11.81115 l 20.42278,-11.05595 h 14.40122 14.40123 l 21.84266,11.81115 21.84263,11.81114 h -57.69209 c -32.43707,0 -57.24321,-0.3306 -56.66665,-0.75519 z"
   id="path7706" /><path
   style="fill:#00ffff;fill-opacity:1;stroke-width:0.971805"
   d="m 169.58191,488.89335 c -9.03828,-4.4667 -8.83321,-14.99374 0.38754,-19.89183 2.78359,-1.47865 7.88261,-1.59389 80.52204,-1.81972 49.7617,-0.15471 79.00056,0.0754 81.59764,0.64221 2.22601,0.48583 5.48145,2.09657 7.23426,3.57943 2.80722,2.3749 3.18691,3.32266 3.18691,7.95527 0,4.95581 -0.23258,5.43194 -4.03206,8.25411 l -4.03205,2.99491 -80.70426,-0.003 c -78.1396,-0.003 -80.81404,-0.0575 -84.16002,-1.7111 z"
   id="path7708" /><path
   style="fill:#00ffff;fill-opacity:1;stroke-width:1.61474"
   d="m 238.34401,189.32737 c 0,-22.83904 1.92833,-34.27552 6.93,-41.10063 6.81952,-9.30561 16.97603,-3.31018 20.54342,12.12682 1.12674,4.87567 1.67156,13.96456 1.67156,27.88492 v 20.65165 H 252.9165 238.34401 Z"
   id="path7710" /><path
   style="fill:#63b11d;stroke:#afb11d;stroke-width:0.444765"
   d="M 26.563256,241.95212 26.685897,27.797783 16.456303,27.782839 C 4.6843952,27.7656 -2.2757049,27.24929 -4.2083297,26.24989 c -1.198107,-0.619563 -1.3512322,-0.923101 -1.3512322,-2.678517 0,-1.566898 0.2103426,-2.117589 1.0086299,-2.640646 1.6545934,-1.084131 8.2622651,-1.575101 21.452,-1.593948 10.24118,-0.01463 12.606784,-0.133794 13.316765,-0.670796 1.09383,-0.827332 4.572776,-0.819172 6.03051,0.01414 0.936626,0.535424 6.493213,0.638111 35.247623,0.651387 l 34.135714,0.01576 0.026,-2.335016 c 0.0143,-1.284258 0.18649,-8.839703 0.38271,-16.78987652 0.39789,-16.12176948 0.4606,-16.46866648 3.46809,-19.18240548 2.03872,-1.839597 3.50699,-2.405788 7.90951,-3.050056 4.39841,-0.643665 48.54512,-1.060379 58.79574,-0.554991 7.94685,0.391804 8.70896,0.504901 11.01929,1.635238 3.32748,1.627987 4.89318,3.016465 5.71359,5.066867 1.04095,2.601603 1.56599,8.834348 1.90683,22.6360827 l 0.31005,12.5550613 137.47655,-0.168938 c 75.61209,-0.09292 138.17705,-0.173555 139.03322,-0.179197 0.85617,-0.0056 13.21508,0.0794 27.46424,0.18898 l 25.90755,0.199238 v 4.214772 4.214775 h -23.1278 -23.12778 V 241.95213 456.10646 H 472.118 465.44652 V 241.95213 27.797809 H 330.23798 195.02943 l -0.022,34.358093 c -0.024,37.363422 -0.3651,50.549878 -1.36044,52.586148 -0.34044,0.69648 -1.40393,1.67099 -2.36331,2.16558 -1.68762,0.87003 -1.83613,0.87519 -4.56772,0.15875 -3.27992,-0.86025 -10.15944,-4.25001 -25.5632,-12.5958 l -11.02774,-5.974855 -10.79396,5.861885 c -14.1429,7.68058 -23.47236,12.23044 -26.44049,12.89468 -2.06598,0.46235 -2.61508,0.43423 -3.94979,-0.20225 -0.86935,-0.41456 -1.7656,-1.2775 -2.04059,-1.96473 -0.6886,-1.72092 -1.2026,-26.456202 -1.2385,-59.600882 l -0.03,-27.686619 H 72.941452 40.251228 V 241.95213 456.10646 h -6.905306 -6.905306 z"
   id="path5069" /><path
   style="fill:#63b11d;stroke:#afb11d;stroke-width:0.444765"
   d="m 238.74395,189.80344 c 0.24389,-20.00207 0.65157,-25.12405 2.5516,-32.05753 1.91127,-6.97452 5.19885,-11.72836 9.15602,-13.23962 7.35949,-2.81061 14.73196,7.81 16.13702,23.24664 0.27102,2.97754 0.49276,13.43508 0.49276,23.23896 v 17.82525 h -14.28461 -14.28462 z"
   id="path5071" /><path
   style="fill:#63b11d;stroke:#afb11d;stroke-width:0.444765"
   d="m 167.66452,367.48704 c -6.4824,-17.46662 -33.11251,-87.17811 -34.06414,-89.17206 -0.74389,-1.55869 -1.56169,-2.76426 -1.81733,-2.67904 -0.71432,0.2381 -7.80158,18.32906 -26.39913,67.38644 l -9.314691,24.57067 -14.762186,0.003 c -8.119202,0.001 -14.844343,-0.1476 -14.944757,-0.33106 -0.100415,-0.18347 2.693605,-7.83898 6.208932,-17.01226 19.795699,-51.65705 43.767392,-115.36364 43.646182,-115.99303 -0.0859,-0.44589 -1.36785,-1.18091 -3.3102,-1.89788 -5.34239,-1.97201 -7.26567,-3.52968 -9.288,-7.5224 -2.24017,-4.42279 0.31912,-10.50025 5.52849,-13.12833 3.14526,-1.58675 11.44287,-1.68797 141.47736,-1.72575 148.59182,-0.0432 144.98003,-0.13498 149.2414,3.79301 2.75951,2.54363 3.46884,4.31613 3.20468,8.00806 -0.35923,5.02069 -3.20947,8.22875 -9.0326,10.16657 -5.41097,1.80065 -5.70347,-0.40648 2.94612,22.23052 30.1255,78.84194 42.74368,112.62528 42.25026,113.11893 -0.37313,0.37331 -4.51601,0.51851 -14.7939,0.51851 h -14.27563 l -15.44021,-40.69599 c -19.53142,-51.47925 -19.66411,-51.81512 -20.46851,-51.81512 -0.42116,0 -1.41134,1.90074 -2.78041,5.33718 -2.35044,5.89978 -18.80983,48.93302 -27.68606,72.3855 l -5.68126,15.01082 -10.71814,-0.0354 c -10.62957,-0.0351 -17.74115,-0.3903 -18.26309,-0.91224 -0.41056,-0.41056 9.17983,-26.09272 38.84268,-104.01693 l 11.0895,-29.13211 -30.75606,-0.26947 c -42.03403,-0.36829 -176.6909,-0.45282 -178.75161,-0.1122 -0.91732,0.15162 -1.66786,0.51205 -1.66786,0.80095 0,1.22663 10.20221,28.6301 34.06237,91.49262 8.48146,22.34544 15.51852,40.97831 15.63794,41.4064 0.20367,0.73016 -0.70933,0.77834 -14.74835,0.77834 -11.56581,0 -15.01233,-0.1263 -15.17179,-0.55596 z"
   id="path5073" /><path
   style="fill:#63b11d;stroke:#afb11d;stroke-width:0.444765"
   d="M 238.6164,338.02136 V 234.61351 h 14.23247 14.23248 V 338.02136 441.42921 H 252.84887 238.6164 Z"
   id="path5075" /><path
   style="fill:#63b11d;stroke:#afb11d;stroke-width:0.444765"
   d="m 124.3118,416.49669 c -6.82881,-0.36409 -10.40672,-0.88848 -16.50412,-2.41888 -14.939045,-3.74957 -27.644729,-10.73566 -39.177736,-21.54147 -9.667206,-9.05766 -13.186352,-16.28722 -9.782533,-20.09675 2.573037,-2.87973 -0.372747,-2.76335 74.486349,-2.94281 l 67.50855,-0.16184 2.38187,2.03489 c 4.24011,3.62244 4.26453,5.49385 0.15198,11.64263 -6.31234,9.43773 -18.2349,19.17792 -30.5966,24.99602 -14.85326,6.99077 -29.25331,9.51266 -48.46776,8.48821 z"
   id="path5077" /><path
   style="fill:#63b11d;stroke:#afb11d;stroke-width:0.444765"
   d="m 364.04011,416.48095 c -10.65511,-1.08611 -21.57526,-4.12848 -31.0112,-8.63974 -9.35323,-4.47171 -17.23203,-10.12857 -24.71807,-17.74718 -3.43657,-3.49743 -8.03419,-10.10755 -8.79389,-12.6432 -0.68261,-2.27837 0.11349,-3.78366 3.30209,-6.24365 l 2.43539,-1.87888 68.42096,0.16071 c 52.08702,0.12235 68.80868,0.28957 70.04505,0.70046 1.85934,0.61793 4.66133,3.4956 5.09809,5.23578 0.84254,3.35694 -7.38695,14.39405 -15.779,21.16227 -12.99553,10.48095 -27.68273,16.75357 -45.18433,19.29734 -5.73669,0.8338 -18.37881,1.15024 -23.81509,0.59609 z"
   id="path5079" /><path
   style="fill:#63b11d;stroke:#afb11d;stroke-width:0.444765"
   d="m 205.06476,465.55809 c -6.46981,-0.11494 -7.41132,-0.21836 -6.67147,-0.7328 0.47377,-0.32943 8.86718,-4.95007 18.65201,-10.26809 9.78482,-5.31801 18.66642,-10.14714 19.73686,-10.7314 1.93828,-1.05793 2.00545,-1.06229 16.34554,-1.06229 h 14.39926 l 21.01448,11.37833 c 11.55796,6.25808 21.09799,11.46183 21.20004,11.56389 0.2016,0.2016 -92.36813,0.071 -104.67672,-0.14764 z"
   id="path5081" /><path
   style="fill:#63b11d;stroke:#afb11d;stroke-width:0.444765"
   d="m 177.38921,489.90436 c -5.38162,-0.28535 -6.04551,-0.418 -8.22815,-1.64406 -6.93636,-3.89636 -7.94559,-11.52221 -2.2106,-16.70344 3.01771,-2.72631 3.98555,-3.02638 11.10714,-3.44365 9.45821,-0.55417 121.23251,-1.00397 139.06338,-0.55961 l 15.12557,0.37694 2.88741,1.35558 c 5.71013,2.68078 7.11267,4.68783 7.11267,10.1783 0,4.35478 -0.57132,5.4011 -4.60817,8.43948 l -3.2544,2.44946 -75.57045,-0.0693 c -41.56375,-0.0381 -78.20473,-0.20898 -81.4244,-0.3797 z"
   id="path5083" /><path
   style="fill:#63b11d;stroke:#afb11d;stroke-width:0.444765"
   d="m -0.66714743,509.02102 c -7.29400977,-0.36036 -9.57759457,-1.00843 -10.03959757,-2.8492 -0.500407,-1.99378 0.144228,-3.36425 1.9342678,-4.11217 1.9334088,-0.80783 13.8684899,-1.42329 28.2309442,-1.45581 5.07588,-0.0115 9.228872,-0.15524 9.228872,-0.31944 0,-0.1642 -0.350252,-0.68518 -0.778338,-1.15772 -0.668189,-0.73757 -0.818893,-2.19022 -1.064899,-10.26461 -0.157608,-5.173 -0.307716,-14.55917 -0.333574,-20.85815 l -0.04701,-11.4527 h 6.893856 6.893857 v 19.85404 19.85404 l -1.330185,2.16183 -1.330181,2.16182 H 252.23342 c 204.25407,0 214.62616,-0.0377 214.30371,-0.77834 -0.77496,-1.78018 -1.0371,-7.97629 -1.06312,-25.12922 l -0.0275,-18.12417 h 6.67148 6.67147 v 20.43377 c 0,19.95527 -0.0218,20.47081 -0.93347,22.01586 l -0.93348,1.5821 h 21.39266 21.39267 v 4.44765 4.44765 l -256.96296,-0.0693 C 121.41527,509.37083 2.8798531,509.19626 -0.66714743,509.02102 Z"
   id="path5085" /></svg>
