<?xml version="1.0" encoding="UTF-8" standalone="no"?>
<svg
   id="Layer_1"
   data-name="Layer 1"
   viewBox="0 0 122.88 122.88"
   version="1.1"
   sodipodi:docname="g-rub-icon.svg"
   inkscape:version="1.2.1 (9c6d41e410, 2022-07-14)"
   xmlns:inkscape="http://www.inkscape.org/namespaces/inkscape"
   xmlns:sodipodi="http://sodipodi.sourceforge.net/DTD/sodipodi-0.dtd"
   xmlns="http://www.w3.org/2000/svg"
   xmlns:svg="http://www.w3.org/2000/svg"
   xmlns:rdf="http://www.w3.org/1999/02/22-rdf-syntax-ns#"
   xmlns:cc="http://creativecommons.org/ns#"
   xmlns:dc="http://purl.org/dc/elements/1.1/">
  <defs
     id="defs9" />
  <sodipodi:namedview
     id="namedview7"
     pagecolor="#ffffff"
     bordercolor="#000000"
     borderopacity="0.25"
     inkscape:showpageshadow="2"
     inkscape:pageopacity="0.0"
     inkscape:pagecheckerboard="0"
     inkscape:deskcolor="#d1d1d1"
     showgrid="false"
     inkscape:zoom="3.4057618"
     inkscape:cx="-27.600286"
     inkscape:cy="80.158278"
     inkscape:window-width="1920"
     inkscape:window-height="1017"
     inkscape:window-x="-8"
     inkscape:window-y="-8"
     inkscape:window-maximized="1"
     inkscape:current-layer="Layer_1" />
  <title
     id="title2">rub</title>
  <path
     d="M30.27,0H92.61a30.35,30.35,0,0,1,30.27,30.27V92.61a30.35,30.35,0,0,1-30.27,30.27H30.27A30.35,30.35,0,0,1,0,92.61V30.27A30.35,30.35,0,0,1,30.27,0Zm40,71.93v9.13H59.17V89.8H43.48V81.06H37.23V71.93h6.25V67H37.23V57.89h6.25V33.08H67.94q9.36,0,14.42,4.17c3.35,2.79,5,6.91,5,12.39q0,8.47-5.43,12.91T66,67H59.17v4.92Zm-11.06-14H63.4a12.42,12.42,0,0,0,4.29-.65,7.29,7.29,0,0,0,2.77-1.73A6.28,6.28,0,0,0,72,53a9,9,0,0,0,.45-2.88,8.7,8.7,0,0,0-.37-2.55,5.81,5.81,0,0,0-1.32-2.34,6.58,6.58,0,0,0-2.55-1.69,11.13,11.13,0,0,0-4.09-.65H59.17v15ZM92.61,12.1H30.27A18.23,18.23,0,0,0,12.1,30.27V92.61a18.23,18.23,0,0,0,18.17,18.17H92.61a18.23,18.23,0,0,0,18.17-18.17V30.27A18.23,18.23,0,0,0,92.61,12.1Z"
     id="path4" />
  <path
     style="fill:#00ffff;stroke:#000000;stroke-width:0.29362"
     d="m 27.699551,122.57176 c -3.638686,-0.32384 -7.002137,-1.2663 -10.375967,-2.90741 C 9.1492326,115.68816 3.3706063,108.58858 0.94129827,99.537202 0.31623007,97.208255 0.31003968,96.895546 0.21473431,62.834694 0.12857899,32.043947 0.16868831,28.177913 0.60147988,25.557285 2.736231,12.630996 12.630996,2.7362311 25.557285,0.60147988 28.177913,0.16868831 32.043947,0.12857899 62.834694,0.21473431 96.895546,0.31003968 97.208255,0.31623007 99.537202,0.94129827 108.62642,3.3807608 115.67534,9.1184977 119.66316,17.323584 c 1.73232,3.564303 2.54692,6.589188 2.92566,10.863942 0.37144,4.19244 0.37226,62.037921 8.8e-4,66.517791 -1.24673,15.041413 -12.6883,26.550283 -27.717795,27.880833 -3.830488,0.33911 -63.343731,0.32636 -67.172415,-0.0144 z m 70.880905,-12.64711 c 5.505004,-2.14174 9.202454,-5.83919 11.344194,-11.344194 l 0.77011,-1.979455 0.0793,-34.282283 c 0.0699,-30.212624 0.0249,-34.517307 -0.37892,-36.262079 -1.46076,-6.311132 -6.41979,-11.487033 -12.913308,-13.478046 -1.667589,-0.511308 -3.58945,-0.54017 -35.968458,-0.54017 H 27.306666 l -2.20215,0.68219 c -5.947887,1.842558 -10.541345,6.436016 -12.383903,12.383903 l -0.68219,2.20215 v 34.206738 c 0,32.379008 0.02886,34.300869 0.54017,35.968458 1.958239,6.386628 7.107123,11.390018 13.26356,12.888758 1.495609,0.3641 6.909721,0.42025 36.258491,0.37608 l 34.500357,-0.0519 z"
     id="path307" />
  <path
     style="fill:#00ffff;stroke:#000000;stroke-width:0.29362"
     d="m 43.60258,85.296629 v -4.404301 h -3.083011 -3.083011 v -4.404301 -4.404301 h 3.083011 3.083011 v -2.642581 -2.64258 h -3.083011 -3.083011 v -4.404301 -4.404301 h 3.083011 3.083011 V 45.640922 33.291882 l 15.048028,0.110717 c 16.67974,0.122722 16.447739,0.09848 20.655813,2.158714 3.704464,1.813673 6.2155,4.942566 7.318401,9.119134 0.603137,2.284016 0.600656,7.61778 -0.0046,9.932885 -1.7147,6.558517 -6.540921,10.433692 -14.627811,11.745281 -1.640205,0.26602 -4.683915,0.438052 -7.763003,0.438771 l -5.064955,0.0012 v 2.64258 2.642581 h 5.431971 5.431971 v 4.404301 4.404301 h -5.431971 -5.431971 v 4.404301 4.404301 H 51.383511 43.60258 Z M 68.266665,57.217846 c 2.854733,-1.317309 4.229066,-3.643517 4.22758,-7.155625 -0.0012,-2.442765 -0.574614,-3.921871 -2.071945,-5.34299 -1.526692,-1.448988 -2.833184,-1.79953 -7.220581,-1.93734 l -4.037276,-0.126813 v 7.696251 7.696251 l 3.890466,-0.110014 c 3.158668,-0.08932 4.139001,-0.2247 5.211756,-0.71972 z"
     id="path309" />
  <metadata
     id="metadata311">
    <rdf:RDF>
      <cc:Work
         rdf:about="">
        <dc:title>rub</dc:title>
      </cc:Work>
    </rdf:RDF>
  </metadata>
  <path
     style="fill:#63b11d;stroke:#afb11d;stroke-width:0.29362"
     d="M 30.389677,122.29317 C 24.549893,122.04035 22.123901,121.51585 18.113188,119.63899 9.687957,115.6963 3.7228426,108.54559 1.2648079,99.441902 0.66594807,97.22394 0.65576248,96.62548 0.62177481,61.660214 L 0.58724013,26.132186 1.3935611,23.195985 C 2.329649,19.787241 4.3280299,15.475997 6.1495011,12.935671 7.6344502,10.864676 11.429524,7.1273014 13.426012,5.7697893 15.761701,4.1816374 20.106808,2.2412054 23.195985,1.4067285 L 26.132186,0.61357491 52.704802,0.51582618 C 67.31974,0.46206435 83.637675,0.53254843 88.96688,0.67245766 l 9.689462,0.25438021 2.712198,0.92440973 c 8.24802,2.8112088 14.10022,7.8859718 17.84267,15.4723364 2.22567,4.51171 2.76409,6.815682 3.08771,13.212903 0.33871,6.695383 0.33866,54.959601 -6e-5,61.807023 -0.36666,7.412192 -1.58621,11.48702 -4.97893,16.63584 -4.24422,6.44108 -11.05202,11.03693 -18.957208,12.79775 -2.537071,0.56511 -3.844203,0.59161 -32.738638,0.66357 -16.552831,0.0412 -32.408314,-0.0252 -35.234407,-0.1475 z M 98.7382,110.20514 c 5.61012,-2.34386 9.09866,-5.83042 11.47344,-11.46694 l 0.77674,-1.843579 V 61.660214 26.425806 l -0.68511,-1.908531 c -0.37682,-1.049691 -1.09315,-2.63524 -1.59184,-3.52344 -1.31782,-2.347101 -4.93055,-5.802249 -7.43958,-7.115082 -4.015377,-2.101016 -1.719553,-1.98714 -40.062329,-1.98714 H 26.675472 l -2.12086,0.721351 c -5.673369,1.929637 -10.012011,6.268279 -11.941648,11.941648 l -0.721351,2.12086 v 34.534049 c 0,38.274879 -0.107672,36.067009 1.949821,39.982419 1.97065,3.75016 5.655614,7.0909 9.645715,8.7447 2.561139,1.06152 5.151526,1.1289 41.549695,1.08082 l 31.857777,-0.0421 z"
     id="path5642" />
  <path
     style="fill:#63b11d;stroke:#afb11d;stroke-width:0.29362"
     d="m 43.8962,85.003009 v -4.404301 h -3.083011 -3.083011 v -4.110681 -4.110681 h 3.083011 3.083011 v -2.936201 -2.9362 H 40.813189 37.730178 V 62.394264 58.283583 H 40.813189 43.8962 V 45.907856 33.532129 l 14.607598,0.18838 c 8.034179,0.103609 15.31157,0.315126 16.171979,0.470037 2.446924,0.440552 6.129786,2.38139 7.923813,4.175786 1.780703,1.781067 3.429327,4.871594 3.871874,7.258259 0.385215,2.077464 0.373332,5.94676 -0.02496,8.12736 -0.494967,2.709899 -1.884891,5.315974 -3.924415,7.358178 -3.929996,3.935166 -9.092162,5.386982 -19.173563,5.392408 l -4.477706,0.0024 v 2.9362 2.936201 h 5.431971 5.431971 V 76.488019 80.5987 H 64.302791 58.87082 v 4.404301 4.404301 H 51.383511 43.8962 Z M 68.697203,57.273614 c 2.779722,-1.359991 3.939213,-3.482699 3.960876,-7.251269 0.01092,-1.899072 -0.112612,-2.48226 -0.807552,-3.812528 -1.475805,-2.825015 -4.024201,-3.76254 -10.263718,-3.775901 l -2.715986,-0.0058 v 7.96881 7.968809 l 4.098348,-0.147387 c 3.696316,-0.13293 4.258214,-0.225603 5.728032,-0.944717 z"
     id="path5644" />
</svg>
