<?xml version="1.0" encoding="UTF-8" standalone="no"?>
<!-- Generator: Adobe Illustrator 19.0.0, SVG Export Plug-In . SVG Version: 6.00 Build 0)  -->

<svg
   version="1.1"
   id="Layer_1"
   x="0px"
   y="0px"
   viewBox="0 0 512 512"
   style="enable-background:new 0 0 512 512;"
   xml:space="preserve"
   sodipodi:docname="law.svg"
   inkscape:version="1.2.1 (9c6d41e410, 2022-07-14)"
   xmlns:inkscape="http://www.inkscape.org/namespaces/inkscape"
   xmlns:sodipodi="http://sodipodi.sourceforge.net/DTD/sodipodi-0.dtd"
   xmlns="http://www.w3.org/2000/svg"
   xmlns:svg="http://www.w3.org/2000/svg"><defs
   id="defs7329" /><sodipodi:namedview
   id="namedview7327"
   pagecolor="#ffffff"
   bordercolor="#000000"
   borderopacity="0.25"
   inkscape:showpageshadow="2"
   inkscape:pageopacity="0.0"
   inkscape:pagecheckerboard="0"
   inkscape:deskcolor="#d1d1d1"
   showgrid="false"
   inkscape:zoom="0.79492188"
   inkscape:cx="-13.208845"
   inkscape:cy="288.07862"
   inkscape:window-width="1920"
   inkscape:window-height="1017"
   inkscape:window-x="-8"
   inkscape:window-y="-8"
   inkscape:window-maximized="1"
   inkscape:current-layer="Layer_1" />



<g
   id="g7284"
   transform="matrix(1.7161462,0,0,1.3909535,-231.75354,-24.270577)">
	<path
   style="fill:#ffc36e"
   d="M 291.31,344.276 H 273.655 V 158.897 c 0,-4.875 3.953,-8.828 8.828,-8.828 v 0 c 4.875,0 8.828,3.953 8.828,8.828 v 185.379 z"
   id="path7280" />
	<path
   style="fill:#ffc36e"
   d="m 326.621,370.759 h -88.276 c -4.875,0 -8.828,-3.953 -8.828,-8.828 v 0 c 0,-4.875 3.953,-8.828 8.828,-8.828 h 88.276 c 4.875,0 8.828,3.953 8.828,8.828 v 0 c -0.001,4.875 -3.953,8.828 -8.828,8.828 z"
   id="path7282" />
</g>
<polygon
   style="fill:#ffd782"
   points="247.172,353.103 317.793,353.103 291.31,335.448 273.655,335.448 "
   id="polygon7286"
   transform="matrix(1.7161462,0,0,1.3909535,-231.75354,-24.270577)" />
<path
   style="fill:#f5b464;stroke-width:1.54502"
   d="m 390.01139,233.55793 c 8.06758,-0.27263 14.51172,-5.6445 14.51172,-12.25292 0,-6.78089 -6.78393,-12.27932 -15.15013,-12.27932 H 116.68249 c -8.36621,0 -15.15014,5.49843 -15.15014,12.27932 0,6.60565 6.44241,11.9789 14.51173,12.25292 L 60.09771,380.92944 h 31.698937 l 40.085743,-105.59283 40.08403,105.59283 h 31.69893 L 147.72757,233.58436 h 210.60204 l -55.9395,147.3437 h 31.69893 l 40.08574,-105.59284 40.08573,105.59284 h 31.69894 z"
   id="path7288" />
<g
   id="g7294"
   transform="matrix(1.7161462,0,0,1.3909535,-231.75354,-24.270577)">
	<path
   style="fill:#ffd782"
   d="m 173.409,282.483 c -4.107,0 -6.932,4.329 -5.132,8.02 7.878,16.152 24.431,27.29 43.614,27.29 19.183,0 35.735,-11.138 43.613,-27.29 1.8,-3.691 -1.025,-8.02 -5.132,-8.02 z"
   id="path7290" />
	<path
   style="fill:#ffd782"
   d="m 314.594,282.483 c -4.107,0 -6.932,4.329 -5.132,8.02 7.878,16.153 24.43,27.29 43.613,27.29 19.182,0 35.735,-11.138 43.613,-27.29 1.8,-3.691 -1.025,-8.02 -5.132,-8.02 z"
   id="path7292" />
</g>
<g
   id="g7296"
   transform="matrix(0.91225254,0,0,0.91565463,18.543337,28.012461)">
</g>
<g
   id="g7298"
   transform="matrix(0.91225254,0,0,0.91565463,18.543337,28.012461)">
</g>
<g
   id="g7300"
   transform="matrix(0.91225254,0,0,0.91565463,18.543337,28.012461)">
</g>
<g
   id="g7302"
   transform="matrix(0.91225254,0,0,0.91565463,18.543337,28.012461)">
</g>
<g
   id="g7304"
   transform="matrix(0.91225254,0,0,0.91565463,18.543337,28.012461)">
</g>
<g
   id="g7306"
   transform="matrix(0.91225254,0,0,0.91565463,18.543337,28.012461)">
</g>
<g
   id="g7308"
   transform="matrix(0.91225254,0,0,0.91565463,18.543337,28.012461)">
</g>
<g
   id="g7310"
   transform="matrix(0.91225254,0,0,0.91565463,18.543337,28.012461)">
</g>
<g
   id="g7312"
   transform="matrix(0.91225254,0,0,0.91565463,18.543337,28.012461)">
</g>
<g
   id="g7314"
   transform="matrix(0.91225254,0,0,0.91565463,18.543337,28.012461)">
</g>
<g
   id="g7316"
   transform="matrix(0.91225254,0,0,0.91565463,18.543337,28.012461)">
</g>
<g
   id="g7318"
   transform="matrix(0.91225254,0,0,0.91565463,18.543337,28.012461)">
</g>
<g
   id="g7320"
   transform="matrix(0.91225254,0,0,0.91565463,18.543337,28.012461)">
</g>
<g
   id="g7322"
   transform="matrix(0.91225254,0,0,0.91565463,18.543337,28.012461)">
</g>
<g
   id="g7324"
   transform="matrix(0.91225254,0,0,0.91565463,18.543337,28.012461)">
</g>
<path
   style="fill:#00ffff;fill-opacity:1;stroke-width:0.971805"
   d="m 107.35896,116.30062 c -1.62848,-1.45849 -1.78612,-7.31903 -1.78243,-66.27364 0.003,-63.324714 0.0494,-64.734072 2.18253,-67.56974 3.87833,-5.155845 5.93768,-5.415468 42.95575,-5.415468 32.86239,0 33.39008,0.02829 37.0056,1.985963 7.8023,4.224596 7.44234,0.756309 7.4442,71.724313 0.002,62.483332 -0.0378,63.680982 -2.15721,65.398722 -3.82617,3.10118 -6.81523,2.1768 -25.24173,-7.80626 l -17.6384,-9.556066 -17.68975,9.555066 c -18.28663,9.87747 -21.71853,10.96637 -25.07856,7.95711 z"
   id="path7694" /><path
   style="fill:#00ffff;fill-opacity:1;stroke-width:0.58274"
   d="m 29.769844,501.54854 c -0.913495,-0.70024 -2.082891,-2.08282 -2.598685,-3.07243 -0.8995,-1.72585 -0.937739,-11.45152 -0.937739,-238.38291 0,-224.929008 0.04507,-236.67032 0.916749,-238.342652 2.84471,-5.458035 8.929576,-5.589002 12.039585,-0.259141 l 1.07642,1.844722 V 259.97775 496.61937 l -1.246665,2.19744 c -2.199514,3.87698 -6.210319,5.06151 -9.249665,2.73173 z"
   id="path7696" /><path
   style="fill:#00ffff;fill-opacity:1;stroke-width:0.58274"
   d="m 468.56353,502.3387 c -0.91348,-0.70021 -2.08288,-2.08281 -2.59864,-3.07241 -0.89953,-1.72587 -0.93777,-11.45154 -0.93777,-238.38293 0,-224.929 0.045,-236.670311 0.91676,-238.342643 2.84469,-5.458035 8.92959,-5.589002 12.03959,-0.259141 l 1.07639,1.844721 V 260.76792 497.40956 l -1.24664,2.19742 c -2.19951,3.87699 -6.21031,5.06151 -9.24969,2.73172 z"
   id="path7696-0" /><path
   style="fill:#00ffff;fill-opacity:1;stroke-width:0.494186"
   d="m 122.83291,509.63059 c -34.572003,-0.0139 -78.829287,-0.0396 -98.349229,-0.0584 -34.0433134,-0.0329 -35.491034,-0.21762 -35.491034,-4.52985 0,-4.27417 1.7081606,-4.49728 34.696044,-4.52906 107.661069,-0.10374 337.950799,-0.10616 455.652369,-0.005 l 40.73769,0.0349 v 4.49674 4.49674 l -47.18067,0.0418 c -83.24326,0.0737 -235.03691,0.0961 -350.06517,0.0518 z"
   id="path7696-0-2" /><path
   style="fill:#00ffff;fill-opacity:1;stroke-width:0.494186"
   d="M 127.96301,28.115392 C 93.391002,28.101482 49.133719,28.075742 29.613777,28.057002 -4.4295383,28.024162 -5.8772574,27.839387 -5.8772574,23.52716 c 0,-4.274174 1.7081698,-4.497277 34.6960444,-4.529066 107.661063,-0.103767 337.950783,-0.106133 455.652393,-0.0057 l 40.73766,0.03501 v 4.496737 4.496748 l -47.18066,0.04174 c -83.24324,0.07372 -235.0369,0.09612 -350.06517,0.05186 z"
   id="path7696-0-2-6" /><path
   style="fill:#00ffff;fill-opacity:1;stroke-width:0.971805"
   d="m 65.894952,367.05285 c 0.553689,-1.19948 49.359518,-129.63572 50.175658,-132.04102 0.34594,-1.01955 -0.58693,-1.72508 -3.20794,-2.42618 -12.259,-3.2792 -14.125401,-16.83372 -2.96219,-21.51257 3.01651,-1.26431 17.0225,-1.40156 143.01602,-1.40156 152.80489,0 143.15377,-0.32572 148.32815,5.00596 1.52696,1.57338 2.25419,3.59202 2.25419,6.25723 0,5.4907 -3.17187,9.32847 -9.26992,11.21606 -2.67637,0.82841 -4.66783,1.93767 -4.42543,2.46501 0.52746,1.1476 49.38493,129.77175 50.13027,131.97496 0.47549,1.40554 -0.72818,1.53107 -14.68209,1.53107 H 410.0516 l -3.11705,-8.09283 c -1.71436,-4.45104 -9.59076,-25.21895 -17.50305,-46.15094 -7.91229,-20.93196 -14.5416,-38.22214 -14.73179,-38.42267 -0.19021,-0.20048 -0.58105,-0.17387 -0.86859,0.0591 -0.28752,0.23301 -8.39322,21.165 -18.01272,46.51549 l -17.48993,46.09178 h -14.91031 c -11.22852,0 -14.90112,-0.27005 -14.87303,-1.09363 0.0206,-0.60148 11.34275,-30.81833 25.1605,-67.14853 l 25.12321,-66.05489 -105.21388,-0.22306 c -57.86764,-0.12266 -105.43893,-0.0405 -105.71399,0.1823 -0.27505,0.22292 10.08138,28.27635 23.0143,62.34092 12.93296,34.06455 24.36426,64.19936 25.40294,66.96623 l 1.88849,5.03067 -15.2831,-8.7e-4 -15.28313,-9.1e-4 -14.49961,-38.27568 c -7.97482,-21.05164 -15.90458,-41.95365 -17.6217,-46.44892 -1.7171,-4.49527 -3.45002,-7.90944 -3.85088,-7.58707 -0.40089,0.32239 -8.52628,21.12648 -18.0565,46.23133 l -17.327588,45.6452 -15.452712,0.24337 c -12.188891,0.19198 -15.343685,0.007 -14.936528,-0.87488 z"
   id="path7698" /><path
   style="fill:#00ffff;fill-opacity:1;stroke-width:0.971805"
   d="M 238.34401,337.93779 V 234.26221 h 14.57249 14.57249 V 337.93779 441.61337 H 252.9165 238.34401 Z"
   id="path7700" /><path
   style="fill:#00ffff;fill-opacity:1;stroke-width:0.971805"
   d="M 114.60237,415.80981 C 98.723909,413.01091 85.714913,407.14657 73.737035,397.38811 60.365332,386.49407 54.336029,376.6908 58.381171,372.42049 c 3.200919,-3.37908 4.169603,-3.42377 74.189479,-3.42377 h 68.15894 l 3.28839,2.66528 c 4.34781,3.52395 3.73921,6.58861 -2.98035,15.0077 -11.78779,14.76914 -31.0609,25.56457 -52.08947,29.17683 -8.93048,1.53408 -25.53522,1.5163 -34.34579,-0.0368 z"
   id="path7702" /><path
   style="fill:#00ffff;fill-opacity:1;stroke-width:0.971805"
   d="m 354.9239,415.37023 c -15.3799,-3.07615 -28.4346,-9.09986 -39.07078,-18.02812 -7.64458,-6.41701 -9.42362,-8.29298 -13.6728,-14.41774 -4.20052,-6.05463 -4.2427,-8.11969 -0.23218,-11.37026 l 3.1553,-2.55739 68.35782,0.0127 c 52.0898,0.0102 68.98189,0.27011 70.98019,1.09363 1.4423,0.5944 3.24995,2.32989 4.01702,3.85664 1.28737,2.56239 1.10701,3.24197 -2.34495,8.83449 -6.73837,10.91696 -21.78387,22.26772 -37.33246,28.16472 -16.21886,6.15123 -36.74985,7.8328 -53.85716,4.41114 z"
   id="path7704" /><path
   style="fill:#00ffff;fill-opacity:1;stroke-width:0.971805"
   d="m 196.83942,465.35537 c 0.564,-0.41536 10.21572,-5.73037 21.44822,-11.81115 l 20.42278,-11.05595 h 14.40122 14.40123 l 21.84266,11.81115 21.84263,11.81114 h -57.69209 c -32.43707,0 -57.24321,-0.3306 -56.66665,-0.75519 z"
   id="path7706" /><path
   style="fill:#00ffff;fill-opacity:1;stroke-width:0.971805"
   d="m 169.58191,488.89335 c -9.03828,-4.4667 -8.83321,-14.99374 0.38754,-19.89183 2.78359,-1.47865 7.88261,-1.59389 80.52204,-1.81972 49.7617,-0.15471 79.00056,0.0754 81.59764,0.64221 2.22601,0.48583 5.48145,2.09657 7.23426,3.57943 2.80722,2.3749 3.18691,3.32266 3.18691,7.95527 0,4.95581 -0.23258,5.43194 -4.03206,8.25411 l -4.03205,2.99491 -80.70426,-0.003 c -78.1396,-0.003 -80.81404,-0.0575 -84.16002,-1.7111 z"
   id="path7708" /><path
   style="fill:#00ffff;fill-opacity:1;stroke-width:1.61474"
   d="m 238.34401,189.32737 c 0,-22.83904 1.92833,-34.27552 6.93,-41.10063 6.81952,-9.30561 16.97603,-3.31018 20.54342,12.12682 1.12674,4.87567 1.67156,13.96456 1.67156,27.88492 v 20.65165 H 252.9165 238.34401 Z"
   id="path7710" /></svg>
