<svg width="544.01532" height="263.96439" xmlns="http://www.w3.org/2000/svg">

 <g>
  <title>background</title>
  <rect fill="none" id="canvas_background" height="602" width="802" y="-1" x="-1"/>
 </g>
 <g>
  <title>Layer 1</title>
  <path stroke="#050109" fill="#000000" fill-rule="evenodd" stroke-width="0.216" id="path2" d="m98.10799,0.108l0,244.7484l362.79932,0l0,-244.7484l-362.79932,0z"/>
  <path fill="#ffffff" fill-rule="evenodd" id="path4" d="m392.0947,68.7057c2.1743,-8.7241 -11.9498,-25.0729 -16.7597,-32.133c-9.0037,-13.2115 -8.4243,-20.053 -29.3051,-19.9031c-32.7427,0.2357 -65.5505,0.053 -98.3008,0.0469c-55.5349,-0.0086 -41.7661,-5.4055 -67.0567,32.1421c-1.8376,2.7321 -9.517,13.0137 -9.5538,15.9033c-0.1045,7.7414 8.7286,9.1591 14.7954,-0.7793c3.6809,-6.0345 16.0395,-24.2887 17.8191,-28.9099c-2.8355,9.6003 -7.7379,16.897 -6.0415,29.3505c25.5838,8.501 65.1412,5.7472 94.9894,5.7573c17.4971,0.006 89.3062,2.1224 99.4137,-1.4748zm-52.5701,55.1836c12.7406,-2.8708 35.8871,-20.4664 42.8638,-35.824c-3.9898,2.995 -6.2782,5.5746 -10.2937,8.9961l-21.5153,18.2911c-3.7591,3.3907 -7.6394,5.992 -11.0548,8.5368zm-106.7383,0c-12.7396,-2.8708 -35.8866,-20.4664 -42.8638,-35.824c3.9903,2.995 6.2792,5.5746 10.2947,8.9961l21.5142,18.2911c3.7602,3.3907 7.639,5.992 11.0549,8.5368zm169.4548,-56.355c9.0436,-2.1436 18.9699,-4.8181 17.7172,-15.6998c-10.7894,-0.8929 -16.2757,5.8184 -17.7172,15.6998zm-240.5461,-0.0631c-1.7363,-10.9509 -6.3217,-15.1648 -17.3417,-16.1304c-2.1552,11.6979 6.7824,13.9576 17.3417,16.1304z"/>
  <path fill="#ffffff" fill-rule="evenodd" id="path6" d="m214.4953,165.819c-11.8933,1.3688 -15.2537,4.7393 -22.0911,6.4144c-15.9467,3.9051 -35.1175,-6.5129 -39.6367,-15.0749c10.9181,7.1423 26.1536,13.3321 43.1611,8.4868c22.6801,-6.4634 53.5392,-6.3372 81.5961,-5.8754c28.0559,-0.4618 58.9165,-0.588 81.5971,5.8754c17.0076,4.8453 32.2436,-1.3445 43.1607,-8.4868c-4.5188,8.562 -23.6891,18.98 -39.6367,15.0749c-6.8375,-1.6751 -10.1979,-5.0456 -22.0906,-6.4144c-24.11,-2.775 -101.9479,-2.775 -126.0599,0zm4.4122,-21.1509c6.147,-3.27 6.0663,-5.8401 14.0146,-6.4578l54.7642,-0.0293c17.4638,0 56.7209,-3.2267 58.9175,11.6232c-0.2675,-11.975 -9.5448,-15.0901 -22.236,-15.0861l-76.6387,0.0394c-14.9857,-0.0157 -22.985,-2.3576 -28.8216,9.9106z"/>
  <path fill="#000000" fill-rule="evenodd" id="path8" d="m210.7812,41.7506l39.2216,1.5301c40.1906,-0.006 75.6777,-0.2335 116.1754,-1.3045c-80.8084,-1.162 -43.769,-0.877 -155.397,-0.2256z"/>
  <path fill="#ffffff" fill-rule="evenodd" id="path10" d="m354.7742,128.939c10.3886,1.2603 22.5312,-0.8615 31.1518,-4.7055c9.2419,-4.122 15.2395,-9.7713 17.6486,-20.7813c-7.16,2.1551 -44.3801,21.7211 -48.8004,25.4868z"/>
  <path fill="#ffffff" fill-rule="evenodd" id="path12" d="m209.5869,128.4081l-49.1563,-25.1679c2.824,20.3423 27.2585,27.5764 49.1563,25.1679z"/>
  <path fill="#000000" fill-rule="evenodd" id="path14" d="m222.0881,54.2156l-3.721,0l0.0717,-2.0373l-5.5814,0l-2.7797,2.0373l-3.6266,0l11.1064,-7.7318l4.4742,0l0.0564,7.7318zm-3.5762,-3.2763l0.1194,-2.907l-0.0942,0l-3.9815,2.907l3.9563,0zm19.7649,0.3574l-0.8405,1.1914c-0.4535,0.6432 -1.281,1.0922 -2.4803,1.3462c-1.1999,0.2543 -2.8046,0.3813 -4.8138,0.3813l-6.3587,0l5.4544,-7.7318l6.1934,0c2.1666,0 3.5479,0.123 4.1435,0.3693c0.5952,0.2461 0.6777,0.675 0.246,1.2867l-0.6724,0.953c-0.1567,0.2222 -0.4751,0.4289 -0.955,0.6194c-0.4799,0.1907 -0.9621,0.3177 -1.4462,0.3812l-0.042,0.0595c0.5426,0.0321 0.9905,0.1591 1.3442,0.3813c0.3529,0.2225 0.4292,0.4765 0.2274,0.7625zm-2.4923,-2.4423l0.2688,-0.381c0.1794,-0.2542 0.1851,-0.4291 0.0164,-0.5244c-0.1684,-0.0952 -0.7157,-0.1429 -1.6418,-0.1429l-2.4494,0l-1.2858,1.8227l2.52,0c0.8634,0 1.4561,-0.0555 1.7776,-0.1667c0.3223,-0.1111 0.5867,-0.3138 0.7942,-0.6077zm-1.8456,3.3834l0.4368,-0.6193c0.2019,-0.2861 0.1996,-0.4885 -0.007,-0.6078c-0.2064,-0.119 -0.6786,-0.1786 -1.4165,-0.1786l-3.1087,0l-1.4539,2.0611l2.6138,0c0.8949,0 1.5673,-0.0516 2.0171,-0.1548c0.4493,-0.1034 0.7552,-0.2701 0.9179,-0.5006l0.0005,0zm21.2125,-4.4317l-4.6859,0l-4.5216,6.4095l-3.674,0l4.5213,-6.4095l-4.7095,0l0.9329,-1.3223l13.0697,0l-0.9329,1.3223zm15.6577,0.9054l-2.387,3.3835c-0.3081,0.4368 -0.7988,0.8101 -1.4729,1.1199c-0.6741,0.3096 -1.4499,0.542 -2.3284,0.6968c-0.8787,0.155 -1.7249,0.2642 -2.539,0.3277c-0.8141,0.0635 -1.6531,0.0952 -2.5166,0.0952c-0.8163,0 -1.5636,-0.0258 -2.2416,-0.0774c-0.6772,-0.0516 -1.3703,-0.1488 -2.0778,-0.2919c-0.7078,-0.1429 -1.1891,-0.3731 -1.444,-0.6908c-0.2545,-0.3178 -0.2162,-0.711 0.1143,-1.1795l2.3867,-3.3835c0.2801,-0.3971 0.7033,-0.7466 1.2691,-1.0482c0.5664,-0.3019 1.1526,-0.5324 1.7595,-0.6911c0.606,-0.1587 1.298,-0.288 2.0744,-0.3872c0.7767,-0.0992 1.4476,-0.1607 2.014,-0.1846c0.5666,-0.0238 1.1554,-0.0357 1.768,-0.0357c0.6281,0 1.2123,0.0119 1.7526,0.0357c0.5406,0.0239 1.1293,0.0854 1.766,0.1846c0.6358,0.0992 1.1495,0.2285 1.5401,0.3872c0.39,0.1587 0.6528,0.3872 0.788,0.6851c0.1358,0.2977 0.0604,0.6492 -0.2254,1.0542zm-6.061,3.3835l2.3953,-3.3954c0.2633,-0.3733 0.146,-0.6352 -0.3518,-0.7863c-0.4978,-0.1508 -1.3354,-0.2262 -2.5132,-0.2262c-1.1931,0 -2.1396,0.0734 -2.84,0.2202c-0.7005,0.1472 -1.1846,0.4111 -1.4536,0.7923l-2.3953,3.3954c-0.14,0.1984 -0.1545,0.3634 -0.0428,0.4943c0.1122,0.131 0.3404,0.2245 0.6854,0.2801c0.3458,0.0555 0.688,0.0932 1.0276,0.1131c0.339,0.0198 0.7679,0.0298 1.2855,0.0298c0.5184,0 0.9606,-0.01 1.3283,-0.0298c0.3671,-0.0199 0.7588,-0.0576 1.1747,-0.1131c0.4164,-0.0556 0.7684,-0.1491 1.057,-0.2801c0.2886,-0.1309 0.5029,-0.2959 0.6429,-0.4943zm18.8507,2.1206l-3.6737,0l4.5215,-6.4095l-6.3584,0l-4.5215,6.4095l-3.6734,0l5.4541,-7.7318l13.7055,0l-5.4541,7.7318zm21.3562,-5.5041l-2.3868,3.3835c-0.3081,0.4368 -0.7991,0.8101 -1.4731,1.1199c-0.6738,0.3096 -1.4497,0.542 -2.3281,0.6968c-0.8788,0.155 -1.7252,0.2642 -2.5393,0.3277c-0.8141,0.0635 -1.6529,0.0952 -2.5163,0.0952c-0.8164,0 -1.5636,-0.0258 -2.2417,-0.0774c-0.6774,-0.0516 -1.3702,-0.1488 -2.0778,-0.2919c-0.7078,-0.1429 -1.1891,-0.3731 -1.4442,-0.6908c-0.2543,-0.3178 -0.2163,-0.711 0.1145,-1.1795l2.3868,-3.3835c0.28,-0.3971 0.703,-0.7466 1.2688,-1.0482c0.5666,-0.3019 1.1528,-0.5324 1.7594,-0.6911c0.6064,-0.1587 1.2983,-0.288 2.0747,-0.3872c0.7767,-0.0992 1.4477,-0.1607 2.014,-0.1846c0.5664,-0.0238 1.1554,-0.0357 1.7677,-0.0357c0.6282,0 1.2127,0.0119 1.753,0.0357c0.5405,0.0239 1.1293,0.0854 1.7657,0.1846c0.6361,0.0992 1.1494,0.2285 1.54,0.3872c0.3901,0.1587 0.6531,0.3872 0.7881,0.6851c0.1357,0.2977 0.0603,0.6492 -0.2254,1.0542zm-6.0608,3.3835l2.3953,-3.3954c0.2634,-0.3733 0.146,-0.6352 -0.352,-0.7863c-0.4975,-0.1508 -1.3352,-0.2262 -2.5132,-0.2262c-1.1929,0 -2.1393,0.0734 -2.8398,0.2202c-0.7004,0.1472 -1.1849,0.4111 -1.4536,0.7923l-2.3953,3.3954c-0.14,0.1984 -0.1545,0.3634 -0.0428,0.4943c0.112,0.131 0.3402,0.2245 0.6854,0.2801c0.3459,0.0555 0.688,0.0932 1.0273,0.1131c0.339,0.0198 0.7682,0.0298 1.2858,0.0298c0.5182,0 0.9607,-0.01 1.3283,-0.0298c0.3668,-0.0199 0.7589,-0.0576 1.1747,-0.1131c0.4161,-0.0556 0.7685,-0.1491 1.057,-0.2801c0.2886,-0.1309 0.5029,-0.2959 0.6429,-0.4943zm12.8132,-5.6112l10.5027,0l-4.5216,6.4094l1.5075,0l-2.3281,3.3001l-3.3205,0l1.3952,-1.9777l-8.7131,0l-1.3953,1.9777l-3.3205,0l2.3281,-3.3001l1.3184,0c1.1359,-0.5638 2.1036,-1.1954 2.9027,-1.8944c0.7988,-0.6987 1.7201,-1.787 2.7621,-3.2641l0.8824,-1.2509zm5.9199,1.3223l-3.297,0l-0.4201,0.5956c-1.4009,1.9857 -3.0067,3.4829 -4.8169,4.4915l4.9453,0l3.5887,-5.0871zm19.5457,0l-8.2188,0l-1.1262,1.5965l2.7321,0c0.612,0 1.0936,0.002 1.4437,0.006c0.3509,0.004 0.7854,0.0158 1.3056,0.0357c0.5199,0.0198 0.9187,0.0496 1.1965,0.0893c0.2786,0.0397 0.574,0.0992 0.8872,0.1786c0.3124,0.0796 0.5262,0.1768 0.6418,0.2919c0.1148,0.1151 0.1786,0.2583 0.1916,0.4289c0.0128,0.1709 -0.0592,0.3674 -0.216,0.5896l-0.9581,1.3584c-0.8628,1.2231 -3.3505,1.8346 -7.4639,1.8346l-6.8292,0l5.4544,-7.7318l11.8922,0l-0.9329,1.3223zm-5.5925,4.2889l0.5128,-0.7268c0.1792,-0.254 0.0828,-0.423 -0.2905,-0.5063c-0.3728,-0.0833 -0.9989,-0.125 -1.878,-0.125l-3.0381,0l-1.5211,2.1563l2.9911,0c0.9575,0 1.688,-0.0675 2.1915,-0.2027c0.5037,-0.1349 0.8475,-0.3333 1.0323,-0.5955zm22.9457,-3.3835l-2.3868,3.3835c-0.3081,0.4368 -0.7988,0.8101 -1.4732,1.1199c-0.6738,0.3096 -1.4496,0.542 -2.3281,0.6968c-0.8787,0.155 -1.7251,0.2642 -2.5393,0.3277c-0.8141,0.0635 -1.6528,0.0952 -2.5163,0.0952c-0.8163,0 -1.5636,-0.0258 -2.2416,-0.0774c-0.6775,-0.0516 -1.3703,-0.1488 -2.0778,-0.2919c-0.7078,-0.1429 -1.1891,-0.3731 -1.4443,-0.6908c-0.2542,-0.3178 -0.216,-0.711 0.1146,-1.1795l2.3867,-3.3835c0.2801,-0.3971 0.7033,-0.7466 1.2691,-1.0482c0.5664,-0.3019 1.1526,-0.5324 1.7595,-0.6911c0.606,-0.1587 1.298,-0.288 2.0744,-0.3872c0.7767,-0.0992 1.4476,-0.1607 2.014,-0.1846c0.5663,-0.0238 1.1554,-0.0357 1.7677,-0.0357c0.6281,0 1.2126,0.0119 1.7529,0.0357c0.5406,0.0239 1.1293,0.0854 1.766,0.1846c0.6358,0.0992 1.1492,0.2285 1.5398,0.3872c0.3903,0.1587 0.6531,0.3872 0.7883,0.6851c0.1355,0.2977 0.0604,0.6492 -0.2256,1.0542zm-6.0608,3.3835l2.3953,-3.3954c0.2633,-0.3733 0.146,-0.6352 -0.3518,-0.7863c-0.4978,-0.1508 -1.3354,-0.2262 -2.5132,-0.2262c-1.1931,0 -2.1396,0.0734 -2.84,0.2202c-0.7005,0.1472 -1.1849,0.4111 -1.4536,0.7923l-2.3953,3.3954c-0.14,0.1984 -0.1545,0.3634 -0.0428,0.4943c0.1119,0.131 0.3401,0.2245 0.6854,0.2801c0.3458,0.0555 0.688,0.0932 1.0276,0.1131c0.339,0.0198 0.7679,0.0298 1.2855,0.0298c0.5184,0 0.9606,-0.01 1.3283,-0.0298c0.3671,-0.0199 0.7588,-0.0576 1.1747,-0.1131c0.4161,-0.0556 0.7684,-0.1491 1.057,-0.2801c0.2886,-0.1309 0.5029,-0.2959 0.6429,-0.4943zm21.5218,-3.8362l-1.0336,1.4653c-0.538,0.7625 -1.4068,1.2826 -2.6078,1.5607c-1.2013,0.2781 -2.9557,0.417 -5.2631,0.417l-2.0254,0l-1.7733,2.5138l-3.6737,0l5.4544,-7.7318l6.1226,0c2.1668,0 3.632,0.121 4.3951,0.3634c0.7631,0.2421 0.898,0.7126 0.4048,1.4116zm-4.5474,1.4057l0.8739,-1.239c0.1738,-0.246 0.1018,-0.411 -0.216,-0.4943c-0.3183,-0.0834 -0.9875,-0.1251 -2.008,-0.1251l-2.2845,0l-1.8487,2.621l2.3315,0c0.9575,0 1.6733,-0.0576 2.1472,-0.1727c0.4737,-0.1153 0.8085,-0.3118 1.0046,-0.5899z"/>
  <path fill="#000000" fill-rule="evenodd" id="path16" d="m210.7812,58.5503l39.2216,1.5301c40.1906,-0.006 75.6777,-0.2335 116.1754,-1.3045c-80.8084,-1.1619 -43.769,-0.877 -155.397,-0.2256z"/>
  <path fill="#ffffff" fill-rule="evenodd" id="path18" d="m150.731,217.4486c-0.8597,3.0617 -2.2229,4.5927 -4.0893,4.5927c-0.7758,0 -1.7195,-0.2727 -2.8309,-0.8181c-0.4615,-0.2514 -1.0069,-0.6185 -1.6149,-1.0904c-0.608,-0.4717 -0.9332,-0.713 -0.9646,-0.7339c-0.1154,-0.0839 -0.493,-0.2727 -1.1325,-0.5766c-0.629,-0.3042 -1.101,-0.6083 -1.3946,-0.9332c-0.2829,-0.3146 -0.4298,-0.7551 -0.4298,-1.3212c0,-0.5978 0.4088,-1.9188 1.2374,-3.9532c0.8178,-2.0341 1.2894,-3.3134 1.4048,-3.848c-1.6251,0 -3.2295,0.2727 -4.8441,0.8178c-0.4195,0.7968 -1.059,2.3173 -1.9296,4.5507c-0.8702,2.2439 -1.5726,3.8064 -2.097,4.6976c-0.3459,0.629 -0.6605,1.08 -0.9647,1.3524c-0.2933,0.2727 -0.8282,0.409 -1.6146,0.409c-0.4929,0 -1.0695,-0.0944 -1.7093,-0.2936c-0.6395,-0.1885 -1.1429,-0.4298 -1.4992,-0.7234c-0.7342,-0.5454 -1.7198,-1.6356 -2.9571,-3.2715c-0.1885,-0.2517 -0.4088,-0.5451 -0.6605,-0.8702c-0.2517,-0.3252 -0.451,-0.6818 -0.608,-1.0591c-0.1573,-0.3775 -0.2412,-0.8073 -0.2412,-1.2792c0,-0.4405 0.0839,-0.8703 0.2517,-1.3003c0.1675,-0.4297 0.3878,-0.8912 0.6604,-1.3737c0.2727,-0.4926 0.4301,-0.7863 0.472,-0.9017c0.5871,-0.9121 0.8912,-1.709 0.8912,-2.4012c0,-1.2265 -0.0314,-2.2541 -0.1049,-3.0722c-0.0629,-0.8283 -0.0944,-1.2688 -0.0944,-1.3209c0,-0.3671 0.2937,-0.7552 0.8913,-1.1534c0.6083,-0.4091 1.1639,-0.6923 1.6883,-0.8601c0.6709,-0.199 1.4153,-1.038 2.2124,-2.5163c2.401,-4.2466 4.2046,-7.361 5.4105,-9.3322c1.2056,-1.9712 2.6841,-4.0788 4.4351,-6.3332c1.7512,-2.2544 3.9007,-4.6241 6.4485,-7.109c0.6398,-0.5873 1.3527,-0.8807 2.1288,-0.8807c0.5451,0 1.1846,0.199 1.9293,0.608c0.7339,0.3986 1.8978,1.122 3.4812,2.16c0.9752,0.5871 1.6356,1.0276 1.9922,1.3003c0.3459,0.2832 0.5241,0.7024 0.5241,1.2793c0,0.8702 -0.3353,1.7509 -1.0065,2.6421c0.8178,0.4825 1.5205,0.9856 2.118,1.5205c0.5874,0.5347 0.9122,1.2164 0.9646,2.0552c0,1.2583 -0.0209,2.076 -0.0629,2.4641c-0.1258,2.2125 -0.5975,5.2322 -1.3943,9.0697c-0.7971,3.8484 -1.6779,7.6544 -2.653,11.4188c-0.9646,3.7642 -1.7195,6.564 -2.2439,8.3883zm-7.1195,-18.5592c0.9541,-2.4747 1.7719,-5.4105 2.4639,-8.8079c-2.3275,2.8628 -4.1732,5.8615 -5.5361,8.9966c0.1675,0.0839 0.5241,0.1259 1.0695,0.1259c1.101,-0.0944 1.772,-0.1993 2.0027,-0.3146z"/>
  <path fill="#ffffff" fill-rule="evenodd" id="path20" d="m230.6657,219.7135c-0.2409,1.0066 -0.8492,1.5097 -1.8138,1.5097c-0.7339,0 -1.6566,-0.3563 -2.7786,-1.08c-1.1534,-0.8073 -2.0446,-1.5097 -2.6634,-2.118c-0.6185,-0.608 -1.059,-1.2685 -1.3317,-1.9712c-0.2619,-0.7024 -0.3983,-1.5622 -0.3983,-2.5688c0,-0.6397 0.1678,-1.5415 0.4927,-2.7054c0.7027,-2.6526 1.3317,-4.75 1.8771,-6.2912c0.5346,-1.5414 1.2265,-3.2819 2.0656,-5.2217c0.8283,-1.9397 1.5726,-3.7329 2.2019,-5.379c0.6395,-1.6568 1.3944,-3.8798 2.2859,-6.7002c-0.5873,0.0209 -1.4051,0.1678 -2.4432,0.4507c-1.038,0.2831 -1.7407,0.43 -2.0866,0.43c-0.6188,0 -0.9541,-0.2937 -0.9961,-0.8807c-0.0629,-0.9332 -0.2622,-2.3069 -0.5873,-4.1103c-0.3251,-1.8037 -0.4927,-2.9676 -0.4927,-3.5022c0,-0.8492 0.4822,-1.4785 1.4468,-1.8873c0.4091,-0.1888 1.6254,-0.451 3.6596,-0.7866c2.0236,-0.3353 4.278,-0.6395 6.7632,-0.9017c2.4743,-0.2622 4.5294,-0.3878 6.1443,-0.3878c0.7025,0 1.3213,0.1046 1.8454,0.3249c0.5244,0.2097 1.1219,0.6607 1.8142,1.3527c0.6814,0.6919 1.5831,1.7929 2.6841,3.2924c0.5034,0.7863 0.7548,1.51 0.7548,2.2019c0,0.4822 -0.2933,1.1535 -0.8807,2.0132c-0.7024,0.9122 -1.5831,1.3737 -2.6421,1.3737c-0.1993,0 -0.5769,-0.021 -1.122,-0.0525c-0.5349,-0.0419 -0.9856,-0.0629 -1.3317,-0.0629c-0.8283,0 -1.6044,0.1049 -2.3173,0.3147c0,0.6185 0.0314,1.1009 0.1153,1.4363c0.0839,0.3356 0.1259,0.6293 0.1259,0.8912c0,0.7237 -0.1468,1.3737 -0.43,1.9505c-5.1798,13.3583 -8.5037,23.0468 -9.9613,29.0656z"/>
  <path fill="#ffffff" fill-rule="evenodd" id="path22" d="m272.2727,178.9354c1.3527,-0.7863 2.611,-1.1741 3.7854,-1.1741c0.3146,0 0.8178,0.4402 1.4995,1.3315c0.6919,0.8915 1.3104,2.2963 1.8663,4.2256c0.5556,1.9295 0.8388,4.3409 0.8388,7.2666c0,1.8873 -0.1678,3.7851 -0.4927,5.6622c-0.6398,2.7261 -1.51,5.3266 -2.611,7.8114c-1.0905,2.4851 -2.4117,4.792 -3.9634,6.9415c-1.5414,2.139 -3.3134,4.0158 -5.3059,5.6517c-1.9921,1.6251 -4.2046,2.9149 -6.6265,3.8795c-1.2373,0.5034 -2.2439,0.7549 -3.0096,0.7549c-0.8492,0 -1.7719,-0.2515 -2.768,-0.7549c-1.6044,-0.8493 -3.1666,-2.0341 -4.6871,-3.5546c-1.5202,-1.5203 -2.5582,-2.9149 -3.1141,-4.1837c-0.5976,-1.1849 -0.8912,-2.6212 -0.8912,-4.2885c0,-1.0905 0.1678,-2.6422 0.5031,-4.6556c0.7866,-3.8271 1.8142,-7.2349 3.0935,-10.2232c1.279,-2.9778 2.6421,-5.5049 4.0997,-7.56c1.4573,-2.0446 2.852,-3.7644 4.2047,-5.1483c1.3422,-1.3841 2.9568,-2.9256 4.8441,-4.6241c0.4615,-0.3671 1.0383,-0.7549 1.7407,-1.1535c0.7025,-0.3985 1.3108,-0.5975 1.8349,-0.5975c0.5559,0 1.1324,0.2409 1.7303,0.7234c0.5975,0.4822 1.7404,1.709 3.4285,3.6697zm-13.023,29.9571c1.2898,-1.3212 2.6425,-3.0302 4.0476,-5.1273c1.4049,-2.1075 2.6212,-4.1944 3.6278,-6.26c1.0171,-2.0761 1.6044,-3.7327 1.7722,-4.97c0.1678,-0.8492 0.2413,-1.6149 0.2413,-2.3278c0,-0.8702 -0.1678,-1.4366 -0.5035,-1.6985c-0.1678,-0.0839 -0.2832,-0.1259 -0.3671,-0.1259c-0.5555,0 -1.1219,0.4822 -1.709,1.4468c-1.9187,3.1564 -3.6071,6.2915 -5.0434,9.4162c-1.4366,3.1246 -2.4641,5.9346 -3.062,8.4512c-0.0839,0.3356 -0.1258,0.7339 -0.1258,1.1953c0,0.3773 0.0839,0.5661 0.2517,0.5661c0.2098,0 0.5034,-0.1888 0.8702,-0.5661z"/>
  <path fill="#ffffff" fill-rule="evenodd" id="path24" d="m322.7688,219.7135c-0.241,1.0066 -0.8493,1.5097 -1.8139,1.5097c-0.7339,0 -1.6566,-0.3563 -2.7785,-1.08c-1.1535,-0.8073 -2.0447,-1.5097 -2.6635,-2.118c-0.6185,-0.608 -1.059,-1.2685 -1.3317,-1.9712c-0.2619,-0.7024 -0.3983,-1.5622 -0.3983,-2.5688c0,-0.6397 0.1679,-1.5415 0.4927,-2.7054c0.7027,-2.6526 1.3317,-4.75 1.8771,-6.2912c0.5346,-1.5414 1.2266,-3.2819 2.0656,-5.2217c0.8283,-1.9397 1.5727,-3.7329 2.202,-5.379c0.6395,-1.6568 1.3943,-3.8798 2.2858,-6.7002c-0.5873,0.0209 -1.4051,0.1678 -2.4432,0.4507c-1.038,0.2831 -1.7407,0.43 -2.0865,0.43c-0.6188,0 -0.9542,-0.2937 -0.9961,-0.8807c-0.063,-0.9332 -0.2622,-2.3069 -0.5874,-4.1103c-0.3251,-1.8037 -0.4926,-2.9676 -0.4926,-3.5022c0,-0.8492 0.4821,-1.4785 1.4468,-1.8873c0.409,-0.1888 1.6254,-0.451 3.6595,-0.7866c2.0236,-0.3353 4.278,-0.6395 6.7632,-0.9017c2.4743,-0.2622 4.5295,-0.3878 6.1444,-0.3878c0.7024,0 1.3212,0.1046 1.8453,0.3249c0.5244,0.2097 1.122,0.6607 1.8142,1.3527c0.6814,0.6919 1.5831,1.7929 2.6841,3.2924c0.5034,0.7863 0.7549,1.51 0.7549,2.2019c0,0.4822 -0.2934,1.1535 -0.8808,2.0132c-0.7024,0.9122 -1.5831,1.3737 -2.6421,1.3737c-0.1993,0 -0.5769,-0.021 -1.122,-0.0525c-0.5349,-0.0419 -0.9856,-0.0629 -1.3317,-0.0629c-0.8283,0 -1.6044,0.1049 -2.3173,0.3147c0,0.6185 0.0314,1.1009 0.1154,1.4363c0.0839,0.3356 0.1258,0.6293 0.1258,0.8912c0,0.7237 -0.1468,1.3737 -0.43,1.9505c-5.1798,13.3583 -8.5037,23.0468 -9.9612,29.0656zm38.8383,-34.8012c-1.4471,1.5205 -2.789,3.9109 -4.0158,7.1719c0.3668,0 1.1324,-0.021 2.2858,-0.0629c1.1534,-0.0315 2.0027,-0.0524 2.5478,-0.0524c0.8807,0 1.4261,0.0419 1.6464,0.1153c0.2829,0.0839 0.5241,0.2517 0.7024,0.4825c0.1888,0.2412 0.3251,0.5241 0.4195,0.8388c0.0944,0.3041 0.1783,0.6919 0.2724,1.1534c0.0944,0.4614 0.1678,0.8807 0.2308,1.2478c0.1363,0.5556 0.1992,1.0275 0.1992,1.4471c0,0.7653 -0.1888,1.3734 -0.566,1.8243c-1.143,1.4262 -2.4642,2.1391 -3.9637,2.1391c-2.6946,0 -5.1693,0.2412 -7.4342,0.7443c-1.1114,1.3108 -2.2019,3.8274 -3.2714,7.56c1.8243,0 3.691,-0.1468 5.6097,-0.4402c1.9083,-0.2936 3.1456,-0.4405 3.7117,-0.4405c0.7656,0 1.4366,0.2517 1.9925,0.7444c0.5556,0.4929 0.8388,1.1639 0.8388,2.0239c0,0.2934 -0.042,0.5766 -0.1154,0.8388c-0.0629,0.2622 -0.1678,0.5451 -0.2832,0.8598c-0.1259,0.3146 -0.2202,0.566 -0.2934,0.7548c-0.0314,0.0839 -0.1154,0.451 -0.2517,1.101c-0.1259,0.6503 -0.2727,1.1954 -0.43,1.6464c-0.1678,0.4507 -0.3983,0.8178 -0.7024,1.08c-1.101,0.9017 -3.5966,1.6775 -7.4971,2.3383c-3.7644,0.7129 -6.4485,1.0695 -8.053,1.0695c-0.8492,0 -1.8663,-0.7027 -3.0512,-2.1181c-1.1953,-1.4156 -2.1914,-2.7473 -2.9883,-3.9951c-0.7971,-1.3527 -1.1953,-2.5898 -1.1953,-3.7012c0,-1.51 1.4051,-5.7252 4.2046,-12.6561c-0.3251,-1.164 -0.4824,-2.1076 -0.4824,-2.831c0,-1.0276 0.367,-1.7615 1.1219,-2.1915c0.6712,-0.3146 1.3003,-0.5244 1.8876,-0.629c1.0695,-2.0134 2.7156,-4.9073 4.9175,-8.6819c-0.8807,-2.2649 -1.3212,-3.9008 -1.3212,-4.9074c0,-0.43 0.1573,-0.9122 0.472,-1.4261c0.3146,-0.5136 0.7234,-0.8597 1.2163,-1.038c1.1325,-0.4717 2.9883,-0.9751 5.5469,-1.5098c2.5582,-0.5349 4.6553,-0.8076 6.2807,-0.8076c1.8558,0 3.7222,0.2098 5.6097,0.6293c0.6605,0.1469 1.143,0.4612 1.4469,0.9332c0.4824,0.7339 1.0904,1.8768 1.8036,3.4288c0.7234,1.5622 1.08,2.4956 1.08,2.81c0,0.7971 -0.2202,1.4051 -0.6607,1.8456c-0.4402,0.4402 -0.9751,0.6605 -1.5937,0.6605c-0.6397,0 -1.4156,-0.1154 -2.3383,-0.3461c-0.9226,-0.2308 -1.5309,-0.3459 -1.8138,-0.3459c-1.1325,0 -2.3803,0.2305 -3.7225,0.692zm35.7973,18.8844c0,2.4324 -0.5451,4.6029 -1.6356,6.5219c-1.0905,1.9188 -2.548,3.5649 -4.3829,4.9491c-1.8351,1.3841 -3.7644,2.4746 -5.7986,3.2714c-2.0341,0.7968 -4.1102,1.3737 -6.2387,1.73c-0.2308,0 -0.8178,0.0524 -1.751,0.1468c-0.7866,0 -1.4366,-0.1783 -1.9505,-0.5136c-1.1429,-0.7761 -2.2124,-1.7932 -3.219,-3.0512c-0.9961,-1.2478 -1.7825,-2.3698 -2.3278,-3.3659c-0.2095,-0.3356 -0.3144,-0.7761 -0.3144,-1.3212c0,-0.6398 0.1468,-1.2898 0.4297,-1.9502c0.3147,-0.5769 1.3632,-2.0656 3.1561,-4.4669c0.4196,-0.5034 1.4261,-0.7551 3.0201,-0.7551c1.1534,0 1.8873,0.0839 2.1914,0.2517c0.2934,0.1678 0.5766,0.4615 0.8178,0.8807c0.021,0.0315 0.1469,0.3671 0.3671,1.0171c0.2305,0.6398 0.4297,1.1324 0.608,1.4471c0.1783,0.3251 0.3776,0.4929 0.6081,0.4929c0.3041,0 1.2268,-0.3776 2.7578,-1.1219c0.7653,-0.3671 1.3317,-0.6818 1.709,-0.9437c0.3776,-0.2727 0.5664,-0.7027 0.5664,-1.2688c0,-0.4195 -0.2622,-0.9646 -0.7866,-1.6358c-0.5137,-0.6605 -1.1532,-1.3734 -1.8874,-2.1181c-0.7443,-0.7549 -1.1324,-1.1639 -1.1639,-1.2058c-1.5516,-1.6986 -2.5792,-3.1352 -3.0826,-4.3305c-0.5032,-1.1954 -0.7549,-2.5583 -0.7549,-4.1103c0,-2.6631 0.6605,-5.0434 1.9817,-7.1614c1.3212,-2.1181 3.0722,-3.8903 5.2532,-5.3371c2.1704,-1.4471 4.5087,-2.5271 7.0044,-3.261c2.4953,-0.7341 4.8965,-1.1009 7.2243,-1.1009c0.8493,0 1.7405,0.4297 2.6635,1.2999c0.9331,0.8601 1.6985,2.0974 2.3275,3.712c0.6188,1.6044 0.923,3.4393 0.923,5.4944c0,0.3776 -0.0839,0.7444 -0.2622,1.1114c-0.1888,0.3671 -0.4091,0.7444 -0.6923,1.1325c-0.2829,0.3881 -0.5765,0.7863 -0.8702,1.2058c-0.3773,0.5766 -0.7339,1.1744 -1.059,1.8035c-0.3144,0.6188 -0.5137,0.996 -0.5871,1.1009c-0.3041,0.4196 -0.7656,0.6293 -1.3841,0.6293c-0.9542,0 -2.1181,-0.2097 -3.4813,-0.6293c-1.3733,-0.43 -2.3697,-0.7863 -3.0092,-1.0695c-0.5032,-0.2517 -0.7549,-0.7339 -0.7549,-1.4471c0,-0.5975 0.0629,-1.038 0.1783,-1.3314c0.1256,-0.3042 0.2829,-0.5978 0.4822,-0.8915c0.1993,-0.3039 0.2937,-0.5451 0.2937,-0.7444c0,-0.3251 -0.1679,-0.4926 -0.5035,-0.4926c-0.3458,0 -1.1114,0.3773 -2.2858,1.1114c-1.1741,0.7339 -2.0447,1.4154 -2.6317,2.0237c-0.3252,0.2412 -0.493,0.5136 -0.493,0.8283c0,0.2517 0.1049,0.4824 0.3042,0.6919c1.1639,1.101 2.3383,2.2124 3.5442,3.3554c1.2058,1.1324 2.139,2.139 2.8099,2.9987c0.6713,0.8706 1.1954,1.8037 1.552,2.8208c0.3563,1.0066 0.5346,2.2124 0.5346,3.5966zm24.0852,15.9168c-0.241,1.0066 -0.8493,1.5097 -1.8139,1.5097c-0.7339,0 -1.6566,-0.3563 -2.7786,-1.08c-1.1534,-0.8073 -2.0446,-1.5097 -2.6634,-2.118c-0.6185,-0.608 -1.059,-1.2685 -1.3317,-1.9712c-0.2619,-0.7024 -0.3983,-1.5622 -0.3983,-2.5688c0,-0.6397 0.1678,-1.5415 0.4927,-2.7054c0.7027,-2.6526 1.3317,-4.75 1.8771,-6.2912c0.5346,-1.5414 1.2265,-3.2819 2.0656,-5.2217c0.8283,-1.9397 1.5727,-3.7329 2.2019,-5.379c0.6395,-1.6568 1.3944,-3.8798 2.2859,-6.7002c-0.5873,0.0209 -1.4051,0.1678 -2.4432,0.4507c-1.038,0.2831 -1.7407,0.43 -2.0866,0.43c-0.6188,0 -0.9541,-0.2937 -0.9961,-0.8807c-0.0629,-0.9332 -0.2622,-2.3069 -0.5873,-4.1103c-0.3251,-1.8037 -0.4927,-2.9676 -0.4927,-3.5022c0,-0.8492 0.4822,-1.4785 1.4469,-1.8873c0.409,-0.1888 1.6253,-0.451 3.6595,-0.7866c2.0236,-0.3353 4.278,-0.6395 6.7632,-0.9017c2.4743,-0.2622 4.5294,-0.3878 6.1443,-0.3878c0.7025,0 1.3213,0.1046 1.8454,0.3249c0.5244,0.2097 1.1219,0.6607 1.8142,1.3527c0.6814,0.6919 1.5831,1.7929 2.6841,3.2924c0.5034,0.7863 0.7549,1.51 0.7549,2.2019c0,0.4822 -0.2934,1.1535 -0.8808,2.0132c-0.7024,0.9122 -1.5831,1.3737 -2.6421,1.3737c-0.1993,0 -0.5769,-0.021 -1.122,-0.0525c-0.5349,-0.0419 -0.9856,-0.0629 -1.3317,-0.0629c-0.8283,0 -1.6044,0.1049 -2.3173,0.3147c0,0.6185 0.0314,1.1009 0.1153,1.4363c0.0839,0.3356 0.1259,0.6293 0.1259,0.8912c0,0.7237 -0.1468,1.3737 -0.43,1.9505c-5.1798,13.3583 -8.5037,23.0468 -9.9612,29.0656z"/>
  <path fill="#ffffff" fill-rule="evenodd" id="path26" d="m186.8736,169.6568c3.1438,-3.876 6.457,-7.6508 9.7914,-11.3511c4.6429,-5.1521 9.4093,-10.2039 14.2695,-15.1512c5.4289,-5.5257 11.0005,-10.9628 16.7692,-16.1343c4.3943,-3.9398 9.2775,-8.1661 14.2554,-11.3438c3.7071,-2.3663 8.6971,-4.8114 13.2338,-4.2913c3.3653,0.3857 6.182,2.4925 6.8565,5.9131c0.3536,1.7935 0.0218,3.6806 -0.8893,5.2624c-0.9381,1.6288 -2.2866,3.1329 -3.5847,4.4843c-1.7097,1.7791 -3.5242,3.4803 -5.3089,5.1847c-5.2936,5.0559 -10.3365,10.1342 -15.1279,15.6828c-17.4431,20.1985 -30.418,44.268 -40.5798,68.8238c-0.9899,2.3919 -2.699,4.7341 -5.5454,4.7897c-3.0026,0.0588 -5.2303,-2.5778 -6.7373,-4.8621c-0.6625,-1.0043 -1.2582,-2.0541 -1.8204,-3.1176c-0.295,-0.5583 -0.5807,-1.1852 -0.8954,-1.7214c-5.0959,-8.4986 -10.0791,-16.7612 -16.4202,-24.4293c-2.6255,-3.1747 -5.2536,-5.9517 -8.2227,-8.7901c-1.7373,-1.6606 -3.4409,-3.3147 -5.0835,-5.0718c-4.2999,-4.5999 -1.1826,-11.5932 4.4617,-13.1734c5.2535,-1.4706 12.1003,0.853 16.9688,2.8563c3.3085,1.3612 6.5138,2.9353 9.712,4.5335c1.1676,0.5833 2.336,1.1758 3.5183,1.7282c0.11,0.0512 0.2391,0.113 0.3789,0.1786z"/>
  <path fill="#63b11d" fill-rule="evenodd" id="path28" d="m185.9975,171.3149c-3.0385,-0.105 -23.5993,-13.7312 -33.7884,-10.8786c-3.945,1.1043 -6.3994,5.943 -3.4085,9.1432c5.3151,5.6857 8.0867,7.324 14.7315,15.3592c7.3239,8.8563 12.607,17.7109 18.3003,27.2055c0.9435,1.5737 6.8325,15.1802 10.7081,5.8156c31.3228,-75.691 65.1744,-93.4734 71.0784,-103.7242c2.6497,-4.6006 -2.1152,-12.4285 -16.5366,-3.2226c-15.6032,9.9599 -47.8379,43.5826 -61.0848,60.3019z"/>
 </g>
</svg>